<?xml version="1.0" standalone="no"?>
<!DOCTYPE svg PUBLIC "-//W3C//DTD SVG 20010904//EN"
 "http://www.w3.org/TR/2001/REC-SVG-20010904/DTD/svg10.dtd">
<svg version="1.0" xmlns="http://www.w3.org/2000/svg"
 width="320" height="320" viewBox="0 0 1366.000000 768.000000"
 preserveAspectRatio="xMidYMid meet">

<g transform="translate(0.000000,768.000000) scale(0.100000,-0.100000)"
fill="#000000" stroke="none">
<path d="M0 3845 l0 -3835 60 0 60 0 0 3230 0 3230 6745 0 6745 0 0 605 0 605
-6805 0 -6805 0 0 -3835z m2246 3681 c18 -13 17 -14 -15 -13 -45 3 -52 -20 -9
-31 26 -6 33 -13 33 -33 0 -20 -6 -25 -34 -27 -18 -2 -39 2 -45 8 -8 8 -2 10
23 8 45 -4 50 14 9 33 -38 17 -44 31 -23 53 20 20 35 20 61 2z m268 -55 c-9
-34 -21 -61 -25 -61 -11 0 -12 -3 7 61 18 60 24 73 31 66 2 -3 -3 -33 -13 -66z
m130 63 c28 -11 17 -24 -14 -17 -24 4 -30 2 -30 -11 0 -9 8 -19 18 -22 9 -3
25 -10 34 -15 13 -6 20 -4 28 11 13 24 55 27 64 4 11 -28 7 -34 -25 -34 -19 0
-28 -4 -23 -11 3 -6 17 -8 31 -4 16 4 22 2 18 -5 -10 -16 -53 -12 -63 6 -8 14
-10 14 -21 0 -14 -17 -81 -22 -81 -7 0 5 14 8 31 7 44 -2 48 21 7 32 -38 10
-49 39 -22 59 20 15 26 16 48 7z m420 -10 c33 -33 13 -104 -30 -104 -44 0 -56
86 -15 110 22 13 27 12 45 -6z m94 3 c6 -7 10 -33 9 -57 -2 -44 -3 -45 -37
-45 -35 0 -35 1 -36 45 -2 59 35 92 64 57z m138 -12 c23 -35 8 -89 -26 -93
-44 -7 -65 52 -34 96 20 29 40 28 60 -3z m88 12 c13 -10 17 -24 14 -57 -3 -38
-7 -45 -26 -48 -13 -2 -30 2 -38 8 -19 16 -18 75 2 94 19 19 25 20 48 3z m110
-2 c3 -8 1 -15 -3 -15 -5 0 -11 7 -15 15 -3 8 -1 15 3 15 5 0 11 -7 15 -15z
m226 -45 c0 -29 5 -50 13 -53 6 -3 -6 -6 -28 -6 -32 0 -36 2 -22 10 24 14 24
79 0 79 -15 0 -14 2 2 14 28 20 35 11 35 -44z m100 50 c14 -7 18 -20 16 -57
-1 -46 -2 -48 -32 -51 -34 -3 -61 19 -48 40 5 7 7 24 5 37 -4 35 24 50 59 31z
m134 -6 c19 -18 21 -75 4 -92 -17 -17 -55 -15 -62 4 -12 32 -6 83 12 93 23 14
28 14 46 -5z m100 0 c33 -33 13 -104 -30 -104 -44 0 -56 86 -15 110 22 13 27
12 45 -6z m2310 10 c22 -8 20 -46 -4 -77 l-20 -26 27 -4 c20 -3 16 -4 -14 -6
-49 -1 -53 6 -18 39 14 13 25 32 25 43 0 15 -5 18 -25 13 -25 -6 -36 8 -12 17
18 8 23 8 41 1z m96 -54 c0 -29 5 -50 13 -53 6 -3 -6 -5 -28 -5 -22 0 -32 2
-22 5 12 3 17 15 17 44 0 21 -3 38 -7 38 -22 -4 -25 3 -8 15 28 20 35 11 35
-44z m144 44 c19 -18 21 -75 4 -92 -14 -14 -54 -16 -63 -3 -3 6 7 9 21 8 15
-1 29 4 31 11 3 7 -3 12 -14 12 -40 0 -59 50 -25 69 23 14 28 14 46 -5z m105
-16 c23 -41 6 -82 -37 -86 -19 -2 -32 1 -32 8 0 7 7 9 16 6 16 -6 44 9 44 24
0 5 -10 6 -21 3 -39 -11 -59 46 -25 69 19 13 40 4 55 -24z m82 22 c22 -12 27
-78 7 -98 -14 -14 -54 -16 -63 -3 -3 6 7 9 21 8 15 -1 29 4 31 11 3 7 -3 12
-14 12 -40 0 -59 50 -25 69 21 13 20 13 43 1z m101 -7 c20 -18 23 -54 8 -84
-12 -21 -70 -28 -70 -8 0 6 7 8 16 5 16 -6 44 9 44 23 0 4 -12 7 -27 6 -22 0
-29 5 -31 23 -4 24 13 52 31 52 6 0 19 -7 29 -17z m159 7 c22 -12 27 -78 7
-98 -14 -14 -54 -16 -63 -3 -3 6 7 9 21 8 15 -1 29 4 31 11 3 7 -3 12 -14 12
-40 0 -59 50 -25 69 21 13 20 13 43 1z m101 -7 c20 -18 23 -54 8 -84 -12 -21
-70 -28 -70 -8 0 6 7 8 16 5 16 -6 44 9 44 23 0 4 -12 7 -27 6 -22 0 -29 5
-31 23 -4 24 13 52 31 52 6 0 19 -7 29 -17z m89 7 c22 -12 27 -78 7 -98 -14
-14 -54 -16 -63 -3 -3 6 7 9 21 8 15 -1 29 4 31 11 3 7 -3 12 -14 12 -40 0
-59 50 -25 69 21 13 20 13 43 1z m103 -6 c19 -18 21 -75 4 -92 -14 -14 -54
-16 -63 -3 -3 6 7 9 21 8 15 -1 29 4 31 11 3 7 -3 12 -14 12 -40 0 -59 50 -25
69 23 14 28 14 46 -5z m2010 -41 c15 -31 24 -59 20 -62 -3 -3 -10 2 -15 12 -6
9 -21 17 -34 17 -13 0 -28 -8 -34 -17 -5 -10 -12 -15 -16 -12 -6 7 40 119 49
119 2 0 16 -25 30 -57z m226 0 c23 -52 26 -77 6 -50 -17 22 -55 22 -72 0 -23
-33 -22 -8 3 49 14 32 29 55 34 52 5 -2 18 -25 29 -51z m60 -4 c0 -27 5 -49
10 -49 6 0 10 13 10 29 0 17 5 33 10 36 6 4 10 -9 10 -32 0 -36 -2 -39 -30
-41 l-30 -2 0 60 c0 38 4 59 10 55 6 -3 10 -28 10 -56z m627 49 c6 -7 10 -33
9 -58 -1 -42 -3 -45 -30 -48 -16 -2 -34 2 -40 8 -8 9 -3 10 22 5 28 -6 32 -4
32 14 0 15 -7 21 -22 22 l-23 0 23 11 c31 15 29 42 -3 36 -26 -5 -35 6 -12 15
21 9 34 7 44 -5z m93 2 c14 -7 18 -20 16 -57 -1 -45 -3 -48 -30 -51 -16 -2
-34 2 -40 8 -8 8 -4 11 19 8 21 -2 30 2 33 15 2 12 -3 17 -20 18 l-23 0 23 11
c36 18 29 42 -10 34 -31 -5 -32 -5 -14 9 23 18 22 18 46 5z m104 -6 c33 -33
13 -104 -30 -104 -44 0 -56 86 -15 110 22 13 27 12 45 -6z m1096 -30 c0 -20
-5 -44 -10 -55 -15 -27 -54 -24 -74 6 -9 14 -21 25 -26 25 -6 0 -10 -11 -10
-25 0 -14 -4 -25 -10 -25 -5 0 -10 25 -10 55 l0 55 41 0 42 0 -6 -37 c-7 -44
4 -69 27 -60 12 5 16 20 16 57 0 32 4 49 10 45 6 -3 10 -22 10 -41z m-5432 29
c-33 -5 -37 -30 -7 -35 31 -4 46 -32 30 -52 -15 -18 -71 -22 -71 -6 0 6 11 8
25 4 18 -4 27 -1 31 11 10 25 -10 39 -35 26 -20 -11 -21 -9 -21 24 0 34 1 35
38 34 30 -2 32 -3 10 -6z m100 0 c-32 -5 -39 -33 -8 -33 25 0 41 -29 29 -52
-11 -20 -64 -25 -75 -7 -5 9 1 10 21 5 32 -8 51 10 33 31 -7 9 -15 10 -29 2
-17 -9 -19 -6 -19 26 0 34 1 35 38 34 30 -2 32 -3 10 -6z m3462 3 c0 -11 -19
-15 -25 -6 -3 5 1 10 9 10 9 0 16 -2 16 -4z m137 -12 c9 -24 -10 -49 -41 -52
-18 -2 -26 -9 -26 -23 0 -11 -4 -17 -10 -14 -5 3 -10 28 -10 56 l0 49 40 0
c28 0 43 -5 47 -16z m828 -16 c1 -15 4 -30 8 -34 3 -4 2 -15 -4 -26 -8 -15
-19 -18 -47 -16 l-37 3 -3 53 -3 53 43 -3 c39 -3 43 -5 43 -30z m308 25 c-25
-3 -33 -9 -33 -24 0 -14 7 -19 28 -20 l27 -2 -27 -4 c-22 -3 -28 -10 -28 -29
0 -13 -4 -24 -10 -24 -5 0 -10 25 -10 55 l0 55 43 -2 c36 -1 38 -2 10 -5z
m-953 -13 c0 -5 8 -11 18 -11 16 -1 16 -2 0 -6 -12 -3 -18 -14 -18 -34 0 -37
27 -40 32 -3 6 51 67 58 76 10 7 -32 -17 -46 -72 -43 -50 2 -51 3 -54 35 -5
50 -52 35 -52 -17 0 -18 -3 -22 -11 -14 -6 6 -9 23 -7 38 2 23 9 29 33 32 17
2 32 8 33 14 5 12 22 12 22 -1z m780 0 c0 -5 8 -11 18 -11 16 -1 16 -2 0 -6
-23 -6 -25 -63 -3 -63 8 0 15 7 15 15 0 8 11 17 25 21 14 3 25 10 25 16 0 5
-9 6 -20 3 -12 -4 -20 -2 -20 5 0 6 12 10 28 8 23 -3 27 -8 30 -41 l3 -37 -58
2 c-58 3 -58 3 -63 38 -4 19 -4 41 -2 48 5 14 22 16 22 2z m-4760 -20 c0 -12
7 -20 18 -21 15 -1 15 -2 1 -6 -10 -2 -20 -14 -24 -26 l-8 -22 -4 23 c-2 12
-12 23 -21 23 -15 1 -15 2 1 6 9 2 17 13 17 24 0 10 5 19 10 19 6 0 10 -9 10
-20z m-3690 -7 c10 -17 10 -17 20 0 7 10 23 17 41 17 30 0 30 0 27 -52 -3 -52
-4 -53 -35 -56 -19 -2 -33 1 -33 8 0 6 10 8 25 4 15 -4 25 -2 25 5 0 6 -9 11
-20 11 -10 0 -24 8 -29 18 -7 14 -18 18 -40 14 -17 -2 -28 -9 -25 -14 4 -5 15
-8 25 -5 11 3 19 1 19 -5 0 -5 -15 -8 -32 -6 -26 2 -34 8 -36 26 -7 45 45 72
68 35z m448 5 c10 -10 15 -10 22 2 5 8 12 11 16 7 4 -3 1 -13 -6 -22 -10 -12
-10 -18 0 -30 7 -9 10 -19 6 -22 -4 -4 -11 -1 -16 7 -7 12 -12 12 -22 2 -19
-19 -30 -14 -18 8 8 14 8 26 0 40 -12 22 -1 27 18 8z m422 2 c0 -5 -4 -10 -10
-10 -5 0 -10 5 -10 10 0 6 5 10 10 10 6 0 10 -4 10 -10z m314 -6 c3 -9 6 -27
6 -40 0 -21 -5 -24 -35 -24 -28 0 -35 4 -35 20 0 13 9 22 25 26 14 3 22 10 19
15 -3 6 -15 7 -26 3 -14 -4 -18 -2 -14 5 11 17 53 13 60 -5z m82 5 c4 -7 0 -9
-14 -5 -30 10 -35 -9 -6 -23 14 -6 24 -17 22 -24 -6 -15 -68 -22 -68 -7 0 6
10 8 25 4 15 -4 25 -2 25 5 0 6 -6 11 -14 11 -18 0 -39 27 -31 40 8 13 52 13
61 -1z m264 1 c0 -5 -4 -10 -10 -10 -5 0 -10 5 -10 10 0 6 5 10 10 10 6 0 10
-4 10 -10z m5536 -15 c3 -14 10 -25 14 -25 4 0 11 11 14 25 4 14 11 25 16 25
13 0 13 -1 -5 -44 -8 -20 -20 -36 -25 -36 -5 0 -17 16 -25 36 -18 43 -18 44
-5 44 5 0 12 -11 16 -25z m502 -2 c3 -19 -1 -23 -22 -23 -14 0 -26 -5 -26 -11
0 -7 10 -9 25 -5 15 4 25 2 25 -4 0 -7 -14 -10 -32 -8 -26 2 -34 8 -36 26 -6
38 5 54 35 50 20 -2 29 -9 31 -25z m842 7 c16 -31 -4 -62 -38 -58 -28 3 -40
32 -28 64 8 21 54 17 66 -6z m314 -2 c16 -26 -4 -53 -40 -53 -23 0 -30 5 -32
23 -7 47 47 69 72 30z m96 -17 c0 -22 -3 -46 -6 -55 -7 -18 -64 -23 -64 -5 0
6 8 8 19 4 11 -3 22 -1 26 5 3 5 -2 10 -12 10 -25 0 -43 19 -43 45 0 29 8 35
47 35 32 0 33 -1 33 -39z m85 -1 c0 -31 -3 -35 -27 -38 -34 -4 -54 27 -38 59
8 14 19 19 38 17 24 -3 27 -7 27 -38z m-8312 3 c-7 -2 -21 -2 -30 0 -10 3 -4
5 12 5 17 0 24 -2 18 -5z m4035 0 c-10 -2 -26 -2 -35 0 -10 3 -2 5 17 5 19 0
27 -2 18 -5z m4385 0 c-7 -2 -21 -2 -30 0 -10 3 -4 5 12 5 17 0 24 -2 18 -5z
m-8143 -33 c0 -5 -4 -10 -10 -10 -5 0 -10 5 -10 10 0 6 5 10 10 10 6 0 10 -4
10 -10z m660 0 c0 -5 -4 -10 -10 -10 -5 0 -10 5 -10 10 0 6 5 10 10 10 6 0 10
-4 10 -10z m5610 0 c0 -5 -4 -10 -10 -10 -5 0 -10 5 -10 10 0 6 5 10 10 10 6
0 10 -4 10 -10z m670 -4 c0 -8 -4 -18 -10 -21 -5 -3 -10 3 -10 14 0 12 5 21
10 21 6 0 10 -6 10 -14z m363 8 c3 -3 3 -13 0 -21 -5 -12 -7 -12 -14 -1 -15
23 -4 40 14 22z m-8149 -433 c4 -5 3 -16 0 -25 -5 -12 -20 -16 -65 -16 -59 0
-59 0 -59 -30 0 -30 1 -30 55 -30 42 0 57 -4 62 -16 8 -23 -14 -34 -69 -34
l-48 0 0 -49 c0 -52 -8 -65 -34 -55 -13 5 -16 26 -16 128 0 68 3 126 7 129 10
10 161 8 167 -2z m94 -103 c2 -101 4 -108 23 -108 15 0 20 -5 17 -22 -4 -28
-44 -36 -73 -14 -17 12 -20 28 -23 121 -4 122 -1 138 30 133 22 -3 23 -8 26
-110z m615 101 c12 -7 25 -17 29 -23 12 -17 9 -71 -3 -83 -9 -9 -8 -16 5 -28
22 -22 20 -71 -4 -95 -17 -17 -33 -20 -105 -20 l-85 0 0 123 c0 68 3 127 7
130 11 12 133 8 156 -4z m135 -101 c2 -101 4 -108 23 -108 15 0 20 -5 17 -22
-4 -28 -44 -36 -73 -14 -17 12 -20 28 -23 121 -4 122 -1 138 30 133 22 -3 23
-8 26 -110z m5098 37 c21 -16 16 -18 -34 -15 -27 1 -33 -2 -30 -16 2 -10 17
-21 35 -26 38 -10 47 -21 39 -52 -7 -28 -44 -40 -80 -26 -40 15 -31 29 14 23
32 -5 40 -3 40 10 0 10 -12 19 -27 23 -57 14 -71 50 -31 78 28 20 49 20 74 1z
m164 -10 c0 -21 5 -25 30 -25 29 0 50 -22 50 -52 0 -28 -27 -51 -63 -53 l-37
-3 0 79 c0 46 4 79 10 79 6 0 10 -11 10 -25z m870 -54 l0 -79 -35 2 c-44 4
-65 21 -65 55 0 35 17 51 52 51 23 0 28 4 28 25 0 14 5 25 10 25 6 0 10 -33
10 -79z m1425 54 c29 -28 32 -70 10 -103 -12 -16 -13 -26 -5 -42 9 -16 8 -20
-5 -20 -9 0 -18 6 -21 14 -3 8 -19 18 -35 21 -59 13 -78 86 -34 130 13 14 34
25 45 25 11 0 32 -11 45 -25z m285 -40 c0 -51 3 -65 15 -65 11 0 15 11 15 40
0 29 4 40 15 40 11 0 15 -12 15 -49 0 -45 -2 -49 -27 -54 -48 -9 -53 -1 -53
79 0 43 4 74 10 74 6 0 10 -28 10 -65z m178 -20 c-3 -67 -3 -68 -32 -71 -47
-5 -66 11 -66 55 0 40 11 51 51 51 12 0 19 7 19 18 0 10 3 22 7 25 16 16 24
-14 21 -78z m220 8 c-3 -73 -4 -76 -28 -79 -38 -3 -70 22 -70 54 0 34 16 52
47 52 16 0 23 6 23 18 0 10 3 22 7 25 18 19 24 0 21 -70z m-2400 34 c4 -36
-13 -57 -49 -57 -22 0 -28 -5 -31 -25 -7 -55 -23 -27 -26 43 l-3 73 53 -3 c50
-3 53 -5 56 -31z m1012 12 c17 -30 -11 -69 -50 -69 -23 0 -29 -5 -32 -25 -7
-54 -23 -27 -26 43 l-3 72 50 0 c41 0 52 -4 61 -21z m1050 11 c0 -5 -7 -10
-15 -10 -8 0 -15 5 -15 10 0 6 7 10 15 10 8 0 15 -4 15 -10z m-8451 -24 c15
-16 21 -33 19 -52 -3 -28 -6 -29 -60 -32 -32 -2 -58 -7 -58 -13 0 -16 43 -27
75 -18 42 12 45 12 45 -10 0 -12 -11 -23 -31 -30 -42 -15 -55 -14 -95 5 -37
18 -56 61 -47 108 12 63 108 89 152 42z m109 -1 l20 -25 20 25 c21 27 62 34
62 11 0 -8 -12 -29 -26 -46 l-27 -31 28 -29 c27 -28 31 -60 8 -67 -6 -2 -24
10 -39 26 l-27 31 -26 -31 c-18 -21 -31 -28 -43 -24 -24 10 -23 20 8 61 l27
35 -26 36 c-14 20 -24 40 -21 45 10 16 43 7 62 -17z m651 -1 c21 -26 28 -84
15 -119 -8 -19 -55 -45 -84 -45 -61 0 -105 59 -93 124 13 65 121 92 162 40z
m231 -77 c0 -90 -2 -103 -22 -124 -24 -25 -85 -31 -133 -13 -43 16 -25 35 29
32 50 -3 76 9 76 36 0 12 -3 13 -12 4 -18 -18 -62 -14 -91 8 -34 27 -44 78
-23 118 19 38 25 40 109 40 l67 0 0 -101z m5856 88 c4 -8 12 -15 20 -15 8 0
14 -4 14 -10 0 -5 -7 -10 -15 -10 -10 0 -15 -10 -15 -30 0 -20 5 -30 15 -30
17 0 20 -16 5 -25 -21 -13 -50 15 -50 50 0 18 -6 36 -12 39 -10 5 -10 7 0 12
6 3 12 12 12 20 0 19 19 18 26 -1z m-1088 -27 c21 -21 14 -66 -13 -84 -23 -15
-27 -15 -50 0 -17 11 -25 26 -25 44 0 35 16 52 50 52 14 0 31 -5 38 -12z m195
-6 c-13 -10 -23 -31 -25 -52 -5 -54 -23 -42 -26 18 l-3 52 38 0 c38 0 38 -1
16 -18z m107 -1 c17 -32 12 -41 -25 -41 -47 0 -45 -18 3 -22 l37 -3 -27 -14
c-24 -12 -30 -12 -53 3 -27 18 -34 63 -13 84 19 19 66 15 78 -7z m410 10 c0
-5 -9 -11 -19 -14 -14 -3 -21 -15 -23 -43 -4 -57 -23 -47 -26 14 l-3 52 35 0
c20 0 36 -4 36 -9z m88 -3 c21 -21 14 -66 -13 -84 -23 -15 -27 -15 -50 0 -17
11 -25 26 -25 44 0 35 16 52 50 52 14 0 31 -5 38 -12z m172 -29 c0 -33 3 -40
18 -37 12 2 18 14 20 41 5 56 22 44 22 -16 l0 -53 -33 1 c-48 2 -57 11 -57 61
0 32 4 44 15 44 11 0 15 -11 15 -41z m238 29 c21 -21 14 -66 -13 -84 -23 -15
-27 -15 -50 0 -17 11 -25 26 -25 44 0 35 16 52 50 52 14 0 31 -5 38 -12z m102
-2 c0 -9 -8 -12 -25 -8 -15 2 -25 0 -25 -7 0 -6 6 -11 14 -11 21 0 46 -28 40
-45 -8 -19 -31 -26 -60 -19 -32 8 -31 28 1 22 34 -7 43 10 12 21 -31 12 -39
24 -31 45 8 20 74 22 74 2z m410 5 c0 -5 -9 -11 -20 -14 -16 -4 -20 -14 -20
-46 0 -23 -4 -41 -10 -41 -5 0 -10 25 -10 55 0 54 0 55 30 55 17 0 30 -4 30
-9z m90 -10 c17 -32 12 -41 -25 -41 -47 0 -45 -18 3 -22 l37 -3 -27 -14 c-24
-12 -30 -12 -53 3 -44 29 -27 96 25 96 19 0 33 -7 40 -19z m100 6 c0 -7 -12
-13 -27 -12 -23 0 -28 -4 -28 -25 0 -20 6 -26 28 -28 24 -3 40 -22 18 -22 -5
0 -7 -9 -4 -20 4 -16 0 -20 -20 -20 -20 0 -24 4 -20 19 3 11 -2 21 -11 24 -19
8 -22 67 -4 85 16 16 68 15 68 -1z m100 -8 c26 -48 -23 -104 -69 -80 -24 13
-30 68 -9 89 20 20 66 15 78 -9z m400 -19 c0 -33 3 -40 20 -40 17 0 20 7 20
40 0 29 4 40 16 40 12 0 14 -10 12 -51 -3 -49 -5 -52 -33 -55 -16 -2 -35 2
-42 8 -15 12 -18 98 -3 98 6 0 10 -18 10 -40z m170 20 c6 -12 10 -35 8 -52 -3
-27 -7 -31 -35 -34 -41 -5 -67 19 -53 47 6 11 21 19 35 19 14 0 25 5 25 11 0
6 -10 10 -22 9 -34 -3 -40 -1 -33 10 11 19 64 11 75 -10z m328 -35 l3 -51 -36
1 c-20 1 -41 7 -48 14 -17 17 4 45 39 51 19 4 25 8 16 13 -7 5 -21 5 -32 2
-11 -4 -20 -2 -20 3 0 16 14 23 45 20 29 -3 30 -5 33 -53z m220 43 c7 -7 12
-20 12 -30 0 -14 -8 -18 -36 -18 -21 0 -33 -4 -29 -10 3 -5 19 -10 36 -10 34
0 39 -15 8 -23 -58 -15 -104 47 -63 87 18 19 55 21 72 4z"/>
<path d="M2695 7480 c-3 -5 3 -10 15 -10 12 0 18 5 15 10 -3 6 -10 10 -15 10
-5 0 -12 -4 -15 -10z"/>
<path d="M3016 7495 c-7 -29 10 -68 27 -62 19 6 15 81 -4 85 -11 2 -19 -6 -23
-23z"/>
<path d="M3110 7506 c0 -15 24 -28 34 -19 13 14 5 33 -14 33 -11 0 -20 -6 -20
-14z"/>
<path d="M3112 7453 c4 -22 43 -25 43 -3 0 8 -11 16 -23 18 -19 3 -23 0 -20
-15z"/>
<path d="M3244 7506 c-9 -25 0 -71 15 -71 21 0 35 29 27 58 -7 29 -33 36 -42
13z"/>
<path d="M3344 7506 c-9 -23 0 -69 13 -74 16 -5 33 39 26 67 -6 24 -31 28 -39
7z"/>
<path d="M3780 7506 c0 -8 4 -17 8 -20 13 -8 35 11 28 23 -10 16 -36 14 -36
-3z"/>
<path d="M3774 7459 c-9 -15 12 -33 30 -26 9 4 16 13 16 22 0 17 -35 21 -46 4z"/>
<path d="M3912 7478 c2 -30 7 -43 18 -43 24 0 21 79 -3 83 -16 3 -18 -2 -15
-40z"/>
<path d="M4006 7495 c-7 -29 10 -68 27 -62 19 6 15 81 -4 85 -11 2 -19 -6 -23
-23z"/>
<path d="M6560 7501 c0 -15 6 -21 21 -21 14 0 19 5 17 17 -5 26 -38 29 -38 4z"/>
<path d="M6655 7510 c-8 -14 3 -30 21 -30 8 0 14 9 14 20 0 21 -24 28 -35 10z"/>
<path d="M6757 7513 c-14 -13 -6 -33 13 -33 13 0 20 7 20 20 0 19 -20 27 -33
13z"/>
<path d="M6850 7500 c0 -15 5 -20 18 -18 9 2 17 10 17 18 0 8 -8 16 -17 18
-13 2 -18 -3 -18 -18z"/>
<path d="M7017 7513 c-14 -13 -6 -33 13 -33 13 0 20 7 20 20 0 19 -20 27 -33
13z"/>
<path d="M7110 7500 c0 -15 5 -20 18 -18 9 2 17 10 17 18 0 8 -8 16 -17 18
-13 2 -18 -3 -18 -18z"/>
<path d="M7207 7513 c-14 -13 -6 -33 13 -33 13 0 20 7 20 20 0 19 -20 27 -33
13z"/>
<path d="M7300 7501 c0 -15 6 -21 21 -21 25 0 22 33 -4 38 -12 2 -17 -3 -17
-17z"/>
<path d="M9312 7486 c-10 -23 -9 -26 8 -26 21 0 23 4 11 33 -6 17 -8 16 -19
-7z"/>
<path d="M9536 7484 c-9 -23 -8 -24 13 -24 14 0 18 5 14 20 -6 24 -19 26 -27
4z"/>
<path d="M10416 7495 c-7 -29 10 -68 27 -62 19 6 15 81 -4 85 -11 2 -19 -6
-23 -23z"/>
<path d="M11440 7500 c0 -16 5 -21 23 -18 12 2 22 10 22 18 0 8 -10 16 -22 18
-18 3 -23 -2 -23 -18z"/>
<path d="M9760 7500 c0 -15 7 -20 25 -20 18 0 25 5 25 20 0 15 -7 20 -25 20
-18 0 -25 -5 -25 -20z"/>
<path d="M10590 7499 c0 -15 5 -20 22 -17 34 5 37 38 4 38 -20 0 -26 -5 -26
-21z"/>
<path d="M10590 7450 c0 -17 5 -21 28 -18 16 2 27 9 27 18 0 9 -11 16 -27 18
-23 3 -28 -1 -28 -18z"/>
<path d="M10064 7476 c-8 -22 3 -49 19 -43 6 2 12 14 12 27 0 27 -22 39 -31
16z"/>
<path d="M10840 7440 c0 -5 7 -10 15 -10 8 0 15 5 15 10 0 6 -7 10 -15 10 -8
0 -15 -4 -15 -10z"/>
<path d="M2295 7480 c-3 -5 3 -10 15 -10 12 0 18 5 15 10 -3 6 -10 10 -15 10
-5 0 -12 -4 -15 -10z"/>
<path d="M2380 7480 c-12 -7 -12 -13 -4 -27 14 -23 28 -22 32 1 5 24 -10 37
-28 26z"/>
<path d="M3480 7440 c0 -5 4 -10 9 -10 6 0 13 5 16 10 3 6 -1 10 -9 10 -9 0
-16 -4 -16 -10z"/>
<path d="M9865 7480 c-3 -5 1 -10 10 -10 9 0 13 5 10 10 -3 6 -8 10 -10 10 -2
0 -7 -4 -10 -10z"/>
<path d="M10701 7477 c-13 -17 -5 -47 14 -47 19 0 28 32 12 47 -12 12 -16 12
-26 0z"/>
<path d="M11014 7476 c-8 -22 3 -49 19 -43 6 2 12 14 12 27 0 27 -22 39 -31
16z"/>
<path d="M11104 7476 c-9 -24 3 -47 21 -40 18 7 16 45 -2 52 -7 2 -16 -3 -19
-12z"/>
<path d="M11200 7475 c-15 -18 -6 -45 15 -45 9 0 15 9 15 24 0 31 -14 40 -30
21z"/>
<path d="M2960 6930 c0 -28 2 -30 39 -30 41 0 67 20 57 45 -4 10 -19 15 -51
15 -43 0 -45 -1 -45 -30z"/>
<path d="M2960 6825 c0 -35 0 -35 45 -35 34 0 47 5 55 19 15 28 -12 51 -61 51
-38 0 -39 -1 -39 -35z"/>
<path d="M8474 6866 c-9 -24 3 -46 26 -46 17 0 21 5 18 27 -3 31 -34 44 -44
19z"/>
<path d="M9277 6873 c-4 -3 -7 -17 -7 -30 0 -26 34 -33 44 -8 11 30 -17 59
-37 38z"/>
<path d="M10692 6908 c-15 -15 -16 -60 0 -76 21 -21 57 -14 64 12 11 44 1 71
-26 74 -14 2 -31 -3 -38 -10z"/>
<path d="M11154 6866 c-9 -24 4 -48 23 -44 12 2 18 12 18 28 0 29 -32 41 -41
16z"/>
<path d="M11380 6850 c0 -23 4 -30 20 -30 16 0 20 7 20 30 0 23 -4 30 -20 30
-16 0 -20 -7 -20 -30z"/>
<path d="M8970 6895 c0 -29 29 -35 50 -10 16 19 4 35 -26 35 -19 0 -24 -5 -24
-25z"/>
<path d="M9980 6895 c0 -26 22 -33 49 -16 21 13 5 41 -24 41 -20 0 -25 -5 -25
-25z"/>
<path d="M2567 6884 c-15 -16 -5 -24 29 -24 24 0 34 4 32 13 -5 13 -50 22 -61
11z"/>
<path d="M3322 6878 c-14 -14 -16 -57 -3 -76 11 -18 51 -12 65 10 25 41 -29
99 -62 66z"/>
<path d="M3532 6878 c-7 -7 -12 -24 -12 -40 0 -50 64 -61 76 -13 12 47 -33 84
-64 53z"/>
<path d="M8360 6850 c0 -23 4 -30 20 -30 16 0 20 7 20 30 0 23 -4 30 -20 30
-16 0 -20 -7 -20 -30z"/>
<path d="M8660 6870 c0 -5 9 -10 20 -10 11 0 20 5 20 10 0 6 -9 10 -20 10 -11
0 -20 -4 -20 -10z"/>
<path d="M9160 6850 c0 -23 4 -30 20 -30 16 0 20 7 20 30 0 23 -4 30 -20 30
-16 0 -20 -7 -20 -30z"/>
<path d="M9570 6850 c0 -23 4 -30 20 -30 16 0 20 7 20 30 0 23 -4 30 -20 30
-16 0 -20 -7 -20 -30z"/>
<path d="M10170 6870 c0 -5 9 -10 20 -10 11 0 20 5 20 10 0 6 -9 10 -20 10
-11 0 -20 -4 -20 -10z"/>
<path d="M10364 6866 c-9 -24 4 -48 23 -44 12 2 18 12 18 28 0 29 -32 41 -41
16z"/>
<path d="M10940 6830 c0 -5 9 -10 20 -10 11 0 20 5 20 10 0 6 -9 10 -20 10
-11 0 -20 -4 -20 -10z"/>
<path d="M11270 6831 c0 -18 18 -21 30 -6 10 13 9 15 -9 15 -11 0 -21 -4 -21
-9z"/>
<path d="M11495 6870 c-4 -6 5 -10 20 -10 15 0 24 4 20 10 -3 6 -12 10 -20 10
-8 0 -17 -4 -20 -10z"/>
<path d="M2104 6097 c-2 -7 -3 -82 -2 -167 l3 -155 25 0 c25 0 25 0 30 113 l5
113 89 -116 c70 -91 93 -115 110 -113 20 3 21 8 21 168 l0 165 -25 0 c-25 0
-25 0 -30 -113 l-5 -113 -89 115 c-85 112 -118 138 -132 103z"/>
<path d="M4357 6104 c-4 -4 -7 -69 -7 -144 0 -124 2 -140 21 -164 16 -20 29
-26 60 -26 35 0 39 2 39 26 0 14 -4 22 -10 19 -5 -3 -19 -1 -30 5 -18 9 -20
22 -22 148 -3 129 -4 137 -23 140 -12 2 -24 0 -28 -4z"/>
<path d="M2520 6003 c-56 -22 -87 -89 -70 -152 15 -56 50 -81 114 -81 79 1
116 40 116 124 0 64 -38 106 -100 112 -25 2 -52 1 -60 -3z m90 -62 c15 -30 12
-92 -7 -113 -39 -43 -98 -5 -97 63 1 21 7 46 14 54 18 22 77 19 90 -4z"/>
<path d="M2780 6003 c-31 -12 -50 -37 -50 -68 0 -40 15 -53 77 -68 37 -9 48
-16 48 -32 0 -15 -8 -21 -33 -23 -19 -2 -47 1 -63 7 -25 8 -31 7 -36 -6 -10
-26 25 -43 89 -43 49 0 63 4 83 25 48 47 20 98 -60 111 -51 7 -67 27 -41 52
13 14 22 14 58 5 45 -12 58 -10 58 12 0 24 -88 43 -130 28z"/>
<path d="M2998 5995 c-30 -17 -44 -51 -34 -83 7 -20 31 -32 96 -49 25 -6 35
-14 35 -28 0 -16 -8 -21 -42 -23 -23 -2 -51 2 -62 7 -14 8 -22 7 -30 -3 -20
-24 25 -46 89 -46 67 0 100 23 100 70 0 34 -26 55 -82 65 -48 9 -64 27 -43 49
19 19 31 20 75 5 26 -9 34 -9 41 2 23 37 -90 64 -143 34z"/>
<path d="M3248 5994 c-36 -19 -58 -63 -58 -115 0 -33 6 -47 34 -75 29 -29 41
-34 83 -34 98 0 148 81 108 176 -23 57 -107 81 -167 48z m108 -59 c31 -48 2
-125 -48 -125 -50 0 -78 91 -41 132 24 27 69 23 89 -7z"/>
<path d="M3508 5995 c-30 -17 -44 -51 -34 -83 7 -20 31 -32 96 -49 25 -6 35
-14 35 -28 0 -16 -8 -21 -42 -23 -23 -2 -51 2 -62 7 -14 8 -22 7 -30 -3 -20
-24 25 -46 89 -46 67 0 100 23 100 70 0 34 -26 55 -82 65 -48 9 -64 27 -43 49
19 19 31 20 75 5 26 -9 34 -9 41 2 23 37 -90 64 -143 34z"/>
<path d="M3825 5998 c-3 -8 14 -61 39 -119 41 -97 46 -104 72 -104 26 0 32 8
71 95 45 102 50 135 19 135 -15 0 -27 -18 -48 -70 -16 -38 -32 -73 -37 -78 -4
-4 -21 27 -38 70 -23 60 -35 79 -52 81 -11 2 -23 -3 -26 -10z"/>
<path d="M4128 5998 c-26 -9 -32 -17 -25 -35 1 -5 29 -8 62 -8 53 0 60 -2 63
-21 3 -19 -3 -22 -54 -27 -64 -7 -94 -28 -94 -67 0 -58 96 -95 142 -53 17 15
18 15 18 -1 0 -12 7 -16 23 -14 20 3 22 9 25 83 2 44 0 90 -3 102 -11 44 -92
65 -157 41z m102 -146 c0 -26 -20 -42 -52 -42 -30 0 -44 19 -34 45 3 10 19 15
46 15 32 0 40 -4 40 -18z"/>
<path d="M4548 5994 c-36 -19 -58 -63 -58 -115 0 -33 6 -47 34 -75 29 -29 41
-34 83 -34 98 0 148 81 108 176 -23 57 -107 81 -167 48z m108 -59 c31 -48 2
-125 -48 -125 -50 0 -78 91 -41 132 24 27 69 23 89 -7z"/>
<path d="M4784 5997 c-2 -7 -3 -60 -2 -118 3 -104 3 -104 28 -104 24 0 25 3
30 75 3 41 8 80 13 87 4 6 22 15 40 18 35 8 48 21 40 42 -7 17 -27 17 -62 -2
-26 -13 -30 -13 -41 0 -15 19 -39 19 -46 2z"/>
<path d="M5030 6003 c-31 -12 -70 -58 -76 -89 -8 -43 11 -99 43 -124 19 -14
41 -20 80 -20 64 0 93 13 93 42 0 16 -4 19 -22 14 -64 -19 -96 -18 -117 3 -34
34 -26 41 52 41 94 0 104 7 89 58 -7 21 -21 47 -31 56 -20 18 -85 30 -111 19z
m80 -53 c32 -32 24 -40 -40 -40 -33 0 -60 4 -60 10 0 17 39 50 60 50 11 0 29
-9 40 -20z"/>
<path d="M5258 5994 c-32 -17 -45 -56 -30 -89 8 -18 25 -26 67 -36 61 -13 68
-19 59 -43 -7 -18 -73 -22 -103 -7 -10 6 -23 6 -32 0 -12 -8 -10 -13 10 -29
17 -14 38 -20 76 -20 65 0 105 27 105 70 0 34 -26 55 -82 65 -50 10 -69 32
-43 52 19 13 37 13 93 -3 17 -5 22 -2 22 13 0 39 -89 56 -142 27z"/>
<path d="M5645 6001 c-81 -35 -95 -167 -22 -211 43 -27 126 -27 158 -1 19 16
21 22 12 32 -10 10 -18 10 -38 1 -40 -19 -82 -14 -105 10 -11 12 -20 25 -20
29 0 5 37 9 83 11 l82 3 -1 39 c-2 50 -37 86 -90 92 -21 2 -48 0 -59 -5z m89
-53 c9 -12 16 -26 16 -30 0 -5 -27 -8 -60 -8 -64 0 -72 8 -40 40 27 27 65 26
84 -2z"/>
<path d="M3353 5633 c-21 -8 -15 -51 7 -58 23 -7 50 10 50 31 0 11 -31 36 -42
33 -2 0 -9 -3 -15 -6z"/>
<path d="M2111 5616 c-8 -9 -11 -63 -9 -167 l3 -154 27 -3 c27 -3 27 -2 30 60
l3 63 72 5 c62 4 77 9 99 32 49 49 32 137 -31 164 -45 19 -179 19 -194 0z
m179 -56 c24 -24 25 -38 4 -68 -13 -19 -24 -22 -75 -22 l-59 0 0 55 0 55 55 0
c42 0 60 -5 75 -20z"/>
<path d="M3897 5624 c-4 -4 -7 -33 -7 -65 l0 -58 -27 15 c-85 43 -166 -31
-148 -136 10 -58 44 -90 98 -90 28 0 49 6 57 15 11 14 14 13 24 -1 7 -9 21
-14 32 -12 18 3 19 13 19 168 0 158 -1 165 -20 168 -12 2 -24 0 -28 -4z m-23
-160 c9 -8 16 -32 16 -52 0 -84 -73 -113 -109 -45 -27 52 -1 113 49 113 16 0
36 -7 44 -16z"/>
<path d="M4447 5624 c-4 -4 -7 -33 -7 -65 l0 -58 -27 15 c-85 43 -166 -31
-148 -136 10 -58 44 -90 98 -90 28 0 49 6 57 15 11 14 14 13 24 -1 7 -9 21
-14 32 -12 18 3 19 13 19 168 0 158 -1 165 -20 168 -12 2 -24 0 -28 -4z m-23
-160 c9 -8 16 -32 16 -52 0 -84 -73 -113 -109 -45 -27 52 -1 113 49 113 16 0
36 -7 44 -16z"/>
<path d="M5357 5624 c-4 -4 -7 -34 -7 -66 l0 -58 -25 16 c-30 20 -88 14 -116
-12 -28 -25 -42 -87 -30 -131 16 -56 47 -83 96 -83 22 0 46 5 52 11 8 8 16 7
30 -2 11 -7 28 -9 37 -6 15 6 16 25 14 169 -3 155 -4 163 -23 166 -12 2 -24 0
-28 -4z m-17 -163 c15 -30 12 -92 -7 -113 -39 -43 -98 -5 -97 63 1 21 7 46 14
54 18 22 77 19 90 -4z"/>
<path d="M5940 5611 c-104 -55 -104 -251 0 -303 71 -36 200 -14 200 33 0 19
-4 20 -32 14 -99 -20 -116 -18 -148 13 -27 27 -30 37 -30 90 0 45 5 66 20 85
27 34 80 44 130 24 27 -10 41 -12 49 -4 51 51 -108 92 -189 48z"/>
<path d="M6232 5611 c-38 -24 -55 -63 -47 -102 9 -40 37 -60 107 -76 70 -16
88 -27 88 -54 0 -38 -71 -48 -172 -23 -24 5 -28 3 -28 -15 0 -30 53 -51 125
-51 88 0 135 33 135 95 0 54 -24 71 -146 104 -49 13 -61 34 -39 67 18 27 68
32 124 13 46 -16 64 2 33 33 -32 32 -134 37 -180 9z"/>
<path d="M6534 5611 c-53 -32 -65 -109 -24 -146 11 -10 49 -24 86 -33 73 -18
97 -40 78 -69 -15 -24 -102 -29 -141 -10 -34 17 -53 12 -53 -14 0 -27 56 -49
125 -49 90 0 135 33 135 99 0 42 -28 67 -97 86 -77 21 -87 28 -91 58 -4 36 27
51 87 43 81 -12 85 -12 89 7 9 42 -136 63 -194 28z"/>
<path d="M2417 5523 c-4 -3 -7 -57 -7 -120 0 -113 0 -113 24 -113 30 0 36 16
36 95 0 68 8 81 57 94 18 5 28 14 28 27 0 27 -32 30 -65 5 -27 -20 -28 -20
-33 -1 -5 20 -27 27 -40 13z"/>
<path d="M2644 5520 c-76 -30 -88 -158 -20 -212 31 -25 116 -24 149 2 50 40
58 133 15 180 -35 37 -95 50 -144 30z m95 -53 c28 -35 21 -107 -13 -129 -19
-13 -49 -9 -68 9 -23 21 -25 95 -2 117 19 20 68 21 83 3z"/>
<path d="M2877 5523 c-4 -3 -7 -75 -7 -160 0 -128 3 -155 15 -159 26 -11 45
16 45 63 0 40 2 43 19 33 11 -5 38 -10 59 -10 33 0 45 6 66 31 25 29 31 55 27
109 -6 79 -90 126 -150 84 -22 -16 -24 -16 -33 0 -9 16 -29 21 -41 9z m152
-57 c19 -23 16 -94 -4 -116 -39 -43 -95 -12 -95 52 0 57 14 78 54 78 19 0 39
-6 45 -14z"/>
<path d="M3167 5523 c-4 -3 -7 -57 -7 -120 0 -113 0 -113 24 -113 30 0 36 16
36 95 0 68 8 81 57 94 18 5 28 14 28 27 0 27 -32 30 -65 5 -27 -20 -28 -20
-33 -1 -5 20 -27 27 -40 13z"/>
<path d="M3351 5516 c-8 -9 -11 -48 -9 -117 3 -103 3 -104 28 -104 l25 0 0
115 c0 97 -2 115 -16 118 -9 1 -21 -4 -28 -12z"/>
<path d="M3530 5523 c-31 -12 -70 -58 -76 -89 -8 -43 11 -99 43 -124 19 -14
41 -20 80 -20 64 0 93 13 93 42 0 16 -4 19 -22 14 -64 -19 -96 -18 -117 3 -34
34 -26 41 52 41 94 0 104 7 89 58 -7 21 -21 47 -31 56 -20 18 -85 30 -111 19z
m80 -53 c32 -32 24 -40 -40 -40 -33 0 -60 4 -60 10 0 17 39 50 60 50 11 0 29
-9 40 -20z"/>
<path d="M4048 5519 c-17 -7 -28 -18 -28 -30 0 -17 5 -19 55 -13 57 7 85 -4
85 -32 0 -10 -13 -14 -40 -14 -95 0 -144 -52 -103 -108 25 -34 94 -43 124 -16
17 16 19 16 19 1 0 -11 8 -17 25 -17 25 0 25 0 25 94 0 117 -12 137 -86 142
-27 2 -61 -1 -76 -7z m112 -137 c0 -4 -7 -18 -16 -30 -18 -26 -71 -31 -80 -7
-12 31 4 45 51 45 25 0 45 -3 45 -8z"/>
<path d="M4604 5511 c-64 -39 -72 -142 -14 -193 24 -23 40 -28 80 -28 59 0
102 17 98 39 -4 16 -12 16 -75 5 -36 -7 -83 16 -83 41 0 11 18 15 78 17 72 3
77 4 80 26 12 85 -86 140 -164 93z m100 -37 c31 -31 20 -44 -39 -44 -59 0 -68
10 -38 42 20 22 56 23 77 2z"/>
<path d="M4858 5514 c-32 -17 -45 -56 -30 -89 8 -18 25 -26 67 -36 61 -13 68
-19 59 -43 -7 -18 -73 -22 -103 -7 -10 6 -23 6 -32 0 -12 -8 -10 -13 10 -29
17 -14 38 -20 76 -20 65 0 105 27 105 70 0 34 -26 55 -82 65 -50 10 -69 32
-43 52 19 13 37 13 93 -3 17 -5 22 -2 22 13 0 39 -89 56 -142 27z"/>
<path d="M5540 5523 c-31 -12 -70 -58 -76 -89 -8 -43 11 -99 43 -124 19 -14
41 -20 80 -20 64 0 93 13 93 42 0 16 -4 19 -22 14 -64 -19 -96 -18 -117 3 -34
34 -26 41 52 41 94 0 104 7 89 58 -7 21 -21 47 -31 56 -20 18 -85 30 -111 19z
m80 -53 c32 -32 24 -40 -40 -40 -33 0 -60 4 -60 10 0 17 39 50 60 50 11 0 29
-9 40 -20z"/>
<path d="M2070 4900 c0 -7 1607 -10 4800 -10 3193 0 4800 3 4800 10 0 7 -1607
10 -4800 10 -3193 0 -4800 -3 -4800 -10z"/>
<path d="M6860 4271 c0 -11 4 -21 9 -21 18 0 21 18 6 30 -13 10 -15 9 -15 -9z"/>
<path d="M6994 4085 c0 -115 2 -161 3 -102 2 59 2 154 0 210 -1 56 -3 8 -3
-108z"/>
<path d="M7134 4265 c-3 -13 -1 -39 5 -56 6 -17 8 -36 4 -43 -8 -11 -5 -677 2
-685 2 -2 11 4 20 12 13 14 15 67 15 406 0 383 0 391 -20 391 -13 0 -22 -9
-26 -25z"/>
<path d="M7330 4286 c0 -2 7 -9 15 -16 12 -10 15 -10 15 4 0 9 -7 16 -15 16
-8 0 -15 -2 -15 -4z"/>
<path d="M7390 4282 c0 -22 39 -42 83 -42 35 0 47 -4 47 -15 0 -8 -8 -15 -17
-15 -14 0 -15 -2 -4 -12 11 -10 14 -10 18 0 7 18 83 16 83 -3 0 -23 80 -21 81
3 0 9 6 -1 12 -22 15 -49 29 -55 48 -19 12 25 14 -12 17 -322 1 -192 5 -357 8
-365 15 -42 19 43 16 414 l-2 406 -195 0 c-107 0 -195 -4 -195 -8z"/>
<path d="M9240 3656 l0 -635 28 -4 27 -4 -27 -2 -28 -1 0 -455 c0 -297 3 -455
10 -455 6 0 11 5 11 10 1 6 2 14 3 19 0 5 5 13 10 18 5 5 6 2 1 -6 -5 -9 -4
-12 3 -7 7 4 12 13 12 20 0 6 17 30 39 52 21 23 42 50 45 61 4 12 15 23 26 26
11 3 24 17 30 31 5 14 13 26 18 26 5 0 28 17 52 38 26 22 41 30 37 20 -10 -28
16 -21 37 10 10 15 34 39 53 54 30 23 38 25 59 16 29 -13 39 -45 31 -95 -8
-44 -35 -83 -138 -198 -80 -90 -133 -169 -210 -320 -23 -44 -58 -109 -79 -145
-21 -36 -36 -67 -35 -68 2 -2 23 10 48 26 57 40 134 125 189 209 24 38 67 104
96 148 28 44 86 114 128 155 41 41 80 83 85 93 5 9 17 17 25 17 8 0 12 5 9 10
-3 6 1 10 10 10 9 0 13 5 9 11 -7 11 103 126 118 121 4 -1 8 5 8 14 0 8 5 12
10 9 6 -4 9 -3 8 2 -4 12 44 68 70 82 27 15 28 7 2 -21 -17 -19 -27 -48 -17
-48 2 0 19 21 37 48 19 26 38 50 43 53 5 3 -12 18 -37 33 -113 66 -206 206
-227 344 -15 92 0 191 41 280 36 78 142 187 217 226 201 101 443 56 595 -112
40 -45 45 -47 67 -36 17 9 31 10 43 3 20 -11 25 -43 6 -36 -7 2 -12 10 -10 16
2 13 -27 15 -46 3 -9 -7 -6 -23 16 -73 32 -70 56 -195 46 -234 -4 -17 -2 -25
7 -25 9 0 10 -3 3 -8 -6 -4 -18 -32 -28 -62 -34 -107 -53 -137 -137 -222 l-47
-46 26 -25 c15 -14 74 -60 132 -103 58 -42 127 -95 153 -117 46 -38 51 -40 81
-29 42 16 46 15 46 -5 -1 -11 -19 -27 -50 -42 -57 -28 -55 -29 -155 59 -111
97 -170 148 -225 192 l-54 45 -56 -26 -55 -26 0 -65 c-1 -73 -8 -91 -102 -253
-34 -59 -60 -107 -58 -107 2 0 23 19 47 43 47 47 72 86 82 130 4 16 17 33 31
39 14 6 25 15 25 20 0 22 57 -24 66 -54 12 -38 -6 -151 -32 -201 -9 -15 -33
-81 -55 -145 -52 -150 -57 -162 -134 -315 l-64 -127 437 2 437 3 -2 30 c-1 16
-7 31 -13 33 -5 2 -10 9 -10 16 0 7 -18 31 -41 55 -22 23 -39 48 -36 55 6 16
-8 41 -24 41 -7 0 -14 7 -16 15 -4 12 -3 12 5 1 8 -11 10 -11 15 0 4 12 7 11
16 -1 7 -10 11 -11 11 -3 0 15 -61 79 -72 75 -18 -5 -6 17 31 57 22 24 44 40
50 37 6 -4 8 7 5 29 -2 20 0 35 6 35 5 0 10 7 10 15 0 8 22 37 49 64 27 27 52
59 56 70 8 25 18 27 36 5 18 -22 186 -164 193 -164 3 0 6 54 6 120 0 136 -1
137 -85 141 -35 2 -51 -2 -59 -14 -18 -24 -63 -29 -72 -9 -4 9 -7 20 -6 23 0
3 -22 6 -50 6 -28 0 -45 -3 -39 -7 7 -4 -8 -10 -35 -14 -27 -3 -52 -2 -57 3
-20 20 55 103 96 106 10 1 30 16 44 34 21 27 31 32 53 27 20 -3 37 2 61 20 18
13 41 24 51 24 10 0 18 5 18 10 0 13 -1 13 -41 -4 -39 -16 -152 -30 -130 -17
11 7 9 10 -10 13 -13 2 23 13 81 24 101 19 105 20 112 2 10 -24 31 -23 23 1
-5 15 -1 18 20 13 l26 -5 -2 187 c-2 177 -3 186 -21 186 -11 0 -22 9 -25 20
-3 11 -9 20 -14 20 -5 0 -9 4 -9 9 0 5 10 7 22 3 16 -4 19 -2 13 8 -6 10 -4
12 8 7 22 -8 28 16 26 102 -2 65 -4 71 -20 66 -13 -4 -19 -1 -19 8 0 10 7 13
20 10 19 -5 20 0 20 69 0 69 -2 76 -24 86 -13 6 -34 8 -46 5 -19 -5 -21 -3
-16 14 6 19 2 20 -94 20 -62 0 -106 5 -113 12 -6 6 -24 11 -39 11 -33 0 -37
17 -5 23 l22 4 -22 2 c-13 0 -23 6 -23 11 0 13 50 1 68 -17 20 -20 34 -16 27
8 -6 18 -4 20 13 15 18 -6 38 15 34 37 -1 4 10 7 24 7 19 0 25 4 20 15 -3 9 0
15 10 15 10 0 14 6 10 15 -3 9 0 15 8 15 7 0 16 -13 20 -30 4 -20 11 -30 24
-30 10 0 22 -4 28 -9 5 -5 24 -12 42 -16 l33 -7 -2 181 -2 181 -28 0 c-15 0
-36 3 -46 6 -12 5 -15 4 -8 -4 6 -5 19 -13 30 -16 11 -3 1 -3 -22 -1 -47 6
-50 4 -27 -19 14 -15 14 -16 -2 -16 -16 0 -16 -1 2 -15 19 -14 18 -14 -3 -15
-12 0 -27 8 -32 18 -6 9 -11 11 -11 5 0 -7 -7 -13 -16 -13 -8 0 -12 5 -9 10 3
6 -3 10 -14 10 -12 0 -21 -4 -21 -10 0 -5 -7 -10 -15 -10 -12 0 -13 4 -6 19 8
14 7 22 -4 31 -13 11 -14 10 -9 -5 6 -15 4 -17 -17 -12 -13 4 -27 7 -31 7 -4
0 -5 7 -2 15 9 21 -19 19 -39 -3 -10 -10 -15 -21 -12 -24 3 -3 -6 -5 -21 -5
-25 0 -26 1 -10 13 16 11 15 13 -10 16 -65 7 -20 53 49 49 20 -1 37 2 37 6 0
4 -10 9 -23 10 -26 1 -82 22 -76 28 6 5 137 18 168 16 14 -1 29 -7 34 -14 6
-8 7 -7 3 6 -7 21 18 22 54 2 14 -8 32 -14 40 -14 8 0 4 5 -10 12 -24 10 -23
11 20 17 49 8 50 9 5 15 -16 2 -31 9 -33 15 -2 5 -21 10 -41 10 -21 0 -41 3
-45 7 -4 4 -13 8 -19 9 -55 5 -54 5 -31 14 11 4 38 7 60 6 21 -1 49 1 61 5 12
5 42 9 67 10 25 2 43 5 40 8 -2 3 -25 4 -49 2 -25 -1 -50 1 -57 6 -7 4 -46 8
-85 8 -43 0 -72 4 -70 10 1 5 11 9 22 8 l20 -3 -20 9 c-11 4 -33 4 -50 0 -16
-5 -46 -8 -65 -8 -21 1 -27 3 -15 6 11 3 25 13 31 22 7 9 16 13 20 8 4 -4 2
-7 -4 -7 -7 0 -12 -5 -12 -10 0 -6 15 -4 36 5 20 8 45 15 55 15 11 0 19 5 19
11 0 7 -18 8 -51 5 -51 -6 -85 6 -73 25 10 16 24 9 18 -8 -3 -10 3 -6 12 10
21 30 34 35 34 12 0 -11 11 -15 36 -15 31 0 35 2 24 15 -11 13 -8 15 14 15 15
0 25 4 22 9 -4 5 0 12 6 14 7 3 3 6 -10 6 -22 1 -22 2 8 31 17 17 41 30 53 31
21 0 21 1 2 8 -20 8 -20 8 1 15 19 6 40 44 29 54 -3 4 -825 8 -970 6 -38 -1
-303 0 -587 3 l-518 4 0 -635z m1975 603 c-16 -5 -38 -7 -48 -5 -9 2 -15 0
-11 -5 3 -5 -21 -9 -55 -9 -33 0 -62 4 -66 9 -6 11 45 17 145 18 54 1 60 0 35
-8z m-405 -65 c0 -2 -11 -4 -25 -4 -14 0 -25 4 -25 9 0 4 11 6 25 3 14 -2 25
-6 25 -8z m-487 -6 l29 -11 -24 -13 c-12 -7 -31 -13 -40 -14 -10 0 -18 -4 -18
-10 0 -5 -9 -10 -20 -10 -15 0 -20 7 -20 28 0 16 2 31 4 33 10 9 63 7 89 -3z
m367 -6 c0 -15 -7 -19 -30 -18 -40 1 -43 19 -5 27 17 4 31 7 33 8 1 0 2 -7 2
-17z m-966 -1 c4 -5 -3 -7 -14 -4 -23 6 -26 13 -6 13 8 0 17 -4 20 -9z m101
-1 c-3 -5 -11 -10 -16 -10 -6 0 -7 5 -4 10 3 6 11 10 16 10 6 0 7 -4 4 -10z
m747 -12 c3 -7 16 -13 29 -14 13 -1 31 -4 39 -7 8 -3 24 -8 35 -10 11 -3 -2
-6 -30 -7 -113 -7 -146 0 -115 21 11 8 8 8 -10 3 -22 -6 -23 -5 -11 10 16 19
58 21 63 4z m155 -4 c3 -8 1 -20 -6 -27 -8 -8 -11 -8 -11 0 0 6 -3 18 -6 27
-3 9 -1 16 5 16 7 0 14 -7 18 -16z m-237 -10 c0 -2 -12 -4 -27 -4 -21 0 -24 3
-14 9 13 8 41 5 41 -5z m417 -20 c-3 -3 -12 -4 -19 -1 -8 3 -5 6 6 6 11 1 17
-2 13 -5z m232 -3 c10 -6 -1 -8 -30 -4 -24 3 -46 7 -48 9 -10 9 65 3 78 -5z
m-722 -23 c-3 -8 -6 -5 -6 6 -1 11 2 17 5 13 3 -3 4 -12 1 -19z m-157 8 c0 -3
-4 -8 -10 -11 -5 -3 -10 -1 -10 4 0 6 5 11 10 11 6 0 10 -2 10 -4z m630 -6 c0
-5 -4 -10 -9 -10 -6 0 -13 5 -16 10 -3 6 1 10 9 10 9 0 16 -4 16 -10z m80 0
c0 -6 -11 -8 -25 -4 -17 4 -25 2 -25 -7 0 -7 -3 -10 -6 -6 -3 3 -3 10 1 16 8
14 55 14 55 1z m-532 -27 c-10 -2 -18 -9 -18 -14 0 -6 5 -7 10 -4 17 11 40 -3
34 -20 -7 -17 -74 -22 -74 -5 0 5 7 7 15 4 11 -5 13 -2 9 10 -3 9 -10 13 -15
10 -10 -6 -12 9 -2 19 3 4 18 6 32 6 17 -1 20 -3 9 -6z m252 -29 c0 -2 -11
-14 -24 -28 -25 -28 -59 -38 -37 -12 9 11 8 17 -8 28 -19 14 -17 15 24 14 25
0 45 -1 45 -2z m230 -14 c0 -5 -5 -10 -11 -10 -5 0 -7 5 -4 10 3 6 8 10 11 10
2 0 4 -4 4 -10z m101 -18 c-7 -2 -18 1 -23 6 -8 8 -4 9 13 5 13 -4 18 -8 10
-11z m-1156 -12 c8 -13 -45 -13 -65 0 -11 7 -6 10 22 10 20 0 40 -4 43 -10z
m1062 4 c-3 -3 -12 -4 -19 -1 -8 3 -5 6 6 6 11 1 17 -2 13 -5z m-377 -19 c0
-2 -9 -9 -20 -15 -16 -9 -20 -8 -20 5 0 8 9 15 20 15 11 0 20 -2 20 -5z m378
-1 c12 -4 22 -10 22 -15 0 -5 -6 -6 -14 -3 -8 3 -20 -3 -27 -13 -8 -10 -23
-25 -33 -33 -18 -14 -19 -14 -7 8 13 24 5 30 -13 8 -14 -17 -82 -34 -72 -17 5
7 -3 11 -23 11 -56 0 -41 17 21 24 45 6 58 10 47 17 -10 7 -2 9 28 7 23 -2 39
0 37 4 -6 9 3 10 34 2z m-1098 -19 c0 -11 8 -13 31 -8 25 5 31 3 27 -8 -3 -8
-11 -13 -18 -11 -7 1 -18 -3 -26 -9 -11 -9 -14 -8 -14 4 0 9 -7 23 -16 31 -14
15 -14 16 0 16 9 0 16 -7 16 -15z m1173 8 c-7 -2 -19 -2 -25 0 -7 3 -2 5 12 5
14 0 19 -2 13 -5z m112 -7 c-10 -7 -26 -12 -34 -11 -9 2 -25 4 -36 6 -11 1 0
5 25 9 25 4 49 8 54 8 6 1 1 -4 -9 -12z m-429 -11 c11 -8 14 -15 7 -15 -22 0
-14 -18 10 -23 12 -2 -2 -5 -30 -6 -29 0 -53 3 -53 8 0 5 -3 17 -7 26 -5 14
-2 16 15 10 13 -4 22 -2 22 4 0 15 13 14 36 -4z m-126 -10 c0 -8 5 -15 10 -15
6 0 10 -4 10 -10 0 -5 -10 -8 -22 -6 -27 4 -39 46 -14 46 9 0 16 -7 16 -15z
m-50 -10 c-7 -9 -15 -13 -17 -11 -7 7 7 26 19 26 6 0 6 -6 -2 -15z m-61 -19
c-11 -9 -100 -15 -94 -6 3 6 27 10 52 10 26 0 44 -2 42 -4z m308 -2 c-3 -3
-12 -4 -19 -1 -8 3 -5 6 6 6 11 1 17 -2 13 -5z m327 0 c9 -3 13 -10 10 -15 -3
-5 -9 -7 -14 -4 -5 3 -37 8 -72 11 -34 3 -65 7 -67 10 -7 6 125 5 143 -2z m84
-21 c-10 -2 -26 -2 -35 0 -10 3 -2 5 17 5 19 0 27 -2 18 -5z m-708 -33 c0 -13
-11 -13 -30 0 -12 8 -11 10 8 10 12 0 22 -4 22 -10z m65 0 c4 -6 -5 -10 -20
-10 -15 0 -24 4 -20 10 3 6 12 10 20 10 8 0 17 -4 20 -10z m211 -10 c8 0 14
-5 14 -11 0 -6 -7 -8 -16 -5 -9 3 -20 6 -25 6 -4 0 -5 8 -2 17 4 11 8 12 11 5
2 -7 10 -12 18 -12z m-287 -6 c37 -8 40 -20 6 -26 -13 -3 -22 -1 -19 4 3 4 -5
12 -18 17 -27 11 -13 13 31 5z m-473 -21 c7 -10 13 -25 14 -33 0 -8 -6 -4 -13
10 -8 14 -19 24 -26 22 -7 -1 -10 2 -6 8 9 14 16 13 31 -7z m739 -10 c-16 -3
-33 -10 -37 -16 -5 -8 -8 -6 -8 6 0 13 8 17 38 16 34 -2 34 -2 7 -6z m92 -39
c-3 -3 -12 -4 -19 -1 -8 3 -5 6 6 6 11 1 17 -2 13 -5z m-345 -92 c-12 -2 -20
-8 -17 -13 4 -5 -4 -9 -17 -9 -18 0 -20 2 -8 10 13 9 13 10 0 11 -8 1 -1 5 15
8 17 4 35 5 40 2 6 -3 0 -7 -13 -9z m725 12 c-3 -3 -12 -4 -19 -1 -8 3 -5 6 6
6 11 1 17 -2 13 -5z m-642 -24 c3 -5 -1 -10 -10 -10 -9 0 -13 5 -10 10 3 6 8
10 10 10 2 0 7 -4 10 -10z m-38 -6 c-3 -3 -12 -4 -19 -1 -8 3 -5 6 6 6 11 1
17 -2 13 -5z m-60 -30 c-3 -3 -12 -4 -19 -1 -8 3 -5 6 6 6 11 1 17 -2 13 -5z
m913 -96 c0 -5 -9 -8 -20 -8 -19 0 -28 28 -13 43 6 7 32 -21 33 -35z m-1285
22 c-3 -5 -12 -10 -18 -10 -7 0 -6 4 3 10 19 12 23 12 15 0z m1335 -5 c0 -17
-2 -18 -25 -9 -13 5 -14 8 -3 15 19 13 28 11 28 -6z m-1880 -25 c0 -5 -2 -10
-4 -10 -3 0 -8 5 -11 10 -3 6 -1 10 4 10 6 0 11 -4 11 -10z m47 -6 c-3 -3 -12
-4 -19 -1 -8 3 -5 6 6 6 11 1 17 -2 13 -5z m528 -14 c3 -5 -1 -10 -9 -10 -9 0
-16 5 -16 10 0 6 4 10 9 10 6 0 13 -4 16 -10z m1105 -50 c0 -5 -4 -10 -10 -10
-5 0 -10 5 -10 10 0 6 5 10 10 10 6 0 10 -4 10 -10z m-1213 -22 c-3 -8 -6 -5
-6 6 -1 11 2 17 5 13 3 -3 4 -12 1 -19z m-336 -45 c13 -17 13 -17 -6 -3 -11 8
-22 16 -24 17 -2 2 0 3 6 3 6 0 17 -8 24 -17z m1325 -5 c-9 -5 -22 -7 -29 -4
-7 2 -4 5 6 5 10 1 15 5 12 11 -4 6 1 7 11 3 15 -6 15 -7 0 -15z m-1438 5
c-10 -2 -26 -2 -35 0 -10 3 -2 5 17 5 19 0 27 -2 18 -5z m169 1 c-3 -3 -12 -4
-19 -1 -8 3 -5 6 6 6 11 1 17 -2 13 -5z m26 -21 c-13 -2 -33 -2 -45 0 -13 2
-3 4 22 4 25 0 35 -2 23 -4z m1272 -3 c3 -5 1 -10 -4 -10 -6 0 -11 5 -11 10 0
6 2 10 4 10 3 0 8 -4 11 -10z m-51 -30 c14 -5 26 -15 26 -21 0 -8 -4 -8 -13
-1 -7 6 -24 9 -38 6 -13 -2 -18 -2 -11 2 6 3 10 10 6 15 -7 11 -1 11 30 -1z
m376 -50 c0 -5 -5 -10 -11 -10 -5 0 -7 5 -4 10 3 6 8 10 11 10 2 0 4 -4 4 -10z
m-1830 -35 c0 -8 -6 -16 -12 -16 -7 -1 1 -4 17 -8 21 -4 30 -12 30 -26 1 -11
6 -19 13 -17 7 1 12 -5 12 -13 0 -21 -9 -19 -33 8 -13 15 -21 18 -24 10 -3
-10 -9 -9 -20 3 -11 11 -19 12 -26 5 -6 -6 -17 -11 -25 -11 -12 0 -12 3 -2 15
7 8 10 21 7 29 -6 15 19 30 34 20 5 -3 9 0 9 5 0 6 5 11 10 11 6 0 10 -7 10
-15z m310 -16 c0 -5 -9 -9 -21 -9 -12 0 -17 -4 -14 -11 4 -6 -2 -13 -14 -16
-34 -9 -13 -23 35 -23 24 0 44 -4 44 -9 0 -15 -23 -19 -42 -7 -13 8 -23 5 -42
-13 -28 -27 -85 -33 -110 -12 -12 10 -20 10 -29 3 -28 -23 -51 31 -37 86 1 4
2 10 1 14 -1 10 151 4 168 -6 10 -6 16 -6 19 2 2 6 10 8 19 5 12 -5 14 -3 8 7
-5 9 -4 11 3 6 7 -4 12 -11 12 -17z m-405 -59 c3 -5 1 -10 -4 -10 -6 0 -11 5
-11 10 0 6 2 10 4 10 3 0 8 -4 11 -10z m73 -15 c-3 -3 -9 2 -12 12 -6 14 -5
15 5 6 7 -7 10 -15 7 -18z m-33 7 c13 -9 18 -32 7 -32 -10 0 -32 22 -32 32 0
10 12 10 25 0z m69 -33 c-3 -5 -10 -7 -15 -3 -5 3 -7 10 -3 15 3 5 10 7 15 3
5 -3 7 -10 3 -15z m326 -19 c0 -5 -5 -10 -11 -10 -5 0 -7 5 -4 10 3 6 8 10 11
10 2 0 4 -4 4 -10z m1340 -10 c0 -5 14 -10 31 -10 17 0 28 4 24 10 -3 6 0 10
9 10 8 0 16 -5 18 -12 3 -7 17 -12 33 -13 21 0 29 -5 32 -23 3 -22 2 -22 -13
-7 -11 11 -25 14 -41 10 -14 -3 -22 -2 -19 3 3 5 -13 9 -35 10 -22 1 -47 9
-55 17 -14 13 -14 15 0 15 9 0 16 -4 16 -10z m191 -7 c0 -5 2 -16 4 -26 2 -10
-2 -17 -8 -14 -15 5 -22 47 -8 47 6 0 11 -3 12 -7z m-1841 -53 c0 -5 -7 -10
-15 -10 -8 0 -15 5 -15 10 0 6 7 10 15 10 8 0 15 -4 15 -10z m85 0 c3 -5 -1
-10 -10 -10 -9 0 -13 5 -10 10 3 6 8 10 10 10 2 0 7 -4 10 -10z m1255 -22 c0
-19 -2 -20 -10 -8 -13 19 -13 30 0 30 6 0 10 -10 10 -22z m-1252 -11 c44 -7
53 -17 16 -18 -16 -1 -32 -1 -36 0 -4 0 -66 1 -138 2 -71 1 -130 5 -130 10 0
10 83 15 178 11 46 -3 62 0 62 10 0 9 2 10 8 1 4 -6 22 -13 40 -16z m212 -13
c0 -5 -15 -9 -32 -8 -18 1 -39 -2 -45 -8 -10 -8 -13 -5 -13 9 0 16 7 19 45 19
25 -1 45 -6 45 -12z m1404 -35 c4 6 4 15 1 21 -3 6 1 7 9 4 9 -3 16 -11 16
-17 0 -6 3 -7 6 -4 4 4 1 13 -6 22 -7 8 -8 15 -2 15 14 0 35 -28 28 -39 -3 -5
-19 -14 -36 -19 -33 -12 -43 -4 -47 38 -2 24 -2 24 11 -4 8 -18 16 -24 20 -17z
m181 11 c3 -5 2 -10 -4 -10 -5 0 -13 5 -16 10 -3 6 -2 10 4 10 5 0 13 -4 16
-10z m-217 -30 c11 -19 10 -20 -23 -20 -24 0 -35 5 -35 14 0 12 9 18 40 25 3
0 11 -8 18 -19z m161 11 c8 -5 9 -11 3 -15 -5 -3 -15 1 -22 9 -14 16 -3 20 19
6z m-38 -21 c8 11 9 9 3 -10 -4 -14 -7 -36 -6 -49 2 -25 -23 -61 -41 -61 -6 0
-2 7 9 15 13 10 14 14 4 13 -9 -2 -15 6 -17 22 -2 23 -2 23 7 5 8 -17 10 -16
9 10 -2 60 0 71 11 55 9 -13 11 -13 21 0z m-256 -10 c3 -5 -1 -10 -9 -10 -9 0
-16 5 -16 10 0 6 4 10 9 10 6 0 13 -4 16 -10z m58 -7 c-7 -2 -21 -2 -30 0 -10
3 -4 5 12 5 17 0 24 -2 18 -5z m-246 -9 c-3 -3 -12 -4 -19 -1 -8 3 -5 6 6 6
11 1 17 -2 13 -5z m325 -21 c-3 -14 0 -23 9 -23 7 0 9 3 6 7 -8 7 11 33 24 33
5 0 9 -5 9 -11 0 -5 -4 -8 -10 -4 -5 3 -7 -9 -5 -30 5 -37 -7 -47 -24 -17 -8
14 -13 15 -30 5 -21 -13 -38 -2 -26 17 3 5 1 19 -5 30 -10 19 -9 21 23 18 29
-2 33 -5 29 -25z m-67 7 c3 -5 -1 -10 -9 -10 -9 0 -16 5 -16 10 0 6 4 10 9 10
6 0 13 -4 16 -10z m265 -66 c0 -6 -7 -11 -15 -11 -8 0 -15 8 -15 18 0 10 -4
21 -10 24 -5 3 -10 14 -10 23 0 12 7 9 25 -13 13 -16 24 -35 25 -41z m-200 6
c0 -5 -2 -10 -4 -10 -3 0 -8 5 -11 10 -3 6 -1 10 4 10 6 0 11 -4 11 -10z
m-125 -10 c-3 -5 -13 -10 -21 -10 -8 0 -12 5 -9 10 3 6 13 10 21 10 8 0 12 -4
9 -10z m325 -46 c10 -10 10 -14 2 -14 -7 0 -12 4 -12 9 0 5 -11 8 -25 6 -16
-1 -25 3 -25 12 0 17 37 9 60 -13z m-593 -11 c-3 -3 -11 -2 -17 2 -9 6 -9 10
1 16 14 8 27 -7 16 -18z m77 15 c19 -18 8 -48 -18 -48 -17 0 -22 7 -24 30 -2
32 17 41 42 18z m116 1 c0 -5 -4 -7 -10 -4 -5 3 -10 -1 -10 -9 0 -9 -4 -16 -9
-16 -6 0 -9 9 -8 20 1 20 37 30 37 9z m87 4 c-4 -3 -2 -12 4 -19 8 -9 5 -18
-10 -33 -25 -25 -31 -26 -31 -6 0 8 -3 15 -6 15 -10 0 -34 -28 -34 -39 0 -6
-4 -11 -10 -11 -13 0 -13 21 0 54 6 16 17 26 30 26 11 0 20 5 20 10 0 6 10 10
22 10 12 0 18 -3 15 -7z m123 -12 c0 -22 -29 -36 -44 -21 -7 7 -5 10 7 10 20
0 23 16 5 23 -7 3 -3 6 10 6 15 1 22 -5 22 -18z m-20 -56 c0 -8 -4 -15 -10
-15 -5 0 -10 7 -10 15 0 8 5 15 10 15 6 0 10 -7 10 -15z m-80 -5 c0 -5 -2 -10
-4 -10 -3 0 -8 5 -11 10 -3 6 -1 10 4 10 6 0 11 -4 11 -10z m-30 -20 c0 -5 -2
-10 -4 -10 -3 0 -8 5 -11 10 -3 6 -1 10 4 10 6 0 11 -4 11 -10z m119 -18 c0
-4 -4 -16 -9 -27 -7 -15 -9 -16 -9 -4 -1 9 -8 22 -16 29 -20 17 -8 32 16 20
10 -6 19 -14 18 -18z m5 -78 c4 -15 2 -32 -3 -37 -8 -8 -11 -3 -11 16 0 15 -5
27 -11 27 -5 0 -7 5 -4 10 11 17 23 11 29 -16z m-301 -319 c-10 -13 -25 -24
-33 -24 -10 0 -5 8 13 24 36 32 43 32 20 0z m-46 -51 c-3 -3 -12 -4 -19 -1 -8
3 -5 6 6 6 11 1 17 -2 13 -5z m301 -61 c2 -11 -4 -27 -12 -36 -9 -9 -16 -20
-16 -25 0 -16 -23 -29 -62 -35 -36 -5 -36 -5 -28 24 5 18 5 27 -1 24 -14 -9
-11 19 6 41 8 10 15 16 15 13 0 -4 17 -1 38 7 45 16 56 14 60 -13z"/>
<path d="M9671 3234 c0 -11 3 -14 6 -6 3 7 2 16 -1 19 -3 4 -6 -2 -5 -13z"/>
<path d="M9710 3240 c-17 -11 -19 -68 -2 -75 8 -3 10 0 6 6 -4 6 -1 15 6 19
16 10 23 47 12 54 -4 3 -14 1 -22 -4z"/>
<path d="M9615 3220 c-10 -16 4 -47 21 -47 9 0 13 6 9 14 -3 8 -5 21 -5 29 0
16 -16 19 -25 4z"/>
<path d="M11335 4270 c-3 -5 1 -10 9 -10 9 0 16 5 16 10 0 6 -4 10 -9 10 -6 0
-13 -4 -16 -10z"/>
<path d="M11382 4259 c2 -6 7 -10 11 -10 4 1 16 1 27 1 11 0 20 5 20 10 0 6
-14 10 -31 10 -17 0 -29 -5 -27 -11z"/>
<path d="M11402 4208 c7 -19 38 -22 38 -4 0 10 -9 16 -21 16 -12 0 -19 -5 -17
-12z"/>
<path d="M6734 4166 c-4 -9 -4 -29 -1 -45 3 -15 1 -33 -4 -38 -19 -19 8 -25
53 -12 l43 13 -38 10 c-34 9 -38 12 -32 35 11 42 11 43 -2 48 -7 3 -16 -3 -19
-11z"/>
<path d="M6800 4160 c0 -19 3 -21 12 -12 9 9 9 15 0 24 -9 9 -12 7 -12 -12z"/>
<path d="M11365 4151 c-6 -6 -32 -12 -60 -14 -38 -2 -31 -4 28 -5 72 -2 98 8
61 22 -20 8 -18 8 -29 -3z"/>
<path d="M2144 4121 c-53 -32 -65 -109 -24 -146 11 -10 49 -24 86 -33 73 -18
97 -40 78 -69 -15 -24 -102 -29 -141 -10 -34 17 -53 12 -53 -14 0 -27 56 -49
125 -49 90 0 135 33 135 99 0 42 -28 67 -97 86 -77 21 -87 28 -91 58 -4 36 27
51 87 43 81 -12 85 -12 89 7 9 42 -136 63 -194 28z"/>
<path d="M2687 4133 c-4 -3 -7 -80 -7 -170 l0 -163 24 0 c13 0 26 5 28 11 3 9
9 9 25 0 12 -6 40 -11 61 -11 33 0 45 6 66 31 25 29 31 55 27 109 -5 78 -90
126 -149 84 -22 -15 -22 -15 -22 35 0 27 -3 56 -6 65 -6 16 -35 22 -47 9z
m152 -157 c19 -23 16 -94 -4 -116 -39 -43 -95 -12 -95 52 0 57 14 78 54 78 19
0 39 -6 45 -14z"/>
<path d="M11370 4110 c0 -11 14 -11 50 0 22 7 21 8 -12 9 -21 1 -38 -3 -38 -9z"/>
<path d="M11215 4080 c3 -5 8 -10 11 -10 2 0 4 5 4 10 0 6 -5 10 -11 10 -5 0
-7 -4 -4 -10z"/>
<path d="M6854 4045 c4 -12 -3 -15 -29 -15 -19 0 -35 -4 -35 -10 0 -5 13 -10
29 -10 l29 0 7 -92 c4 -51 5 -252 3 -446 l-3 -353 24 3 c16 2 25 10 28 26 1
13 0 21 -4 19 -14 -9 -17 803 -3 858 6 24 -2 35 -26 35 -19 0 -25 -4 -20 -15z"/>
<path d="M11210 4050 c0 -5 10 -10 23 -10 18 0 19 2 7 10 -19 13 -30 13 -30 0z"/>
<path d="M11287 4053 c-16 -4 -15 -7 7 -24 13 -10 28 -19 33 -19 4 0 0 7 -11
15 -10 7 -15 18 -11 24 3 6 5 10 3 10 -2 -1 -11 -3 -21 -6z"/>
<path d="M2454 4030 c-76 -30 -88 -158 -20 -212 31 -25 116 -24 149 2 50 40
58 133 15 180 -35 37 -95 50 -144 30z m95 -53 c28 -35 21 -107 -13 -129 -19
-13 -49 -9 -68 9 -23 21 -25 95 -2 117 19 20 68 21 83 3z"/>
<path d="M2977 4033 c-4 -3 -7 -57 -7 -120 0 -113 0 -113 24 -113 30 0 36 16
36 95 0 68 8 81 57 94 18 5 28 14 28 27 0 27 -32 30 -65 5 -27 -20 -28 -20
-33 -1 -5 20 -27 27 -40 13z"/>
<path d="M3192 4020 c-37 -23 -52 -54 -52 -112 0 -32 7 -47 34 -74 30 -30 40
-34 89 -34 39 0 61 5 78 19 35 29 15 43 -39 28 -36 -9 -48 -9 -70 4 -15 8 -28
22 -30 31 -3 15 8 18 75 20 73 3 78 4 81 26 12 86 -86 140 -166 92z m102 -36
c31 -31 20 -44 -39 -44 -59 0 -68 10 -38 42 20 22 56 23 77 2z"/>
<path d="M11402 4027 c10 -8 15 -17 11 -20 -3 -4 2 -7 11 -7 25 0 15 21 -15
32 -21 7 -22 7 -7 -5z"/>
<path d="M8421 3984 c0 -11 3 -14 6 -6 3 7 2 16 -1 19 -3 4 -6 -2 -5 -13z"/>
<path d="M7051 3958 c1 -7 4 -24 9 -38 l7 -25 12 28 c6 16 9 33 5 38 -8 14
-34 11 -33 -3z"/>
<path d="M8413 3860 c0 -30 2 -43 4 -27 2 15 2 39 0 55 -2 15 -4 2 -4 -28z"/>
<path d="M11408 3873 c7 -3 16 -2 19 1 4 3 -2 6 -13 5 -11 0 -14 -3 -6 -6z"/>
<path d="M8403 3705 c0 -27 2 -38 4 -22 2 15 2 37 0 50 -2 12 -4 0 -4 -28z"/>
<path d="M8385 3535 c-4 -64 -5 -118 -2 -121 2 -3 8 47 12 111 4 64 5 118 2
121 -2 3 -8 -47 -12 -111z"/>
<path d="M7395 3592 c-11 -2 -24 -8 -29 -13 -6 -5 -17 -9 -25 -9 -28 0 -124
-50 -169 -87 -85 -70 -104 -180 -51 -290 19 -39 23 -63 22 -125 -1 -43 3 -78
8 -78 5 0 9 10 9 21 0 18 2 19 15 9 17 -14 19 -47 5 -86 -12 -31 6 -66 21 -42
7 10 9 10 9 -1 0 -11 3 -11 15 -1 8 7 15 9 15 6 0 -4 9 -2 20 4 11 6 20 7 20
2 0 -10 -135 -82 -156 -82 -8 0 -12 -4 -9 -10 3 -5 25 -9 48 -8 32 1 49 9 76
35 48 47 53 31 5 -19 -26 -27 -32 -39 -19 -34 11 4 16 4 12 0 -4 -4 -3 -12 3
-18 14 -18 0 -32 -62 -60 -31 -14 -58 -30 -60 -35 -1 -6 -30 -38 -64 -73 -54
-57 -63 -72 -87 -153 -27 -90 -32 -130 -21 -172 9 -31 24 -19 25 20 0 27 2 29
9 12 4 -11 6 -31 3 -45 -4 -20 -2 -22 6 -10 7 10 11 11 11 2 0 -16 -21 -54
-38 -67 -7 -6 -12 -15 -11 -20 1 -6 -1 -22 -5 -37 -5 -18 -3 -38 8 -59 9 -18
16 -40 16 -49 0 -9 14 -36 30 -58 17 -23 30 -49 30 -57 0 -8 13 -27 30 -41 18
-16 32 -41 36 -63 4 -20 14 -45 23 -55 9 -11 10 -16 4 -12 -15 8 -18 -10 -4
-18 5 -3 7 -16 3 -28 -3 -11 -1 -19 4 -16 5 4 9 -23 9 -60 1 -37 2 -132 4
-212 3 -188 -5 -615 -15 -755 -5 -60 -8 -207 -9 -325 0 -160 -2 -204 -9 -170
-5 25 -18 51 -28 58 -12 9 -16 19 -10 30 4 9 5 42 2 72 l-5 55 -15 -74 c-21
-104 -40 -105 -42 -2 -1 45 -2 91 -2 104 -1 16 4 21 17 19 19 -3 19 -6 17 127
-1 61 -8 116 -20 155 -38 122 -53 235 -65 495 -3 63 -8 118 -11 123 -3 4 -54
8 -115 8 -103 0 -109 -1 -109 -21 0 -19 5 -20 88 -18 l87 2 5 -60 c3 -33 10
-66 17 -74 9 -11 13 -109 16 -349 3 -184 3 -323 0 -308 -4 26 -8 28 -48 28
-24 0 -47 5 -51 11 -4 8 3 9 25 4 19 -4 31 -3 31 3 0 13 -100 35 -132 30 -19
-3 -14 -7 22 -20 l45 -17 -44 2 c-31 1 -46 -3 -54 -14 -19 -29 -1 -49 43 -49
46 0 80 -14 80 -33 0 -10 -18 -13 -62 -13 -56 1 -63 -1 -66 -20 -6 -39 33 -59
109 -58 77 2 88 6 69 29 -11 13 -10 18 6 30 10 8 22 15 27 15 4 0 7 -38 7 -85
0 -64 -3 -85 -13 -85 -8 0 -20 11 -27 25 -8 15 -19 24 -28 20 -7 -3 -38 -5
-68 -5 -32 0 -53 -4 -49 -9 3 -6 -5 -15 -17 -22 l-22 -12 24 -9 c14 -5 64 -8
112 -6 54 2 88 -1 88 -7 0 -6 -41 -9 -110 -6 l-110 3 0 -111 0 -111 1100 0
1100 0 0 445 0 445 -222 1 c-164 0 -216 3 -195 11 19 7 25 14 19 21 -20 26
-29 88 -20 141 3 22 -41 39 -63 25 -8 -5 -24 -9 -37 -9 -30 0 -54 -56 -51
-119 3 -50 12 -58 69 -62 19 -1 -44 -5 -140 -9 -96 -4 -176 -6 -178 -4 -2 1
-8 35 -13 76 -5 40 -14 91 -19 113 -5 22 -21 106 -35 186 -23 133 -24 148 -10
175 8 16 20 52 26 80 10 45 9 59 -10 115 -11 34 -21 75 -21 89 0 26 51 113 73
127 7 4 6 -1 -2 -10 -12 -16 -7 -17 66 -17 84 0 100 5 82 26 -13 16 5 54 26
54 8 0 18 15 23 32 11 44 37 48 59 9 14 -24 22 -29 43 -24 17 3 31 -1 39 -11
20 -24 -4 -49 -41 -44 -18 3 -27 0 -25 -6 2 -6 19 -12 38 -14 19 -2 38 -8 44
-13 5 -5 54 -9 110 -9 84 1 104 4 123 20 13 11 21 24 17 30 -4 6 1 7 11 3 11
-4 15 -3 10 5 -3 6 -1 14 5 18 8 5 9 3 4 -6 -5 -8 -3 -11 6 -8 8 3 14 11 14
19 1 28 16 37 66 37 58 1 71 8 47 26 -10 7 -15 16 -11 19 3 4 -43 7 -103 7
-61 0 -114 4 -119 9 -11 10 -272 16 -320 8 -16 -3 -50 -12 -74 -21 -53 -20
-52 -20 -44 0 3 9 34 29 67 45 34 16 86 51 116 79 30 28 83 64 118 80 34 17
62 33 62 36 0 8 -97 -1 -122 -11 -12 -5 -18 -2 -18 7 0 18 34 51 43 41 4 -3 7
1 7 10 0 9 10 23 22 31 22 16 22 16 -8 16 -17 0 -39 -7 -50 -15 -10 -8 -25
-15 -33 -15 -19 0 25 47 51 56 23 7 24 24 1 24 -10 0 -49 -30 -87 -65 l-69
-65 6 35 c3 19 1 37 -4 40 -11 7 -32 -41 -31 -69 1 -11 -12 -33 -29 -50 -26
-27 -49 -79 -49 -113 0 -7 -4 -13 -8 -13 -14 0 -132 -111 -132 -124 0 -7 -9
-21 -19 -30 -11 -10 -17 -24 -14 -32 3 -8 1 -14 -5 -14 -6 0 -12 5 -14 12 -3
7 -12 9 -22 5 -22 -9 -18 -52 5 -51 11 1 15 -7 15 -30 -2 -47 -19 -46 -33 2
-11 40 -77 142 -91 142 -8 0 -52 63 -52 74 0 5 8 -1 18 -12 9 -11 29 -27 44
-37 l26 -16 -9 38 c-5 21 -9 58 -9 82 0 49 -19 121 -32 121 -4 0 -8 7 -8 15 0
8 -7 15 -16 15 -8 0 -13 4 -10 8 3 4 -8 13 -24 19 l-28 10 14 -33 c8 -19 12
-34 10 -34 -7 0 -76 133 -80 155 -7 32 -46 118 -52 112 -3 -3 6 -28 20 -56 15
-28 23 -51 19 -51 -13 1 -67 121 -68 151 -3 51 -61 112 -155 159 -25 12 -48
28 -52 34 -7 11 46 66 63 66 5 0 9 5 9 11 0 6 8 22 19 35 l19 24 -3 -28 c-3
-41 -15 -61 -44 -77 -22 -12 -23 -14 -6 -14 32 -1 109 50 149 98 44 53 69 98
61 111 -3 5 0 8 7 5 14 -6 35 34 42 81 3 16 7 49 11 73 3 24 13 57 21 72 8 15
14 36 14 46 0 9 29 45 64 78 36 34 66 72 68 86 5 28 -17 79 -34 79 -6 0 -4 -8
5 -18 19 -21 24 -67 6 -57 -6 4 -8 13 -5 21 3 8 -3 23 -13 33 -11 11 -17 21
-15 24 3 2 -2 7 -9 10 -20 7 -122 -48 -121 -65 1 -7 -24 10 -54 40 -60 57
-183 138 -228 151 -16 4 -38 5 -49 3z m465 -265 c-18 -17 -28 -24 -21 -14 11
13 11 17 1 17 -10 0 -10 3 0 15 7 8 17 12 22 9 6 -4 7 2 3 17 -7 23 -6 23 11
6 18 -17 17 -18 -16 -50z m-226 -462 c-4 -8 -11 -15 -16 -15 -6 0 -5 6 2 15 7
8 14 15 16 15 2 0 1 -7 -2 -15z m-34 -44 c-10 -20 -30 -37 -30 -27 0 6 33 46
38 46 1 0 -2 -9 -8 -19z m-45 -51 c-3 -5 -11 -10 -16 -10 -6 0 -7 5 -4 10 3 6
11 10 16 10 6 0 7 -4 4 -10z m-211 -89 c28 -1 28 -2 11 -15 -17 -12 -17 -13 8
-20 15 -3 27 -11 27 -17 0 -6 -6 -9 -14 -6 -8 3 -16 1 -18 -5 -2 -6 -19 -13
-38 -15 -19 -3 -44 -6 -55 -8 -11 -1 -30 -3 -42 -4 -13 0 -23 -7 -23 -15 0 -7
-6 -19 -14 -25 -8 -7 -17 -30 -21 -52 -4 -21 -11 -41 -16 -45 -5 -3 -7 -9 -4
-14 3 -5 3 -21 -1 -35 -5 -19 -9 -23 -15 -14 -5 8 -3 16 4 21 16 10 3 20 -17
12 -10 -4 -14 -13 -11 -23 3 -9 -1 -26 -9 -36 -10 -14 -11 -24 -4 -32 7 -9 7
-13 -1 -13 -6 0 -11 -7 -11 -15 0 -8 6 -15 12 -15 7 0 3 -7 -9 -15 -15 -10
-19 -23 -17 -45 3 -21 -1 -30 -11 -30 -11 0 -13 16 -10 88 2 48 7 101 10 117
4 17 7 40 8 53 1 12 5 22 9 22 3 0 9 17 13 39 4 24 19 51 38 72 19 19 25 30
15 26 -10 -3 -18 -3 -18 2 0 14 28 33 39 26 9 -5 53 9 101 34 8 5 24 7 35 6
11 -1 33 -3 49 -4z m507 -618 c5 -13 5 -23 1 -23 -11 1 -56 102 -59 130 -1 23
28 -32 58 -107z m319 -102 c0 -5 -9 -19 -20 -32 l-20 -24 17 32 c19 34 23 39
23 24z m650 -5 c0 -3 -4 -8 -10 -11 -5 -3 -10 -1 -10 4 0 6 5 11 10 11 6 0 10
-2 10 -4z m-700 -86 c0 -5 -5 -10 -11 -10 -5 0 -7 5 -4 10 3 6 8 10 11 10 2 0
4 -4 4 -10z m280 -877 c0 -31 -3 -53 -7 -49 -10 10 -10 106 -1 106 5 0 8 -25
8 -57z m17 -35 c-3 -8 -6 -5 -6 6 -1 11 2 17 5 13 3 -3 4 -12 1 -19z m-289
-163 c-3 -3 -9 2 -12 12 -6 14 -5 15 5 6 7 -7 10 -15 7 -18z m25 -142 c8 -52
14 -82 26 -121 6 -19 6 -30 0 -27 -5 4 -9 13 -9 21 0 8 -5 14 -11 14 -5 0 -7
4 -4 10 3 5 2 18 -3 27 -14 28 -25 113 -14 113 6 0 12 -17 15 -37z"/>
<path d="M7230 2640 c-17 -4 -21 -8 -12 -14 7 -4 10 -12 7 -17 -4 -5 -1 -9 5
-9 7 0 10 7 6 15 -4 10 1 15 15 15 13 0 18 -4 13 -12 -5 -9 -2 -9 9 1 31 25
13 34 -43 21z"/>
<path d="M7160 2620 c0 -13 11 -13 30 0 12 8 11 10 -7 10 -13 0 -23 -4 -23
-10z"/>
<path d="M7110 2460 c-13 -8 -12 -10 3 -10 9 0 17 5 17 10 0 12 -1 12 -20 0z"/>
<path d="M11290 3449 c0 -5 5 -7 10 -4 6 3 10 8 10 11 0 2 -4 4 -10 4 -5 0
-10 -5 -10 -11z"/>
<path d="M11395 3390 c3 -5 13 -10 21 -10 8 0 14 5 14 10 0 6 -9 10 -21 10
-11 0 -17 -4 -14 -10z"/>
<path d="M8372 3310 c0 -14 2 -19 5 -12 2 6 2 18 0 25 -3 6 -5 1 -5 -13z"/>
<path d="M3369 3283 c-3 -16 -1 -44 2 -63 5 -28 7 -23 8 28 1 65 -4 82 -10 35z"/>
<path d="M4473 3250 c0 -30 2 -43 4 -27 2 15 2 39 0 55 -2 15 -4 2 -4 -28z"/>
<path d="M5384 3243 c1 -44 5 -58 16 -59 8 0 10 1 3 3 -7 2 -14 28 -16 59 l-4
54 1 -57z"/>
<path d="M3960 3269 c0 -5 5 -7 10 -4 6 3 10 8 10 11 0 2 -4 4 -10 4 -5 0 -10
-5 -10 -11z"/>
<path d="M2195 3259 c-4 -6 -5 -12 -2 -15 2 -3 7 2 10 11 7 17 1 20 -8 4z"/>
<path d="M2483 3225 c0 -27 2 -38 4 -22 2 15 2 37 0 50 -2 12 -4 0 -4 -28z"/>
<path d="M2753 3210 c0 -36 2 -50 4 -32 2 17 2 47 0 65 -2 17 -4 3 -4 -33z"/>
<path d="M3033 3230 c0 -25 2 -35 4 -22 2 12 2 32 0 45 -2 12 -4 2 -4 -23z"/>
<path d="M3136 3257 c3 -10 9 -15 12 -12 3 3 0 11 -7 18 -10 9 -11 8 -5 -6z"/>
<path d="M3585 3259 c-4 -6 -5 -12 -2 -15 2 -3 7 2 10 11 7 17 1 20 -8 4z"/>
<path d="M4193 3230 c0 -25 2 -35 4 -22 2 12 2 32 0 45 -2 12 -4 2 -4 -23z"/>
<path d="M4250 3222 l5 -47 3 39 c2 21 0 42 -5 47 -4 4 -6 -13 -3 -39z"/>
<path d="M4793 3225 c0 -27 2 -38 4 -22 2 15 2 37 0 50 -2 12 -4 0 -4 -28z"/>
<path d="M5513 3230 c0 -25 2 -35 4 -22 2 12 2 32 0 45 -2 12 -4 2 -4 -23z"/>
<path d="M4900 3251 c0 -6 4 -13 10 -16 6 -3 7 1 4 9 -7 18 -14 21 -14 7z"/>
<path d="M2372 3230 c0 -14 2 -19 5 -12 2 6 2 18 0 25 -3 6 -5 1 -5 -13z"/>
<path d="M3203 3215 c0 -22 2 -30 4 -17 2 12 2 30 0 40 -3 9 -5 -1 -4 -23z"/>
<path d="M3412 3230 c0 -14 2 -19 5 -12 2 6 2 18 0 25 -3 6 -5 1 -5 -13z"/>
<path d="M5102 3230 c0 -14 2 -19 5 -12 2 6 2 18 0 25 -3 6 -5 1 -5 -13z"/>
<path d="M10515 3213 c8 -20 13 -38 10 -41 -8 -9 -74 -8 -69 0 3 4 -2 8 -10 8
-9 0 -16 7 -16 16 0 9 -5 14 -12 12 -6 -2 -20 4 -30 14 -26 26 -36 22 -32 -11
3 -26 1 -28 -19 -24 -12 3 -28 11 -36 17 -12 9 -13 8 -8 -6 9 -25 -12 -23 -41
5 -23 20 -25 21 -17 2 9 -23 9 -24 1 -89 -3 -27 -10 -54 -17 -60 -9 -8 -10 -6
-5 8 4 13 2 17 -8 13 -8 -3 -17 1 -20 9 -11 28 -23 13 -19 -22 2 -22 15 -48
31 -65 26 -28 50 -40 37 -19 -3 6 4 10 17 10 l23 -1 -24 -19 c-23 -20 -43 -26
-38 -12 1 4 -2 9 -8 10 -5 2 -18 8 -28 14 -16 8 -17 7 -8 -10 6 -11 7 -22 4
-26 -3 -3 -1 -6 6 -6 9 0 11 -11 7 -37 -3 -21 -5 -39 -6 -41 0 -2 -5 0 -10 3
-6 3 -7 17 -4 29 6 25 -9 36 -54 42 -19 2 -22 -1 -17 -17 4 -10 8 -31 11 -45
3 -15 10 -36 15 -47 6 -11 7 -17 2 -14 -4 3 -9 -5 -9 -18 l-2 -24 41 27 c23
15 51 36 63 47 12 12 35 27 51 35 15 8 40 22 55 32 14 10 35 18 47 18 11 0 26
9 33 20 7 11 18 20 24 20 20 0 94 60 94 77 0 14 -2 14 -20 -2 -11 -10 -20 -13
-20 -8 0 11 16 20 34 21 5 0 13 6 17 14 7 10 9 9 9 -4 0 -25 9 -22 46 13 18
17 43 36 55 43 30 15 37 36 10 29 -13 -3 -21 -1 -21 6 0 7 -4 9 -10 6 -5 -3
-10 1 -10 10 0 11 -5 15 -14 12 -8 -3 -26 9 -42 29 -40 47 -59 46 -39 -3z m0
-72 c-3 -6 -11 -11 -17 -11 -6 0 -6 6 2 15 14 17 26 13 15 -4z m-135 -11 c0
-5 -4 -10 -10 -10 -5 0 -10 5 -10 10 0 6 5 10 10 10 6 0 10 -4 10 -10z m-108
-22 c-7 -7 -12 -8 -12 -2 0 14 12 26 19 19 2 -3 -1 -11 -7 -17z m78 -44 c0 -2
-7 -4 -15 -4 -8 0 -15 4 -15 10 0 5 7 7 15 4 8 -4 15 -8 15 -10z m-95 -34 c-3
-5 -10 -10 -16 -10 -5 0 -9 5 -9 10 0 6 7 10 16 10 8 0 12 -4 9 -10z m95 6 c0
-3 -4 -8 -10 -11 -5 -3 -10 -1 -10 4 0 6 5 11 10 11 6 0 10 -2 10 -4z m50 -34
c0 -15 -2 -15 -10 -2 -13 20 -13 33 0 25 6 -3 10 -14 10 -23z m50 8 c0 -5 -7
-7 -15 -4 -8 4 -15 8 -15 10 0 2 7 4 15 4 8 0 15 -4 15 -10z m-60 -50 c-8 -5
-17 -7 -19 -4 -3 3 1 9 9 14 8 5 17 7 19 4 3 -3 -1 -9 -9 -14z m-124 -37 c-11
-11 -19 6 -11 24 8 17 8 17 12 0 3 -10 2 -21 -1 -24z"/>
<path d="M2900 3226 c0 -2 7 -7 16 -10 8 -3 12 -2 9 4 -6 10 -25 14 -25 6z"/>
<path d="M3850 3226 c0 -2 7 -7 16 -10 8 -3 12 -2 9 4 -6 10 -25 14 -25 6z"/>
<path d="M8615 3210 c-4 -12 -5 -24 -2 -27 3 -2 8 5 12 17 4 12 5 24 2 27 -3
2 -8 -5 -12 -17z"/>
<path d="M2190 3214 c0 -17 27 -37 42 -31 8 4 7 6 -4 6 -9 1 -22 9 -27 19 -6
9 -11 12 -11 6z"/>
<path d="M2256 3203 c-6 -14 -5 -15 5 -6 7 7 10 15 7 18 -3 3 -9 -2 -12 -12z"/>
<path d="M3580 3214 c0 -17 27 -37 42 -31 8 4 7 6 -4 6 -9 1 -22 9 -27 19 -6
9 -11 12 -11 6z"/>
<path d="M3646 3203 c-6 -14 -5 -15 5 -6 7 7 10 15 7 18 -3 3 -9 -2 -12 -12z"/>
<path d="M4081 3204 c0 -11 3 -14 6 -6 3 7 2 16 -1 19 -3 4 -6 -2 -5 -13z"/>
<path d="M3460 3194 c-17 -9 -20 -14 -9 -14 9 0 22 7 29 15 15 18 13 18 -20
-1z"/>
<path d="M2978 3188 c5 -5 16 -8 23 -6 8 3 3 7 -10 11 -17 4 -21 3 -13 -5z"/>
<path d="M3537 3189 c7 -7 15 -10 18 -7 3 3 -2 9 -12 12 -14 6 -15 5 -6 -5z"/>
<path d="M3978 3188 c5 -5 16 -8 23 -6 8 3 3 7 -10 11 -17 4 -21 3 -13 -5z"/>
<path d="M5217 3189 c7 -7 15 -10 18 -7 3 3 -2 9 -12 12 -14 6 -15 5 -6 -5z"/>
<path d="M5458 3188 c5 -5 16 -8 23 -6 8 3 3 7 -10 11 -17 4 -21 3 -13 -5z"/>
<path d="M2108 3183 c12 -2 32 -2 45 0 12 2 2 4 -23 4 -25 0 -35 -2 -22 -4z"/>
<path d="M2408 3183 c7 -3 16 -2 19 1 4 3 -2 6 -13 5 -11 0 -14 -3 -6 -6z"/>
<path d="M2788 3183 c7 -3 16 -2 19 1 4 3 -2 6 -13 5 -11 0 -14 -3 -6 -6z"/>
<path d="M2888 3183 c7 -3 16 -2 19 1 4 3 -2 6 -13 5 -11 0 -14 -3 -6 -6z"/>
<path d="M3838 3183 c7 -3 16 -2 19 1 4 3 -2 6 -13 5 -11 0 -14 -3 -6 -6z"/>
<path d="M4388 3183 c6 -2 18 -2 25 0 6 3 1 5 -13 5 -14 0 -19 -2 -12 -5z"/>
<path d="M4618 3183 c7 -3 16 -2 19 1 4 3 -2 6 -13 5 -11 0 -14 -3 -6 -6z"/>
<path d="M4708 3183 c7 -3 16 -2 19 1 4 3 -2 6 -13 5 -11 0 -14 -3 -6 -6z"/>
<path d="M4918 3183 c6 -2 18 -2 25 0 6 3 1 5 -13 5 -14 0 -19 -2 -12 -5z"/>
<path d="M5028 3183 c6 -2 18 -2 25 0 6 3 1 5 -13 5 -14 0 -19 -2 -12 -5z"/>
<path d="M5138 3183 c7 -3 16 -2 19 1 4 3 -2 6 -13 5 -11 0 -14 -3 -6 -6z"/>
<path d="M5298 3183 c7 -3 16 -2 19 1 4 3 -2 6 -13 5 -11 0 -14 -3 -6 -6z"/>
<path d="M8621 3154 c0 -11 3 -14 6 -6 3 7 2 16 -1 19 -3 4 -6 -2 -5 -13z"/>
<path d="M8618 3113 c-2 -10 -1 -31 2 -48 9 -39 23 -11 16 30 -6 35 -12 41
-18 18z"/>
<path d="M8446 3063 c-21 -21 39 -31 97 -16 30 8 18 22 -18 20 -19 -1 -35 -6
-35 -10 0 -4 -8 -3 -19 2 -10 6 -21 7 -25 4z"/>
<path d="M2263 2970 c0 -41 2 -58 4 -37 2 20 2 54 0 75 -2 20 -4 3 -4 -38z"/>
<path d="M3563 2990 c0 -30 2 -43 4 -27 2 15 2 39 0 55 -2 15 -4 2 -4 -28z"/>
<path d="M3194 2971 c1 -48 5 -65 16 -68 11 -3 11 -2 3 4 -6 5 -14 35 -16 68
l-4 60 1 -64z"/>
<path d="M3614 2971 c1 -48 5 -65 16 -68 11 -3 11 -2 3 4 -6 5 -14 35 -16 68
l-4 60 1 -64z"/>
<path d="M3674 2971 c1 -48 5 -65 16 -68 11 -3 11 -2 3 4 -6 5 -14 35 -16 68
l-4 60 1 -64z"/>
<path d="M6860 3019 c0 -5 5 -7 10 -4 6 3 10 8 10 11 0 2 -4 4 -10 4 -5 0 -10
-5 -10 -11z"/>
<path d="M3304 2963 c1 -44 5 -58 16 -59 8 0 10 1 3 3 -7 2 -14 28 -16 59 l-4
54 1 -57z"/>
<path d="M5363 2970 c0 -30 2 -43 4 -27 2 15 2 39 0 55 -2 15 -4 2 -4 -28z"/>
<path d="M8474 3005 c3 -9 6 -19 6 -21 0 -2 7 -4 16 -4 22 0 13 34 -10 38 -14
3 -17 0 -12 -13z"/>
<path d="M2313 2950 c0 -25 2 -35 4 -22 2 12 2 32 0 45 -2 12 -4 2 -4 -23z"/>
<path d="M2473 2950 c0 -25 2 -35 4 -22 2 12 2 32 0 45 -2 12 -4 2 -4 -23z"/>
<path d="M2803 2950 c0 -25 2 -35 4 -22 2 12 2 32 0 45 -2 12 -4 2 -4 -23z"/>
<path d="M2915 2979 c-4 -6 -5 -12 -2 -15 2 -3 7 2 10 11 7 17 1 20 -8 4z"/>
<path d="M3253 2950 c0 -25 2 -35 4 -22 2 12 2 32 0 45 -2 12 -4 2 -4 -23z"/>
<path d="M4423 2945 c0 -27 2 -38 4 -22 2 15 2 37 0 50 -2 12 -4 0 -4 -28z"/>
<path d="M4706 2977 c3 -10 9 -15 12 -12 3 3 0 11 -7 18 -10 9 -11 8 -5 -6z"/>
<path d="M4993 2940 c0 -30 2 -43 4 -27 2 15 2 39 0 55 -2 15 -4 2 -4 -28z"/>
<path d="M5043 2950 c0 -25 2 -35 4 -22 2 12 2 32 0 45 -2 12 -4 2 -4 -23z"/>
<path d="M5613 2950 c0 -25 2 -35 4 -22 2 12 2 32 0 45 -2 12 -4 2 -4 -23z"/>
<path d="M2432 2950 c0 -14 2 -19 5 -12 2 6 2 18 0 25 -3 6 -5 1 -5 -13z"/>
<path d="M3792 2940 c0 -19 2 -27 5 -17 2 9 2 25 0 35 -3 9 -5 1 -5 -18z"/>
<path d="M4773 2935 c0 -22 2 -30 4 -17 2 12 2 30 0 40 -3 9 -5 -1 -4 -23z"/>
<path d="M5313 2935 c0 -22 2 -30 4 -17 2 12 2 30 0 40 -3 9 -5 -1 -4 -23z"/>
<path d="M5421 2950 c-1 -29 15 -50 39 -49 10 0 9 3 -5 8 -11 4 -23 21 -26 37
-6 28 -7 28 -8 4z"/>
<path d="M3962 2935 c0 -16 2 -22 5 -12 2 9 2 23 0 30 -3 6 -5 -1 -5 -18z"/>
<path d="M7725 2951 c-6 -11 9 -23 19 -14 9 9 7 23 -3 23 -6 0 -12 -4 -16 -9z"/>
<path d="M2085 2939 c-4 -6 -5 -12 -2 -15 2 -3 7 2 10 11 7 17 1 20 -8 4z"/>
<path d="M2550 2946 c0 -2 7 -7 16 -10 8 -3 12 -2 9 4 -6 10 -25 14 -25 6z"/>
<path d="M4315 2939 c-4 -6 -5 -12 -2 -15 2 -3 7 2 10 11 7 17 1 20 -8 4z"/>
<path d="M4815 2939 c-4 -6 -5 -12 -2 -15 2 -3 7 2 10 11 7 17 1 20 -8 4z"/>
<path d="M5950 2946 c0 -2 7 -7 16 -10 8 -3 12 -2 9 4 -6 10 -25 14 -25 6z"/>
<path d="M2910 2931 c0 -6 4 -13 10 -16 6 -3 7 1 4 9 -7 18 -14 21 -14 7z"/>
<path d="M3545 2921 c-6 -5 -19 -11 -30 -14 -19 -4 -19 -5 1 -6 12 0 27 6 34
14 14 16 10 20 -5 6z"/>
<path d="M3738 2908 c5 -5 16 -8 23 -6 8 3 3 7 -10 11 -17 4 -21 3 -13 -5z"/>
<path d="M5258 2908 c5 -5 16 -8 23 -6 8 3 3 7 -10 11 -17 4 -21 3 -13 -5z"/>
<path d="M5558 2908 c5 -5 16 -8 23 -6 8 3 3 7 -10 11 -17 4 -21 3 -13 -5z"/>
<path d="M2218 2903 c7 -3 16 -2 19 1 4 3 -2 6 -13 5 -11 0 -14 -3 -6 -6z"/>
<path d="M2538 2903 c7 -3 16 -2 19 1 4 3 -2 6 -13 5 -11 0 -14 -3 -6 -6z"/>
<path d="M2688 2903 c7 -3 16 -2 19 1 4 3 -2 6 -13 5 -11 0 -14 -3 -6 -6z"/>
<path d="M3108 2903 c6 -2 18 -2 25 0 6 3 1 5 -13 5 -14 0 -19 -2 -12 -5z"/>
<path d="M4238 2903 c7 -3 16 -2 19 1 4 3 -2 6 -13 5 -11 0 -14 -3 -6 -6z"/>
<path d="M5688 2903 c7 -3 16 -2 19 1 4 3 -2 6 -13 5 -11 0 -14 -3 -6 -6z"/>
<path d="M5848 2903 c7 -3 16 -2 19 1 4 3 -2 6 -13 5 -11 0 -14 -3 -6 -6z"/>
<path d="M5938 2903 c7 -3 16 -2 19 1 4 3 -2 6 -13 5 -11 0 -14 -3 -6 -6z"/>
<path d="M6038 2903 c7 -3 16 -2 19 1 4 3 -2 6 -13 5 -11 0 -14 -3 -6 -6z"/>
<path d="M6138 2903 c6 -2 18 -2 25 0 6 3 1 5 -13 5 -14 0 -19 -2 -12 -5z"/>
<path d="M7767 2858 c-3 -24 -6 -154 -5 -291 1 -193 4 -250 15 -259 11 -9 13
40 13 291 -1 278 -9 365 -23 259z"/>
<path d="M10370 2831 c0 -15 72 -80 88 -81 8 0 12 6 10 12 -6 18 -98 82 -98
69z"/>
<path d="M3379 2723 c-3 -16 -1 -44 2 -63 5 -28 7 -23 8 28 1 65 -4 82 -10 35z"/>
<path d="M3749 2723 c-3 -16 -1 -44 2 -63 5 -28 7 -23 8 28 1 65 -4 82 -10 35z"/>
<path d="M2393 2680 c0 -36 2 -50 4 -32 2 17 2 47 0 65 -2 17 -4 3 -4 -33z"/>
<path d="M6820 2704 c0 -22 3 -24 23 -19 34 11 44 24 27 35 -29 18 -50 12 -50
-16z"/>
<path d="M2313 2670 c0 -25 2 -35 4 -22 2 12 2 32 0 45 -2 12 -4 2 -4 -23z"/>
<path d="M2800 2662 l5 -47 3 39 c2 21 0 42 -5 47 -4 4 -6 -13 -3 -39z"/>
<path d="M4126 2697 c3 -10 9 -15 12 -12 3 3 0 11 -7 18 -10 9 -11 8 -5 -6z"/>
<path d="M4903 2670 c0 -25 2 -35 4 -22 2 12 2 32 0 45 -2 12 -4 2 -4 -23z"/>
<path d="M5303 2670 c0 -25 2 -35 4 -22 2 12 2 32 0 45 -2 12 -4 2 -4 -23z"/>
<path d="M5425 2699 c-4 -6 -5 -12 -2 -15 2 -3 7 2 10 11 7 17 1 20 -8 4z"/>
<path d="M5491 2694 c0 -11 3 -14 6 -6 3 7 2 16 -1 19 -3 4 -6 -2 -5 -13z"/>
<path d="M5543 2670 c0 -25 2 -35 4 -22 2 12 2 32 0 45 -2 12 -4 2 -4 -23z"/>
<path d="M5770 2662 l5 -47 3 39 c2 21 0 42 -5 47 -4 4 -6 -13 -3 -39z"/>
<path d="M6103 2665 c0 -27 2 -38 4 -22 2 15 2 37 0 50 -2 12 -4 0 -4 -28z"/>
<path d="M6275 2699 c-4 -6 -5 -12 -2 -15 2 -3 7 2 10 11 7 17 1 20 -8 4z"/>
<path d="M5860 2691 c0 -6 4 -13 10 -16 6 -3 7 1 4 9 -7 18 -14 21 -14 7z"/>
<path d="M6380 2691 c0 -6 4 -13 10 -16 6 -3 7 1 4 9 -7 18 -14 21 -14 7z"/>
<path d="M2162 2670 c0 -14 2 -19 5 -12 2 6 2 18 0 25 -3 6 -5 1 -5 -13z"/>
<path d="M2622 2670 c0 -14 2 -19 5 -12 2 6 2 18 0 25 -3 6 -5 1 -5 -13z"/>
<path d="M2841 2670 c-1 -29 15 -50 39 -49 10 0 9 3 -5 8 -11 4 -23 21 -26 37
-6 28 -7 28 -8 4z"/>
<path d="M3263 2655 c0 -22 2 -30 4 -17 2 12 2 30 0 40 -3 9 -5 -1 -4 -23z"/>
<path d="M4193 2655 c0 -22 2 -30 4 -17 2 12 2 30 0 40 -3 9 -5 -1 -4 -23z"/>
<path d="M4463 2655 c0 -22 2 -30 4 -17 2 12 2 30 0 40 -3 9 -5 -1 -4 -23z"/>
<path d="M5073 2655 c0 -22 2 -30 4 -17 2 12 2 30 0 40 -3 9 -5 -1 -4 -23z"/>
<path d="M5582 2670 c0 -14 2 -19 5 -12 2 6 2 18 0 25 -3 6 -5 1 -5 -13z"/>
<path d="M3040 2666 c0 -2 7 -7 16 -10 8 -3 12 -2 9 4 -6 10 -25 14 -25 6z"/>
<path d="M5990 2666 c0 -2 7 -7 16 -10 8 -3 12 -2 9 4 -6 10 -25 14 -25 6z"/>
<path d="M5420 2654 c0 -17 27 -37 42 -31 8 4 7 6 -4 6 -9 1 -22 9 -27 19 -6
9 -11 12 -11 6z"/>
<path d="M5491 2644 c0 -11 3 -14 6 -6 3 7 2 16 -1 19 -3 4 -6 -2 -5 -13z"/>
<path d="M6270 2654 c0 -17 27 -37 42 -31 8 4 7 6 -4 6 -9 1 -22 9 -27 19 -6
9 -11 12 -11 6z"/>
<path d="M6336 2643 c-6 -14 -5 -15 5 -6 7 7 10 15 7 18 -3 3 -9 -2 -12 -12z"/>
<path d="M6770 2645 c-8 -9 -8 -15 -2 -15 12 0 26 19 19 26 -2 2 -10 -2 -17
-11z"/>
<path d="M6860 2639 c0 -5 5 -7 10 -4 6 3 10 8 10 11 0 2 -4 4 -10 4 -5 0 -10
-5 -10 -11z"/>
<path d="M3208 2628 c5 -5 16 -8 23 -6 8 3 3 7 -10 11 -17 4 -21 3 -13 -5z"/>
<path d="M4408 2628 c5 -5 16 -8 23 -6 8 3 3 7 -10 11 -17 4 -21 3 -13 -5z"/>
<path d="M5018 2628 c5 -5 16 -8 23 -6 8 3 3 7 -10 11 -17 4 -21 3 -13 -5z"/>
<path d="M5137 2629 c7 -7 15 -10 18 -7 3 3 -2 9 -12 12 -14 6 -15 5 -6 -5z"/>
<path d="M2238 2623 c7 -3 16 -2 19 1 4 3 -2 6 -13 5 -11 0 -14 -3 -6 -6z"/>
<path d="M2478 2623 c7 -3 16 -2 19 1 4 3 -2 6 -13 5 -11 0 -14 -3 -6 -6z"/>
<path d="M2658 2623 c7 -3 16 -2 19 1 4 3 -2 6 -13 5 -11 0 -14 -3 -6 -6z"/>
<path d="M3028 2623 c7 -3 16 -2 19 1 4 3 -2 6 -13 5 -11 0 -14 -3 -6 -6z"/>
<path d="M3498 2623 c7 -3 16 -2 19 1 4 3 -2 6 -13 5 -11 0 -14 -3 -6 -6z"/>
<path d="M3608 2623 c7 -3 16 -2 19 1 4 3 -2 6 -13 5 -11 0 -14 -3 -6 -6z"/>
<path d="M3988 2623 c6 -2 18 -2 25 0 6 3 1 5 -13 5 -14 0 -19 -2 -12 -5z"/>
<path d="M4268 2623 c7 -3 16 -2 19 1 4 3 -2 6 -13 5 -11 0 -14 -3 -6 -6z"/>
<path d="M4528 2623 c7 -3 16 -2 19 1 4 3 -2 6 -13 5 -11 0 -14 -3 -6 -6z"/>
<path d="M4748 2623 c6 -2 18 -2 25 0 6 3 1 5 -13 5 -14 0 -19 -2 -12 -5z"/>
<path d="M5878 2623 c6 -2 18 -2 25 0 6 3 1 5 -13 5 -14 0 -19 -2 -12 -5z"/>
<path d="M5978 2623 c7 -3 16 -2 19 1 4 3 -2 6 -13 5 -11 0 -14 -3 -6 -6z"/>
<path d="M6398 2623 c6 -2 18 -2 25 0 6 3 1 5 -13 5 -14 0 -19 -2 -12 -5z"/>
<path d="M7029 2603 c-13 -16 -12 -17 4 -4 16 13 21 21 13 21 -2 0 -10 -8 -17
-17z"/>
<path d="M10233 2551 c10 -27 8 -33 -29 -74 -21 -24 -70 -92 -107 -151 -38
-59 -88 -131 -111 -159 -74 -91 -82 -115 -15 -46 73 75 129 144 129 156 0 16
71 118 111 160 22 23 42 50 44 61 2 12 9 30 15 42 13 25 13 25 -22 34 -25 6
-26 5 -15 -23z"/>
<path d="M10298 2540 c-8 -19 -13 -39 -10 -44 6 -11 34 54 29 68 -3 6 -11 -5
-19 -24z"/>
<path d="M6727 2493 c-4 -3 -7 -28 -7 -55 l0 -50 43 3 c58 4 62 6 65 34 1 19
-2 23 -16 18 -15 -6 -14 -3 3 17 18 21 18 23 2 17 -11 -4 -20 -1 -23 8 -6 15
-55 21 -67 8z"/>
<path d="M2253 2410 c0 -41 2 -58 4 -37 2 20 2 54 0 75 -2 20 -4 3 -4 -38z"/>
<path d="M3344 2416 c1 -53 5 -70 16 -73 11 -3 11 -2 3 4 -7 5 -14 38 -16 73
l-4 65 1 -69z"/>
<path d="M4093 2410 c0 -41 2 -58 4 -37 2 20 2 54 0 75 -2 20 -4 3 -4 -38z"/>
<path d="M5639 2443 c-3 -16 -1 -44 2 -63 5 -28 7 -23 8 28 1 65 -4 82 -10 35z"/>
<path d="M4243 2410 c0 -30 2 -43 4 -27 2 15 2 39 0 55 -2 15 -4 2 -4 -28z"/>
<path d="M5834 2403 c1 -44 5 -58 16 -59 8 0 10 1 3 3 -7 2 -14 28 -16 59 l-4
54 1 -57z"/>
<path d="M3510 2429 c0 -5 5 -7 10 -4 6 3 10 8 10 11 0 2 -4 4 -10 4 -5 0 -10
-5 -10 -11z"/>
<path d="M2483 2390 c0 -25 2 -35 4 -22 2 12 2 32 0 45 -2 12 -4 2 -4 -23z"/>
<path d="M2553 2390 c0 -25 2 -35 4 -22 2 12 2 32 0 45 -2 12 -4 2 -4 -23z"/>
<path d="M2913 2385 c0 -27 2 -38 4 -22 2 15 2 37 0 50 -2 12 -4 0 -4 -28z"/>
<path d="M3743 2390 c0 -25 2 -35 4 -22 2 12 2 32 0 45 -2 12 -4 2 -4 -23z"/>
<path d="M3800 2382 l5 -47 3 39 c2 21 0 42 -5 47 -4 4 -6 -13 -3 -39z"/>
<path d="M4143 2390 c0 -25 2 -35 4 -22 2 12 2 32 0 45 -2 12 -4 2 -4 -23z"/>
<path d="M4413 2385 c0 -27 2 -38 4 -22 2 15 2 37 0 50 -2 12 -4 0 -4 -28z"/>
<path d="M4813 2385 c0 -27 2 -38 4 -22 2 15 2 37 0 50 -2 12 -4 0 -4 -28z"/>
<path d="M5108 2423 c-2 -5 -1 -33 3 -63 l6 -55 1 63 c2 57 -1 74 -10 55z"/>
<path d="M5223 2385 c0 -27 2 -38 4 -22 2 15 2 37 0 50 -2 12 -4 0 -4 -28z"/>
<path d="M5473 2390 c0 -25 2 -35 4 -22 2 12 2 32 0 45 -2 12 -4 2 -4 -23z"/>
<path d="M3130 2411 c0 -6 4 -13 10 -16 6 -3 7 1 4 9 -7 18 -14 21 -14 7z"/>
<path d="M5370 2411 c0 -6 4 -13 10 -16 6 -3 7 1 4 9 -7 18 -14 21 -14 7z"/>
<path d="M2592 2390 c0 -14 2 -19 5 -12 2 6 2 18 0 25 -3 6 -5 1 -5 -13z"/>
<path d="M3643 2375 c0 -22 2 -30 4 -17 2 12 2 30 0 40 -3 9 -5 -1 -4 -23z"/>
<path d="M4302 2390 c0 -14 2 -19 5 -12 2 6 2 18 0 25 -3 6 -5 1 -5 -13z"/>
<path d="M5332 2380 c0 -19 2 -27 5 -17 2 9 2 25 0 35 -3 9 -5 1 -5 -18z"/>
<path d="M3981 2384 c0 -11 3 -14 6 -6 3 7 2 16 -1 19 -3 4 -6 -2 -5 -13z"/>
<path d="M2145 2379 c-4 -6 -5 -12 -2 -15 2 -3 7 2 10 11 7 17 1 20 -8 4z"/>
<path d="M2740 2386 c0 -2 7 -7 16 -10 8 -3 12 -2 9 4 -6 10 -25 14 -25 6z"/>
<path d="M2801 2364 c0 -11 3 -14 6 -6 3 7 2 16 -1 19 -3 4 -6 -2 -5 -13z"/>
<path d="M5891 2364 c0 -11 3 -14 6 -6 3 7 2 16 -1 19 -3 4 -6 -2 -5 -13z"/>
<path d="M2640 2354 c-17 -9 -20 -14 -9 -14 9 0 22 7 29 15 15 18 13 18 -20
-1z"/>
<path d="M2097 2349 c7 -7 15 -10 18 -7 3 3 -2 9 -12 12 -14 6 -15 5 -6 -5z"/>
<path d="M3528 2348 c5 -5 16 -8 23 -6 8 3 3 7 -10 11 -17 4 -21 3 -13 -5z"/>
<path d="M3588 2348 c5 -5 16 -8 23 -6 8 3 3 7 -10 11 -17 4 -21 3 -13 -5z"/>
<path d="M5168 2348 c5 -5 16 -8 23 -6 8 3 3 7 -10 11 -17 4 -21 3 -13 -5z"/>
<path d="M5278 2348 c5 -5 16 -8 23 -6 8 3 3 7 -10 11 -17 4 -21 3 -13 -5z"/>
<path d="M2288 2343 c7 -3 16 -2 19 1 4 3 -2 6 -13 5 -11 0 -14 -3 -6 -6z"/>
<path d="M2398 2343 c7 -3 16 -2 19 1 4 3 -2 6 -13 5 -11 0 -14 -3 -6 -6z"/>
<path d="M2728 2343 c7 -3 16 -2 19 1 4 3 -2 6 -13 5 -11 0 -14 -3 -6 -6z"/>
<path d="M3148 2343 c6 -2 18 -2 25 0 6 3 1 5 -13 5 -14 0 -19 -2 -12 -5z"/>
<path d="M3258 2343 c7 -3 16 -2 19 1 4 3 -2 6 -13 5 -11 0 -14 -3 -6 -6z"/>
<path d="M3938 2343 c7 -3 16 -2 19 1 4 3 -2 6 -13 5 -11 0 -14 -3 -6 -6z"/>
<path d="M4048 2343 c7 -3 16 -2 19 1 4 3 -2 6 -13 5 -11 0 -14 -3 -6 -6z"/>
<path d="M4338 2343 c7 -3 16 -2 19 1 4 3 -2 6 -13 5 -11 0 -14 -3 -6 -6z"/>
<path d="M4728 2343 c7 -3 16 -2 19 1 4 3 -2 6 -13 5 -11 0 -14 -3 -6 -6z"/>
<path d="M4908 2343 c6 -2 18 -2 25 0 6 3 1 5 -13 5 -14 0 -19 -2 -12 -5z"/>
<path d="M5388 2343 c6 -2 18 -2 25 0 6 3 1 5 -13 5 -14 0 -19 -2 -12 -5z"/>
<path d="M5758 2343 c7 -3 16 -2 19 1 4 3 -2 6 -13 5 -11 0 -14 -3 -6 -6z"/>
<path d="M10550 2255 c-7 -9 -11 -18 -8 -20 3 -3 11 1 18 10 7 9 11 18 8 20
-3 3 -11 -1 -18 -10z"/>
<path d="M2818 2193 c6 -2 18 -2 25 0 6 3 1 5 -13 5 -14 0 -19 -2 -12 -5z"/>
<path d="M2313 2130 c0 -36 2 -50 4 -32 2 17 2 47 0 65 -2 17 -4 3 -4 -33z"/>
<path d="M2470 2149 c0 -5 5 -7 10 -4 6 3 10 8 10 11 0 2 -4 4 -10 4 -5 0 -10
-5 -10 -11z"/>
<path d="M3123 2090 c0 -36 2 -50 4 -32 2 17 2 47 0 65 -2 17 -4 3 -4 -33z"/>
<path d="M3395 2139 c-4 -6 -5 -12 -2 -15 2 -3 7 2 10 11 7 17 1 20 -8 4z"/>
<path d="M3485 2139 c-4 -6 -5 -12 -2 -15 2 -3 7 2 10 11 7 17 1 20 -8 4z"/>
<path d="M3785 2139 c-4 -6 -5 -12 -2 -15 2 -3 7 2 10 11 7 17 1 20 -8 4z"/>
<path d="M4273 2105 c0 -27 2 -38 4 -22 2 15 2 37 0 50 -2 12 -4 0 -4 -28z"/>
<path d="M4510 2102 l5 -47 3 39 c2 21 0 42 -5 47 -4 4 -6 -13 -3 -39z"/>
<path d="M4823 2090 c0 -36 2 -50 4 -32 2 17 2 47 0 65 -2 17 -4 3 -4 -33z"/>
<path d="M4933 2105 c0 -27 2 -38 4 -22 2 15 2 37 0 50 -2 12 -4 0 -4 -28z"/>
<path d="M4983 2110 c0 -25 2 -35 4 -22 2 12 2 32 0 45 -2 12 -4 2 -4 -23z"/>
<path d="M4010 2131 c0 -6 4 -13 10 -16 6 -3 7 1 4 9 -7 18 -14 21 -14 7z"/>
<path d="M4600 2131 c0 -6 4 -13 10 -16 6 -3 7 1 4 9 -7 18 -14 21 -14 7z"/>
<path d="M10283 2092 c-36 -54 -57 -96 -68 -132 -4 -15 7 -4 28 27 20 29 39
63 42 75 4 13 14 34 22 46 28 45 7 31 -24 -16z"/>
<path d="M2081 2110 c-1 -29 15 -50 39 -49 10 0 9 3 -5 8 -11 4 -23 21 -26 37
-6 28 -7 28 -8 4z"/>
<path d="M3232 2110 c0 -14 2 -19 5 -12 2 6 2 18 0 25 -3 6 -5 1 -5 -13z"/>
<path d="M3742 2110 c0 -14 2 -19 5 -12 2 6 2 18 0 25 -3 6 -5 1 -5 -13z"/>
<path d="M4231 2104 c0 -11 3 -14 6 -6 3 7 2 16 -1 19 -3 4 -6 -2 -5 -13z"/>
<path d="M2620 2106 c0 -2 7 -7 16 -10 8 -3 12 -2 9 4 -6 10 -25 14 -25 6z"/>
<path d="M2905 2099 c-4 -6 -5 -12 -2 -15 2 -3 7 2 10 11 7 17 1 20 -8 4z"/>
<path d="M2380 2091 c0 -6 -10 -16 -22 -21 -16 -6 -18 -9 -7 -9 19 -1 45 26
35 36 -3 3 -6 1 -6 -6z"/>
<path d="M3190 2091 c0 -6 -10 -16 -22 -21 -16 -6 -18 -9 -7 -9 19 -1 45 26
35 36 -3 3 -6 1 -6 -6z"/>
<path d="M3390 2094 c0 -17 27 -37 42 -31 8 4 7 6 -4 6 -9 1 -22 9 -27 19 -6
9 -11 12 -11 6z"/>
<path d="M3480 2094 c0 -17 27 -37 42 -31 8 4 7 6 -4 6 -9 1 -22 9 -27 19 -6
9 -11 12 -11 6z"/>
<path d="M3546 2083 c-6 -14 -5 -15 5 -6 7 7 10 15 7 18 -3 3 -9 -2 -12 -12z"/>
<path d="M3780 2094 c0 -17 27 -37 42 -31 8 4 7 6 -4 6 -9 1 -22 9 -27 19 -6
9 -11 12 -11 6z"/>
<path d="M3846 2083 c-6 -14 -5 -15 5 -6 7 7 10 15 7 18 -3 3 -9 -2 -12 -12z"/>
<path d="M2488 2068 c5 -5 16 -8 23 -6 8 3 3 7 -10 11 -17 4 -21 3 -13 -5z"/>
<path d="M4878 2068 c5 -5 16 -8 23 -6 8 3 3 7 -10 11 -17 4 -21 3 -13 -5z"/>
<path d="M2238 2063 c7 -3 16 -2 19 1 4 3 -2 6 -13 5 -11 0 -14 -3 -6 -6z"/>
<path d="M2608 2063 c7 -3 16 -2 19 1 4 3 -2 6 -13 5 -11 0 -14 -3 -6 -6z"/>
<path d="M2813 2063 c9 -2 23 -2 30 0 6 3 -1 5 -18 5 -16 0 -22 -2 -12 -5z"/>
<path d="M3038 2063 c6 -2 18 -2 25 0 6 3 1 5 -13 5 -14 0 -19 -2 -12 -5z"/>
<path d="M3268 2063 c7 -3 16 -2 19 1 4 3 -2 6 -13 5 -11 0 -14 -3 -6 -6z"/>
<path d="M4028 2063 c6 -2 18 -2 25 0 6 3 1 5 -13 5 -14 0 -19 -2 -12 -5z"/>
<path d="M4188 2063 c7 -3 16 -2 19 1 4 3 -2 6 -13 5 -11 0 -14 -3 -6 -6z"/>
<path d="M4618 2063 c6 -2 18 -2 25 0 6 3 1 5 -13 5 -14 0 -19 -2 -12 -5z"/>
<path d="M4778 2063 c7 -3 16 -2 19 1 4 3 -2 6 -13 5 -11 0 -14 -3 -6 -6z"/>
<path d="M7920 2038 c0 -4 4 -18 9 -31 12 -31 3 -42 -16 -19 -13 15 -14 14 -8
-13 10 -43 14 -44 46 -5 30 36 36 50 19 50 -5 0 -10 -5 -10 -11 0 -6 -9 -1
-20 12 -10 13 -19 21 -20 17z"/>
<path d="M11333 2010 c12 -76 35 -148 66 -203 18 -31 35 -57 37 -57 2 0 4 39
4 88 l0 87 -56 60 -57 60 6 -35z"/>
<path d="M9880 2011 c0 -5 -35 -53 -77 -108 -66 -83 -170 -228 -196 -270 -5
-8 -3 -11 5 -8 7 3 43 46 78 96 36 51 79 108 95 128 66 79 120 171 101 171 -3
0 -6 -4 -6 -9z"/>
<path d="M8663 2003 c9 -2 23 -2 30 0 6 3 -1 5 -18 5 -16 0 -22 -2 -12 -5z"/>
<path d="M6720 1900 l0 -80 69 0 69 0 4 68 c2 37 2 73 0 80 -3 8 -27 12 -73
12 l-69 0 0 -80z"/>
<path d="M6998 1923 c7 -3 16 -2 19 1 4 3 -2 6 -13 5 -11 0 -14 -3 -6 -6z"/>
<path d="M10160 1878 c-19 -29 -53 -72 -74 -97 -41 -47 -129 -165 -160 -213
-18 -27 -18 -28 3 -28 14 0 30 14 47 43 15 23 30 44 33 47 12 10 49 67 70 108
12 24 28 45 36 48 20 8 94 120 86 132 -4 6 -21 -11 -41 -40z"/>
<path d="M8581 1781 c-14 -4 -26 -12 -28 -18 -3 -9 4 -9 29 -2 18 5 34 9 35 9
2 0 3 5 3 10 0 11 -4 11 -39 1z"/>
<path d="M6913 1773 c-7 -3 -13 -11 -13 -18 0 -7 6 -16 13 -18 10 -4 10 -6 0
-6 -16 -1 -17 -47 -3 -56 6 -4 8 -15 5 -26 -7 -22 14 -244 26 -274 4 -11 8 52
7 145 0 170 -13 261 -35 253z"/>
<path d="M3369 1683 c-3 -16 -1 -44 2 -63 5 -28 7 -23 8 28 1 65 -4 82 -10 35z"/>
<path d="M4473 1650 c0 -30 2 -43 4 -27 2 15 2 39 0 55 -2 15 -4 2 -4 -28z"/>
<path d="M5384 1643 c1 -44 5 -58 16 -59 8 0 10 1 3 3 -7 2 -14 28 -16 59 l-4
54 1 -57z"/>
<path d="M3960 1669 c0 -5 5 -7 10 -4 6 3 10 8 10 11 0 2 -4 4 -10 4 -5 0 -10
-5 -10 -11z"/>
<path d="M2195 1659 c-4 -6 -5 -12 -2 -15 2 -3 7 2 10 11 7 17 1 20 -8 4z"/>
<path d="M2483 1625 c0 -27 2 -38 4 -22 2 15 2 37 0 50 -2 12 -4 0 -4 -28z"/>
<path d="M2753 1610 c0 -36 2 -50 4 -32 2 17 2 47 0 65 -2 17 -4 3 -4 -33z"/>
<path d="M3033 1630 c0 -25 2 -35 4 -22 2 12 2 32 0 45 -2 12 -4 2 -4 -23z"/>
<path d="M3136 1657 c3 -10 9 -15 12 -12 3 3 0 11 -7 18 -10 9 -11 8 -5 -6z"/>
<path d="M3585 1659 c-4 -6 -5 -12 -2 -15 2 -3 7 2 10 11 7 17 1 20 -8 4z"/>
<path d="M4193 1630 c0 -25 2 -35 4 -22 2 12 2 32 0 45 -2 12 -4 2 -4 -23z"/>
<path d="M4250 1622 l5 -47 3 39 c2 21 0 42 -5 47 -4 4 -6 -13 -3 -39z"/>
<path d="M4793 1625 c0 -27 2 -38 4 -22 2 15 2 37 0 50 -2 12 -4 0 -4 -28z"/>
<path d="M5513 1630 c0 -25 2 -35 4 -22 2 12 2 32 0 45 -2 12 -4 2 -4 -23z"/>
<path d="M6999 1653 c-1 -10 -2 -25 -3 -33 -1 -8 -5 -21 -9 -27 -15 -23 -21
-413 -8 -549 13 -141 38 -307 51 -339 9 -22 26 -87 34 -125 3 -14 12 -50 20
-80 l14 -55 2 110 c8 449 1 657 -29 875 -6 41 -13 96 -16 122 -4 29 -11 47
-18 45 -7 -1 -13 9 -14 23 0 14 -1 31 -2 38 -2 19 -21 14 -22 -5z"/>
<path d="M8360 1660 c0 -5 5 -10 10 -10 6 0 10 5 10 10 0 6 -4 10 -10 10 -5 0
-10 -4 -10 -10z"/>
<path d="M4900 1651 c0 -6 4 -13 10 -16 6 -3 7 1 4 9 -7 18 -14 21 -14 7z"/>
<path d="M2372 1630 c0 -14 2 -19 5 -12 2 6 2 18 0 25 -3 6 -5 1 -5 -13z"/>
<path d="M3203 1615 c0 -22 2 -30 4 -17 2 12 2 30 0 40 -3 9 -5 -1 -4 -23z"/>
<path d="M3412 1630 c0 -14 2 -19 5 -12 2 6 2 18 0 25 -3 6 -5 1 -5 -13z"/>
<path d="M5102 1630 c0 -14 2 -19 5 -12 2 6 2 18 0 25 -3 6 -5 1 -5 -13z"/>
<path d="M2900 1626 c0 -2 7 -7 16 -10 8 -3 12 -2 9 4 -6 10 -25 14 -25 6z"/>
<path d="M3850 1626 c0 -2 7 -7 16 -10 8 -3 12 -2 9 4 -6 10 -25 14 -25 6z"/>
<path d="M2190 1614 c0 -17 27 -37 42 -31 8 4 7 6 -4 6 -9 1 -22 9 -27 19 -6
9 -11 12 -11 6z"/>
<path d="M2256 1603 c-6 -14 -5 -15 5 -6 7 7 10 15 7 18 -3 3 -9 -2 -12 -12z"/>
<path d="M3580 1614 c0 -17 27 -37 42 -31 8 4 7 6 -4 6 -9 1 -22 9 -27 19 -6
9 -11 12 -11 6z"/>
<path d="M3646 1603 c-6 -14 -5 -15 5 -6 7 7 10 15 7 18 -3 3 -9 -2 -12 -12z"/>
<path d="M4081 1604 c0 -11 3 -14 6 -6 3 7 2 16 -1 19 -3 4 -6 -2 -5 -13z"/>
<path d="M3460 1594 c-17 -9 -20 -14 -9 -14 9 0 22 7 29 15 15 18 13 18 -20
-1z"/>
<path d="M2978 1588 c5 -5 16 -8 23 -6 8 3 3 7 -10 11 -17 4 -21 3 -13 -5z"/>
<path d="M3537 1589 c7 -7 15 -10 18 -7 3 3 -2 9 -12 12 -14 6 -15 5 -6 -5z"/>
<path d="M3978 1588 c5 -5 16 -8 23 -6 8 3 3 7 -10 11 -17 4 -21 3 -13 -5z"/>
<path d="M5217 1589 c7 -7 15 -10 18 -7 3 3 -2 9 -12 12 -14 6 -15 5 -6 -5z"/>
<path d="M5458 1588 c5 -5 16 -8 23 -6 8 3 3 7 -10 11 -17 4 -21 3 -13 -5z"/>
<path d="M2108 1583 c12 -2 32 -2 45 0 12 2 2 4 -23 4 -25 0 -35 -2 -22 -4z"/>
<path d="M2408 1583 c7 -3 16 -2 19 1 4 3 -2 6 -13 5 -11 0 -14 -3 -6 -6z"/>
<path d="M2788 1583 c7 -3 16 -2 19 1 4 3 -2 6 -13 5 -11 0 -14 -3 -6 -6z"/>
<path d="M2888 1583 c7 -3 16 -2 19 1 4 3 -2 6 -13 5 -11 0 -14 -3 -6 -6z"/>
<path d="M3838 1583 c7 -3 16 -2 19 1 4 3 -2 6 -13 5 -11 0 -14 -3 -6 -6z"/>
<path d="M4388 1583 c6 -2 18 -2 25 0 6 3 1 5 -13 5 -14 0 -19 -2 -12 -5z"/>
<path d="M4618 1583 c7 -3 16 -2 19 1 4 3 -2 6 -13 5 -11 0 -14 -3 -6 -6z"/>
<path d="M4708 1583 c7 -3 16 -2 19 1 4 3 -2 6 -13 5 -11 0 -14 -3 -6 -6z"/>
<path d="M4918 1583 c6 -2 18 -2 25 0 6 3 1 5 -13 5 -14 0 -19 -2 -12 -5z"/>
<path d="M5028 1583 c6 -2 18 -2 25 0 6 3 1 5 -13 5 -14 0 -19 -2 -12 -5z"/>
<path d="M5138 1583 c7 -3 16 -2 19 1 4 3 -2 6 -13 5 -11 0 -14 -3 -6 -6z"/>
<path d="M5298 1583 c7 -3 16 -2 19 1 4 3 -2 6 -13 5 -11 0 -14 -3 -6 -6z"/>
<path d="M8252 1447 c6 -17 48 -22 48 -5 0 8 -12 15 -26 16 -17 1 -24 -2 -22
-11z"/>
<path d="M2263 1370 c0 -41 2 -58 4 -37 2 20 2 54 0 75 -2 20 -4 3 -4 -38z"/>
<path d="M3704 1376 c1 -53 5 -70 16 -73 11 -3 11 -2 3 4 -7 5 -14 38 -16 73
l-4 65 1 -69z"/>
<path d="M3194 1371 c1 -48 5 -65 16 -68 11 -3 11 -2 3 4 -6 5 -14 35 -16 68
l-4 60 1 -64z"/>
<path d="M3304 1363 c1 -44 5 -58 16 -59 8 0 10 1 3 3 -7 2 -14 28 -16 59 l-4
54 1 -57z"/>
<path d="M8886 1358 c-8 -29 -18 -66 -22 -83 -4 -16 -18 -51 -31 -77 l-23 -48
32 0 c18 0 42 -3 53 -6 19 -5 20 0 20 130 0 75 -3 136 -7 136 -4 0 -14 -24
-22 -52z"/>
<path d="M2313 1350 c0 -25 2 -35 4 -22 2 12 2 32 0 45 -2 12 -4 2 -4 -23z"/>
<path d="M2473 1350 c0 -25 2 -35 4 -22 2 12 2 32 0 45 -2 12 -4 2 -4 -23z"/>
<path d="M2803 1350 c0 -25 2 -35 4 -22 2 12 2 32 0 45 -2 12 -4 2 -4 -23z"/>
<path d="M2915 1379 c-4 -6 -5 -12 -2 -15 2 -3 7 2 10 11 7 17 1 20 -8 4z"/>
<path d="M3253 1350 c0 -25 2 -35 4 -22 2 12 2 32 0 45 -2 12 -4 2 -4 -23z"/>
<path d="M3763 1355 c0 -22 2 -30 4 -17 2 12 2 30 0 40 -3 9 -5 -1 -4 -23z"/>
<path d="M4313 1345 c0 -27 2 -38 4 -22 2 15 2 37 0 50 -2 12 -4 0 -4 -28z"/>
<path d="M4563 1350 c0 -25 2 -35 4 -22 2 12 2 32 0 45 -2 12 -4 2 -4 -23z"/>
<path d="M4723 1350 c0 -25 2 -35 4 -22 2 12 2 32 0 45 -2 12 -4 2 -4 -23z"/>
<path d="M5273 1330 c0 -36 2 -50 4 -32 2 17 2 47 0 65 -2 17 -4 3 -4 -33z"/>
<path d="M5853 1345 c0 -27 2 -38 4 -22 2 15 2 37 0 50 -2 12 -4 0 -4 -28z"/>
<path d="M6013 1345 c0 -27 2 -38 4 -22 2 15 2 37 0 50 -2 12 -4 0 -4 -28z"/>
<path d="M8265 1380 c-16 -7 -17 -9 -3 -9 9 -1 20 4 23 9 7 11 7 11 -20 0z"/>
<path d="M4160 1371 c0 -6 4 -13 10 -16 6 -3 7 1 4 9 -7 18 -14 21 -14 7z"/>
<path d="M8155 1365 l-30 -14 40 2 c22 2 49 8 60 15 18 10 18 11 -10 11 -16 0
-43 -6 -60 -14z"/>
<path d="M2432 1350 c0 -14 2 -19 5 -12 2 6 2 18 0 25 -3 6 -5 1 -5 -13z"/>
<path d="M4122 1340 c0 -19 2 -27 5 -17 2 9 2 25 0 35 -3 9 -5 1 -5 -18z"/>
<path d="M4602 1350 c0 -14 2 -19 5 -12 2 6 2 18 0 25 -3 6 -5 1 -5 -13z"/>
<path d="M5652 1340 c0 -19 2 -27 5 -17 2 9 2 25 0 35 -3 9 -5 1 -5 -18z"/>
<path d="M6727 1359 c7 -7 24 -8 54 -1 l44 10 -54 1 c-40 1 -52 -2 -44 -10z"/>
<path d="M8374 1361 c4 -6 1 -11 -8 -11 -9 0 -16 -5 -16 -11 0 -6 10 -9 23 -7
24 3 30 29 8 36 -8 3 -11 0 -7 -7z"/>
<path d="M3661 1344 c0 -11 3 -14 6 -6 3 7 2 16 -1 19 -3 4 -6 -2 -5 -13z"/>
<path d="M2085 1339 c-4 -6 -5 -12 -2 -15 2 -3 7 2 10 11 7 17 1 20 -8 4z"/>
<path d="M2550 1346 c0 -2 7 -7 16 -10 8 -3 12 -2 9 4 -6 10 -25 14 -25 6z"/>
<path d="M5095 1339 c-4 -6 -5 -12 -2 -15 2 -3 7 2 10 11 7 17 1 20 -8 4z"/>
<path d="M5745 1339 c-4 -6 -5 -12 -2 -15 2 -3 7 2 10 11 7 17 1 20 -8 4z"/>
<path d="M8421 1338 c-1 -15 -11 -18 -60 -18 -48 0 -64 -4 -87 -25 -100 -86
-99 -85 -79 -85 11 0 35 9 53 20 39 24 42 24 42 5 0 -8 -5 -15 -10 -15 -6 0
-16 -11 -22 -25 -12 -26 -34 -29 -57 -7 -12 11 -18 9 -37 -12 -31 -32 -30 -51
1 -78 28 -24 32 -38 10 -38 -9 0 -12 -6 -8 -17 5 -12 2 -15 -10 -10 -20 7 -24
-17 -5 -29 7 -4 8 -3 4 4 -11 17 9 15 24 -3 10 -12 10 -18 0 -30 -10 -13 -9
-15 11 -16 103 -6 162 20 134 58 -8 10 -15 25 -15 34 0 11 -12 16 -42 18 -24
1 -47 6 -53 12 -6 6 8 7 38 3 40 -6 47 -4 47 10 0 9 16 26 35 37 19 12 35 27
35 35 0 8 8 14 19 14 26 0 16 45 -17 71 -19 15 -23 22 -14 31 9 9 17 7 34 -8
13 -11 37 -21 53 -22 17 -1 25 1 18 4 -9 4 -7 11 7 26 14 15 26 19 45 14 24
-6 26 -5 20 16 -10 30 -7 29 -46 18 -47 -14 -57 -13 -62 8 -4 16 -5 16 -6 0z
m-124 -154 c-3 -3 -12 -4 -19 -1 -8 3 -5 6 6 6 11 1 17 -2 13 -5z m-17 -85 c0
-6 -4 -7 -10 -4 -5 3 -10 11 -10 16 0 6 5 7 10 4 6 -3 10 -11 10 -16z"/>
<path d="M2910 1331 c0 -6 4 -13 10 -16 6 -3 7 1 4 9 -7 18 -14 21 -14 7z"/>
<path d="M4381 1324 c0 -11 3 -14 6 -6 3 7 2 16 -1 19 -3 4 -6 -2 -5 -13z"/>
<path d="M4650 1314 c-17 -9 -20 -14 -9 -14 9 0 22 7 29 15 15 18 13 18 -20
-1z"/>
<path d="M4007 1309 c7 -7 15 -10 18 -7 3 3 -2 9 -12 12 -14 6 -15 5 -6 -5z"/>
<path d="M4068 1308 c5 -5 16 -8 23 -6 8 3 3 7 -10 11 -17 4 -21 3 -13 -5z"/>
<path d="M4507 1309 c7 -7 15 -10 18 -7 3 3 -2 9 -12 12 -14 6 -15 5 -6 -5z"/>
<path d="M5598 1308 c5 -5 16 -8 23 -6 8 3 3 7 -10 11 -17 4 -21 3 -13 -5z"/>
<path d="M8111 1311 c-8 -5 -10 -14 -5 -22 4 -7 7 -27 6 -44 -2 -27 0 -28 12
-12 7 9 17 17 22 17 5 0 17 12 27 25 17 24 17 25 -3 25 -11 0 -20 5 -20 10 0
12 -20 13 -39 1z"/>
<path d="M8250 1300 c-9 -16 -8 -18 5 -14 8 4 15 12 15 20 0 20 -7 17 -20 -6z"/>
<path d="M2218 1303 c7 -3 16 -2 19 1 4 3 -2 6 -13 5 -11 0 -14 -3 -6 -6z"/>
<path d="M2538 1303 c7 -3 16 -2 19 1 4 3 -2 6 -13 5 -11 0 -14 -3 -6 -6z"/>
<path d="M2688 1303 c7 -3 16 -2 19 1 4 3 -2 6 -13 5 -11 0 -14 -3 -6 -6z"/>
<path d="M3108 1303 c6 -2 18 -2 25 0 6 3 1 5 -13 5 -14 0 -19 -2 -12 -5z"/>
<path d="M3618 1303 c7 -3 16 -2 19 1 4 3 -2 6 -13 5 -11 0 -14 -3 -6 -6z"/>
<path d="M4178 1303 c6 -2 18 -2 25 0 6 3 1 5 -13 5 -14 0 -19 -2 -12 -5z"/>
<path d="M4858 1303 c6 -2 18 -2 25 0 6 3 1 5 -13 5 -14 0 -19 -2 -12 -5z"/>
<path d="M5018 1303 c7 -3 16 -2 19 1 4 3 -2 6 -13 5 -11 0 -14 -3 -6 -6z"/>
<path d="M5228 1303 c7 -3 16 -2 19 1 4 3 -2 6 -13 5 -11 0 -14 -3 -6 -6z"/>
<path d="M5458 1303 c6 -2 18 -2 25 0 6 3 1 5 -13 5 -14 0 -19 -2 -12 -5z"/>
<path d="M8468 1220 c-24 -23 -23 -37 8 -65 18 -16 34 -23 48 -19 29 7 51 -28
35 -58 -9 -17 -13 -18 -21 -7 -8 11 -9 10 -4 -3 3 -10 1 -20 -4 -23 -6 -3 -9
-28 -8 -56 2 -46 10 -60 22 -41 3 5 19 9 36 10 37 1 53 10 46 27 -4 10 16 15
85 21 49 3 89 11 89 16 0 5 -7 22 -15 38 -14 27 -17 28 -46 18 -16 -6 -28 -15
-26 -22 3 -7 -13 -12 -44 -13 -45 -2 -66 9 -36 20 10 4 10 7 0 18 -10 9 -13
10 -13 1 0 -15 -10 -15 -30 -2 -13 9 -13 12 1 23 24 18 33 66 14 73 -16 6 -21
29 -7 37 4 2 0 2 -8 0 -41 -12 -70 -11 -70 1 0 21 -33 25 -52 6z m7 -30 c3 -5
1 -10 -4 -10 -6 0 -11 5 -11 10 0 6 2 10 4 10 3 0 8 -4 11 -10z m111 -14 c10
-8 16 -17 12 -21 -8 -8 -48 13 -48 25 0 14 13 12 36 -4z m54 -156 c0 -5 -7
-10 -16 -10 -8 0 -12 5 -9 10 3 6 10 10 16 10 5 0 9 -4 9 -10z"/>
<path d="M5333 1090 c0 -41 2 -58 4 -37 2 20 2 54 0 75 -2 20 -4 3 -4 -38z"/>
<path d="M8414 1149 c-8 -14 18 -31 30 -19 9 9 0 30 -14 30 -5 0 -12 -5 -16
-11z"/>
<path d="M4949 1123 c-3 -16 -1 -44 2 -63 5 -28 7 -23 8 28 1 65 -4 82 -10 35z"/>
<path d="M3564 1083 c1 -44 5 -58 16 -59 8 0 10 1 3 3 -7 2 -14 28 -16 59 l-4
54 1 -57z"/>
<path d="M4300 1109 c0 -5 5 -7 10 -4 6 3 10 8 10 11 0 2 -4 4 -10 4 -5 0 -10
-5 -10 -11z"/>
<path d="M5640 1109 c0 -5 5 -7 10 -4 6 3 10 8 10 11 0 2 -4 4 -10 4 -5 0 -10
-5 -10 -11z"/>
<path d="M2146 1097 c3 -10 9 -15 12 -12 3 3 0 11 -7 18 -10 9 -11 8 -5 -6z"/>
<path d="M2523 1065 c0 -27 2 -38 4 -22 2 15 2 37 0 50 -2 12 -4 0 -4 -28z"/>
<path d="M2953 1065 c0 -27 2 -38 4 -22 2 15 2 37 0 50 -2 12 -4 0 -4 -28z"/>
<path d="M3113 1065 c0 -27 2 -38 4 -22 2 15 2 37 0 50 -2 12 -4 0 -4 -28z"/>
<path d="M3443 1075 c0 -22 2 -30 4 -17 2 12 2 30 0 40 -3 9 -5 -1 -4 -23z"/>
<path d="M4153 1070 c0 -25 2 -35 4 -22 2 12 2 32 0 45 -2 12 -4 2 -4 -23z"/>
<path d="M4473 1065 c0 -27 2 -38 4 -22 2 15 2 37 0 50 -2 12 -4 0 -4 -28z"/>
<path d="M4653 1050 c0 -36 2 -50 4 -32 2 17 2 47 0 65 -2 17 -4 3 -4 -33z"/>
<path d="M4833 1065 c0 -27 2 -38 4 -22 2 15 2 37 0 50 -2 12 -4 0 -4 -28z"/>
<path d="M5815 1099 c-4 -6 -5 -12 -2 -15 2 -3 7 2 10 11 7 17 1 20 -8 4z"/>
<path d="M6013 1070 c0 -25 2 -35 4 -22 2 12 2 32 0 45 -2 12 -4 2 -4 -23z"/>
<path d="M8650 1095 c0 -8 7 -15 15 -15 8 0 15 4 15 9 0 5 -7 11 -15 15 -9 3
-15 0 -15 -9z"/>
<path d="M2213 1055 c0 -22 2 -30 4 -17 2 12 2 30 0 40 -3 9 -5 -1 -4 -23z"/>
<path d="M2842 1070 c0 -14 2 -19 5 -12 2 6 2 18 0 25 -3 6 -5 1 -5 -13z"/>
<path d="M4192 1070 c0 -14 2 -19 5 -12 2 6 2 18 0 25 -3 6 -5 1 -5 -13z"/>
<path d="M5103 1055 c0 -22 2 -30 4 -17 2 12 2 30 0 40 -3 9 -5 -1 -4 -23z"/>
<path d="M2255 1059 c-4 -6 -5 -12 -2 -15 2 -3 7 2 10 11 7 17 1 20 -8 4z"/>
<path d="M2730 1066 c0 -2 7 -7 16 -10 8 -3 12 -2 9 4 -6 10 -25 14 -25 6z"/>
<path d="M5375 1059 c-4 -6 -5 -12 -2 -15 2 -3 7 2 10 11 7 17 1 20 -8 4z"/>
<path d="M5705 1059 c-4 -6 -5 -12 -2 -15 2 -3 7 2 10 11 7 17 1 20 -8 4z"/>
<path d="M8846 1050 c-10 -10 -15 -24 -11 -30 4 -7 2 -23 -6 -36 -16 -31 -6
-41 49 -50 l42 -7 0 72 c0 71 0 71 -27 70 -16 0 -36 -9 -47 -19z"/>
<path d="M3331 1044 c0 -11 3 -14 6 -6 3 7 2 16 -1 19 -3 4 -6 -2 -5 -13z"/>
<path d="M4720 1051 c0 -6 -10 -16 -22 -21 -16 -6 -18 -9 -7 -9 19 -1 45 26
35 36 -3 3 -6 1 -6 -6z"/>
<path d="M5810 1054 c0 -17 27 -37 42 -31 8 4 7 6 -4 6 -9 1 -22 9 -27 19 -6
9 -11 12 -11 6z"/>
<path d="M4318 1028 c5 -5 16 -8 23 -6 8 3 3 7 -10 11 -17 4 -21 3 -13 -5z"/>
<path d="M4778 1028 c5 -5 16 -8 23 -6 8 3 3 7 -10 11 -17 4 -21 3 -13 -5z"/>
<path d="M5048 1028 c5 -5 16 -8 23 -6 8 3 3 7 -10 11 -17 4 -21 3 -13 -5z"/>
<path d="M2438 1023 c7 -3 16 -2 19 1 4 3 -2 6 -13 5 -11 0 -14 -3 -6 -6z"/>
<path d="M2618 1023 c6 -2 18 -2 25 0 6 3 1 5 -13 5 -14 0 -19 -2 -12 -5z"/>
<path d="M2718 1023 c7 -3 16 -2 19 1 4 3 -2 6 -13 5 -11 0 -14 -3 -6 -6z"/>
<path d="M2878 1023 c7 -3 16 -2 19 1 4 3 -2 6 -13 5 -11 0 -14 -3 -6 -6z"/>
<path d="M3758 1023 c7 -3 16 -2 19 1 4 3 -2 6 -13 5 -11 0 -14 -3 -6 -6z"/>
<path d="M3958 1023 c7 -3 16 -2 19 1 4 3 -2 6 -13 5 -11 0 -14 -3 -6 -6z"/>
<path d="M4228 1023 c7 -3 16 -2 19 1 4 3 -2 6 -13 5 -11 0 -14 -3 -6 -6z"/>
<path d="M4578 1023 c7 -3 16 -2 19 1 4 3 -2 6 -13 5 -11 0 -14 -3 -6 -6z"/>
<path d="M5288 1023 c7 -3 16 -2 19 1 4 3 -2 6 -13 5 -11 0 -14 -3 -6 -6z"/>
<path d="M5518 1023 c7 -3 16 -2 19 1 4 3 -2 6 -13 5 -11 0 -14 -3 -6 -6z"/>
<path d="M5938 1023 c7 -3 16 -2 19 1 4 3 -2 6 -13 5 -11 0 -14 -3 -6 -6z"/>
<path d="M6108 1023 c6 -2 18 -2 25 0 6 3 1 5 -13 5 -14 0 -19 -2 -12 -5z"/>
<path d="M8320 969 c0 -5 5 -7 10 -4 6 3 10 8 10 11 0 2 -4 4 -10 4 -5 0 -10
-5 -10 -11z"/>
<path d="M4083 845 c0 -22 2 -30 4 -17 2 12 2 30 0 40 -3 9 -5 -1 -4 -23z"/>
<path d="M4193 873 c15 -2 39 -2 55 0 15 2 2 4 -28 4 -30 0 -43 -2 -27 -4z"/>
<path d="M4913 810 c0 -36 2 -50 4 -32 2 17 2 47 0 65 -2 17 -4 3 -4 -33z"/>
<path d="M2894 803 c1 -44 5 -58 16 -59 8 0 10 1 3 3 -7 2 -14 28 -16 59 l-4
54 1 -57z"/>
<path d="M2313 790 c0 -25 2 -35 4 -22 2 12 2 32 0 45 -2 12 -4 2 -4 -23z"/>
<path d="M2733 790 c0 -25 2 -35 4 -22 2 12 2 32 0 45 -2 12 -4 2 -4 -23z"/>
<path d="M3153 790 c0 -25 2 -35 4 -22 2 12 2 32 0 45 -2 12 -4 2 -4 -23z"/>
<path d="M3523 785 c0 -27 2 -38 4 -22 2 15 2 37 0 50 -2 12 -4 0 -4 -28z"/>
<path d="M3810 782 l5 -47 3 39 c2 21 0 42 -5 47 -4 4 -6 -13 -3 -39z"/>
<path d="M3973 790 c0 -25 2 -35 4 -22 2 12 2 32 0 45 -2 12 -4 2 -4 -23z"/>
<path d="M4393 785 c0 -27 2 -38 4 -22 2 15 2 37 0 50 -2 12 -4 0 -4 -28z"/>
<path d="M4563 770 c0 -36 2 -50 4 -32 2 17 2 47 0 65 -2 17 -4 3 -4 -33z"/>
<path d="M4793 790 c0 -25 2 -35 4 -22 2 12 2 32 0 45 -2 12 -4 2 -4 -23z"/>
<path d="M4863 790 c0 -25 2 -35 4 -22 2 12 2 32 0 45 -2 12 -4 2 -4 -23z"/>
<path d="M5093 790 c0 -25 2 -35 4 -22 2 12 2 32 0 45 -2 12 -4 2 -4 -23z"/>
<path d="M5683 790 c0 -25 2 -35 4 -22 2 12 2 32 0 45 -2 12 -4 2 -4 -23z"/>
<path d="M2162 790 c0 -14 2 -19 5 -12 2 6 2 18 0 25 -3 6 -5 1 -5 -13z"/>
<path d="M2552 790 c0 -14 2 -19 5 -12 2 6 2 18 0 25 -3 6 -5 1 -5 -13z"/>
<path d="M2842 780 c0 -19 2 -27 5 -17 2 9 2 25 0 35 -3 9 -5 1 -5 -18z"/>
<path d="M3272 790 c0 -14 2 -19 5 -12 2 6 2 18 0 25 -3 6 -5 1 -5 -13z"/>
<path d="M3852 790 c0 -14 2 -19 5 -12 2 6 2 18 0 25 -3 6 -5 1 -5 -13z"/>
<path d="M5453 775 c0 -22 2 -30 4 -17 2 12 2 30 0 40 -3 9 -5 -1 -4 -23z"/>
<path d="M5491 790 c-1 -29 15 -50 39 -49 10 0 9 3 -5 8 -11 4 -23 21 -26 37
-6 28 -7 28 -8 4z"/>
<path d="M5722 790 c0 -14 2 -19 5 -12 2 6 2 18 0 25 -3 6 -5 1 -5 -13z"/>
<path d="M2410 786 c0 -2 7 -7 16 -10 8 -3 12 -2 9 4 -6 10 -25 14 -25 6z"/>
<path d="M4980 771 c0 -6 -10 -16 -22 -21 -16 -6 -18 -9 -7 -9 19 -1 45 26 35
36 -3 3 -6 1 -6 -6z"/>
<path d="M3900 754 c-17 -9 -20 -14 -9 -14 9 0 22 7 29 15 15 18 13 18 -20 -1z"/>
<path d="M2788 748 c5 -5 16 -8 23 -6 8 3 3 7 -10 11 -17 4 -21 3 -13 -5z"/>
<path d="M5038 748 c5 -5 16 -8 23 -6 8 3 3 7 -10 11 -17 4 -21 3 -13 -5z"/>
<path d="M5398 748 c5 -5 16 -8 23 -6 8 3 3 7 -10 11 -17 4 -21 3 -13 -5z"/>
<path d="M5628 748 c5 -5 16 -8 23 -6 8 3 3 7 -10 11 -17 4 -21 3 -13 -5z"/>
<path d="M2238 743 c7 -3 16 -2 19 1 4 3 -2 6 -13 5 -11 0 -14 -3 -6 -6z"/>
<path d="M2398 743 c7 -3 16 -2 19 1 4 3 -2 6 -13 5 -11 0 -14 -3 -6 -6z"/>
<path d="M2668 743 c7 -3 16 -2 19 1 4 3 -2 6 -13 5 -11 0 -14 -3 -6 -6z"/>
<path d="M3018 743 c7 -3 16 -2 19 1 4 3 -2 6 -13 5 -11 0 -14 -3 -6 -6z"/>
<path d="M3328 743 c7 -3 16 -2 19 1 4 3 -2 6 -13 5 -11 0 -14 -3 -6 -6z"/>
<path d="M4318 743 c7 -3 16 -2 19 1 4 3 -2 6 -13 5 -11 0 -14 -3 -6 -6z"/>
<path d="M4598 743 c7 -3 16 -2 19 1 4 3 -2 6 -13 5 -11 0 -14 -3 -6 -6z"/>
<path d="M4708 743 c7 -3 16 -2 19 1 4 3 -2 6 -13 5 -11 0 -14 -3 -6 -6z"/>
<path d="M5158 743 c7 -3 16 -2 19 1 4 3 -2 6 -13 5 -11 0 -14 -3 -6 -6z"/>
<path d="M5318 743 c7 -3 16 -2 19 1 4 3 -2 6 -13 5 -11 0 -14 -3 -6 -6z"/>
<path d="M5758 743 c7 -3 16 -2 19 1 4 3 -2 6 -13 5 -11 0 -14 -3 -6 -6z"/>
<path d="M5773 530 c0 -41 2 -58 4 -37 2 20 2 54 0 75 -2 20 -4 3 -4 -38z"/>
<path d="M2304 531 c1 -48 5 -65 16 -68 11 -3 11 -2 3 4 -6 5 -14 35 -16 68
l-4 60 1 -64z"/>
<path d="M2593 530 c0 -30 2 -43 4 -27 2 15 2 39 0 55 -2 15 -4 2 -4 -28z"/>
<path d="M5283 530 c0 -30 2 -43 4 -27 2 15 2 39 0 55 -2 15 -4 2 -4 -28z"/>
<path d="M2760 549 c0 -5 5 -7 10 -4 6 3 10 8 10 11 0 2 -4 4 -10 4 -5 0 -10
-5 -10 -11z"/>
<path d="M4680 549 c0 -5 5 -7 10 -4 6 3 10 8 10 11 0 2 -4 4 -10 4 -5 0 -10
-5 -10 -11z"/>
<path d="M5930 549 c0 -5 5 -7 10 -4 6 3 10 8 10 11 0 2 -4 4 -10 4 -5 0 -10
-5 -10 -11z"/>
<path d="M2473 490 c0 -36 2 -50 4 -32 2 17 2 47 0 65 -2 17 -4 3 -4 -33z"/>
<path d="M2833 515 c0 -22 2 -30 4 -17 2 12 2 30 0 40 -3 9 -5 -1 -4 -23z"/>
<path d="M3353 510 c0 -25 2 -35 4 -22 2 12 2 32 0 45 -2 12 -4 2 -4 -23z"/>
<path d="M3493 510 c0 -25 2 -35 4 -22 2 12 2 32 0 45 -2 12 -4 2 -4 -23z"/>
<path d="M3773 505 c0 -27 2 -38 4 -22 2 15 2 37 0 50 -2 12 -4 0 -4 -28z"/>
<path d="M4573 510 c0 -25 2 -35 4 -22 2 12 2 32 0 45 -2 12 -4 2 -4 -23z"/>
<path d="M4913 505 c0 -27 2 -38 4 -22 2 15 2 37 0 50 -2 12 -4 0 -4 -28z"/>
<path d="M5613 510 c0 -25 2 -35 4 -22 2 12 2 32 0 45 -2 12 -4 2 -4 -23z"/>
<path d="M3161 510 c-1 -29 15 -50 39 -49 10 0 9 3 -5 8 -11 4 -23 21 -26 37
-6 28 -7 28 -8 4z"/>
<path d="M3392 510 c0 -14 2 -19 5 -12 2 6 2 18 0 25 -3 6 -5 1 -5 -13z"/>
<path d="M4042 510 c0 -14 2 -19 5 -12 2 6 2 18 0 25 -3 6 -5 1 -5 -13z"/>
<path d="M6102 510 c0 -14 2 -19 5 -12 2 6 2 18 0 25 -3 6 -5 1 -5 -13z"/>
<path d="M3072 495 c0 -16 2 -22 5 -12 2 9 2 23 0 30 -3 6 -5 -1 -5 -18z"/>
<path d="M3662 495 c0 -16 2 -22 5 -12 2 9 2 23 0 30 -3 6 -5 -1 -5 -18z"/>
<path d="M2655 499 c-4 -6 -5 -12 -2 -15 2 -3 7 2 10 11 7 17 1 20 -8 4z"/>
<path d="M3850 506 c0 -2 7 -7 16 -10 8 -3 12 -2 9 4 -6 10 -25 14 -25 6z"/>
<path d="M4151 484 c0 -11 3 -14 6 -6 3 7 2 16 -1 19 -3 4 -6 -2 -5 -13z"/>
<path d="M5501 484 c0 -11 3 -14 6 -6 3 7 2 16 -1 19 -3 4 -6 -2 -5 -13z"/>
<path d="M2106 477 c3 -10 9 -15 12 -12 3 3 0 11 -7 18 -10 9 -11 8 -5 -6z"/>
<path d="M2778 468 c5 -5 16 -8 23 -6 8 3 3 7 -10 11 -17 4 -21 3 -13 -5z"/>
<path d="M3298 468 c5 -5 16 -8 23 -6 8 3 3 7 -10 11 -17 4 -21 3 -13 -5z"/>
<path d="M3718 468 c5 -5 16 -8 23 -6 8 3 3 7 -10 11 -17 4 -21 3 -13 -5z"/>
<path d="M4698 468 c5 -5 16 -8 23 -6 8 3 3 7 -10 11 -17 4 -21 3 -13 -5z"/>
<path d="M5948 468 c5 -5 16 -8 23 -6 8 3 3 7 -10 11 -17 4 -21 3 -13 -5z"/>
<path d="M6217 469 c7 -7 15 -10 18 -7 3 3 -2 9 -12 12 -14 6 -15 5 -6 -5z"/>
<path d="M2218 463 c7 -3 16 -2 19 1 4 3 -2 6 -13 5 -11 0 -14 -3 -6 -6z"/>
<path d="M2508 463 c7 -3 16 -2 19 1 4 3 -2 6 -13 5 -11 0 -14 -3 -6 -6z"/>
<path d="M3428 463 c7 -3 16 -2 19 1 4 3 -2 6 -13 5 -11 0 -14 -3 -6 -6z"/>
<path d="M3838 463 c7 -3 16 -2 19 1 4 3 -2 6 -13 5 -11 0 -14 -3 -6 -6z"/>
<path d="M4288 463 c7 -3 16 -2 19 1 4 3 -2 6 -13 5 -11 0 -14 -3 -6 -6z"/>
<path d="M4388 463 c7 -3 16 -2 19 1 4 3 -2 6 -13 5 -11 0 -14 -3 -6 -6z"/>
<path d="M4488 463 c6 -2 18 -2 25 0 6 3 1 5 -13 5 -14 0 -19 -2 -12 -5z"/>
<path d="M5198 463 c7 -3 16 -2 19 1 4 3 -2 6 -13 5 -11 0 -14 -3 -6 -6z"/>
<path d="M5378 463 c7 -3 16 -2 19 1 4 3 -2 6 -13 5 -11 0 -14 -3 -6 -6z"/>
<path d="M5708 463 c7 -3 16 -2 19 1 4 3 -2 6 -13 5 -11 0 -14 -3 -6 -6z"/>
<path d="M6028 463 c6 -2 18 -2 25 0 6 3 1 5 -13 5 -14 0 -19 -2 -12 -5z"/>
<path d="M6138 463 c7 -3 16 -2 19 1 4 3 -2 6 -13 5 -11 0 -14 -3 -6 -6z"/>
<path d="M6298 463 c7 -3 16 -2 19 1 4 3 -2 6 -13 5 -11 0 -14 -3 -6 -6z"/>
<path d="M6753 443 c9 -2 23 -2 30 0 6 3 -1 5 -18 5 -16 0 -22 -2 -12 -5z"/>
<path d="M2152 230 c0 -14 2 -19 5 -12 2 6 2 18 0 25 -3 6 -5 1 -5 -13z"/>
<path d="M2392 215 c0 -16 2 -22 5 -12 2 9 2 23 0 30 -3 6 -5 -1 -5 -18z"/>
<path d="M7080 226 c0 -9 5 -16 10 -16 6 0 10 4 10 9 0 6 -4 13 -10 16 -5 3
-10 -1 -10 -9z"/>
<path d="M2188 183 c7 -3 16 -2 19 1 4 3 -2 6 -13 5 -11 0 -14 -3 -6 -6z"/>
</g>
</svg>
