<?xml version="1.0" standalone="no"?>
<!DOCTYPE svg PUBLIC "-//W3C//DTD SVG 20010904//EN"
 "http://www.w3.org/TR/2001/REC-SVG-20010904/DTD/svg10.dtd">
<svg version="1.0" xmlns="http://www.w3.org/2000/svg"
 width="320" height="320" viewBox="0 0 1350.000000 768.000000"
 preserveAspectRatio="xMidYMid meet">

<g transform="translate(0.000000,768.000000) scale(0.100000,-0.100000)"
fill="#000000" stroke="none">
<path d="M0 3847 l0 -3834 5939 -7 c3267 -4 6302 -4 6745 0 l806 7 0 3834 0
3833 -6745 0 -6745 0 0 -3833z m1205 3303 c0 -18 -6 -26 -23 -28 -24 -4 -38
18 -28 44 3 9 15 14 28 12 17 -2 23 -10 23 -28z m915 10 c0 -11 -7 -23 -15
-26 -27 -11 -17 -34 15 -34 25 0 30 4 30 25 0 20 5 25 25 25 20 0 25 -5 25
-24 0 -18 6 -25 23 -28 31 -4 30 -42 -1 -46 -21 -3 -23 -8 -20 -55 3 -45 6
-52 26 -55 14 -2 22 -10 22 -23 0 -15 -7 -19 -34 -19 -51 0 -66 21 -66 91 0
59 0 59 -30 59 l-30 0 0 -75 0 -75 -30 0 -30 0 0 75 c0 43 -4 75 -10 75 -5 0
-10 11 -10 25 0 14 4 25 8 25 4 0 13 14 19 30 17 44 83 68 83 30z m-1160 -45
l0 -45 25 16 c35 23 90 11 113 -24 56 -85 -23 -201 -109 -158 -16 8 -29 10
-29 5 0 -5 -11 -9 -25 -9 l-25 0 0 130 0 130 25 0 c23 0 25 -4 25 -45z m350
-22 l1 -68 32 38 c23 26 40 37 60 37 15 0 27 -3 27 -6 0 -3 -18 -26 -40 -51
l-40 -45 40 -47 40 -46 -28 -3 c-21 -3 -34 4 -59 34 l-33 37 0 -36 c0 -34 -2
-37 -30 -37 l-30 0 0 130 0 130 30 0 30 0 0 -67z m8430 16 c0 -5 -7 -9 -15 -9
-15 0 -20 12 -9 23 8 8 24 -1 24 -14z m170 0 c0 -5 -7 -9 -15 -9 -15 0 -20 12
-9 23 8 8 24 -1 24 -14z m170 -64 c0 -43 -4 -75 -10 -75 -6 0 -10 32 -10 75 0
43 4 75 10 75 6 0 10 -32 10 -75z m-399 49 c9 -11 10 -20 2 -32 -7 -12 -7 -22
1 -34 18 -29 -4 -53 -53 -56 l-41 -3 0 70 0 71 39 0 c23 0 44 -6 52 -16z m579
1 c0 -8 8 -15 18 -15 16 -1 16 -1 0 -14 -23 -17 -25 -76 -3 -76 8 0 15 -5 15
-11 0 -6 -10 -9 -22 -7 -19 2 -24 10 -26 43 -2 22 -8 45 -14 52 -7 9 -7 13 1
13 6 0 11 7 11 15 0 8 5 15 10 15 6 0 10 -7 10 -15z m577 0 c8 -23 -4 -30 -22
-12 -8 9 -22 14 -31 10 -22 -8 -13 -37 13 -41 29 -4 45 -26 41 -54 -2 -19 -10
-24 -41 -26 -27 -2 -39 1 -43 13 -4 9 -3 19 1 23 4 4 10 1 12 -5 3 -7 16 -13
29 -13 36 0 30 27 -11 44 -26 11 -35 21 -35 39 0 31 7 37 47 37 21 0 36 -6 40
-15z m1048 -1 c21 -22 11 -30 -19 -15 -12 7 -34 11 -47 9 -19 -2 -25 -10 -27
-36 -2 -18 2 -40 9 -48 13 -16 55 -19 64 -4 3 6 13 10 22 10 14 0 14 -3 -2
-20 -27 -30 -78 -27 -104 6 -12 15 -21 34 -21 44 0 10 9 29 21 44 24 31 78 36
104 10z m325 1 c0 -8 8 -15 18 -15 16 -1 16 -1 0 -14 -23 -17 -25 -76 -3 -76
8 0 15 -5 15 -11 0 -6 -10 -9 -22 -7 -19 2 -24 10 -26 43 -2 22 -8 45 -14 52
-7 9 -7 13 1 13 6 0 11 7 11 15 0 8 5 15 10 15 6 0 10 -7 10 -15z m210 0 c0
-8 7 -15 15 -15 8 0 15 -4 15 -10 0 -5 -7 -10 -15 -10 -10 0 -15 -11 -15 -35
0 -24 5 -35 15 -35 8 0 15 -5 15 -11 0 -6 -10 -9 -22 -7 -19 2 -24 11 -29 53
-3 28 -4 58 -1 68 5 21 22 23 22 2z m-11212 -97 l3 -98 -31 0 -30 0 0 93 c0
52 3 97 7 101 4 4 16 6 28 4 18 -3 20 -11 23 -100z m397 77 c14 -13 25 -29 25
-35 0 -16 -35 -12 -70 8 -31 17 -31 17 -51 -7 -22 -26 -23 -39 -9 -75 7 -20
16 -26 40 -26 16 0 30 5 30 10 0 6 14 10 30 10 37 0 38 -9 4 -41 -53 -50 -146
-17 -160 58 -18 95 96 164 161 98z m105 9 c0 -14 2 -14 22 0 31 22 38 20 38
-8 0 -17 -7 -27 -22 -32 -33 -10 -38 -22 -38 -86 0 -55 -1 -58 -25 -58 l-25 0
0 100 0 100 25 0 c16 0 25 -6 25 -16z m223 5 c34 -16 47 -49 47 -124 0 -63 -1
-65 -25 -65 -14 0 -25 4 -25 10 0 5 -15 3 -33 -6 -64 -30 -129 26 -93 81 14
21 24 25 66 25 43 0 50 3 50 19 0 30 -37 37 -64 12 -39 -37 -76 -20 -43 21 29
36 76 47 120 27z m7797 -64 c0 -30 -4 -55 -10 -55 -5 0 -10 25 -10 55 0 30 5
55 10 55 6 0 10 -25 10 -55z m114 49 c9 -3 16 -13 16 -21 0 -12 -3 -12 -22 1
-30 21 -60 4 -56 -32 2 -20 9 -28 27 -30 13 -2 27 2 32 9 4 8 11 10 15 6 12
-12 -18 -37 -45 -37 -35 0 -51 17 -51 55 0 48 34 68 84 49z m66 -49 c0 -42 -3
-55 -15 -55 -12 0 -15 13 -15 55 0 42 3 55 15 55 12 0 15 -13 15 -55z m118 31
c4 -17 2 -17 -19 -3 -31 22 -61 6 -57 -31 2 -21 9 -28 31 -30 15 -2 27 1 27 7
0 6 5 11 10 11 16 0 11 -27 -6 -34 -25 -10 -59 -7 -72 6 -16 16 -15 71 0 86
20 20 82 11 86 -12z m170 12 c7 -7 12 -20 12 -30 0 -14 -8 -18 -40 -18 -29 0
-40 -4 -40 -15 0 -18 41 -20 58 -3 17 17 28 2 12 -17 -27 -33 -100 -6 -100 37
0 37 19 58 53 58 18 0 38 -5 45 -12z m222 -42 l0 -52 -42 -1 c-66 -3 -95 36
-68 88 9 16 20 19 60 18 l50 -2 0 -51z m95 43 c10 -15 -3 -24 -18 -11 -8 7
-18 8 -27 1 -13 -8 -13 -10 0 -19 8 -5 20 -10 26 -10 6 0 17 -7 24 -15 10 -12
10 -18 0 -31 -15 -18 -71 -15 -78 3 -2 9 5 11 27 7 41 -8 42 13 1 27 -28 10
-40 36 -23 52 10 11 61 8 68 -4z m443 -1 c7 -7 12 -20 12 -30 0 -14 -8 -18
-40 -18 -29 0 -40 -4 -40 -15 0 -18 41 -20 58 -3 17 17 28 2 12 -17 -27 -33
-100 -6 -100 37 0 37 19 58 53 58 18 0 38 -5 45 -12z m140 -62 c-3 -64 -5 -72
-29 -85 -24 -13 -29 -13 -53 3 -15 9 -24 21 -20 27 4 6 13 4 26 -7 21 -20 50
-10 56 18 2 11 -5 14 -28 10 -39 -6 -60 12 -60 52 0 43 16 56 67 54 l44 -1 -3
-71z m54 32 c3 -38 6 -43 28 -43 22 0 25 5 28 43 4 61 22 52 22 -11 l0 -54
-37 -1 c-49 -2 -63 12 -63 64 0 56 18 57 22 2z m168 32 c0 -4 -9 -10 -20 -13
-16 -4 -20 -14 -20 -46 0 -23 -4 -41 -10 -41 -5 0 -10 24 -10 53 0 53 1 54 30
55 17 0 30 -3 30 -8z m108 -2 c7 -7 12 -26 12 -43 0 -39 -16 -55 -55 -55 -39
0 -55 16 -55 55 0 39 16 55 55 55 17 0 36 -5 43 -12z m112 -3 c10 -12 10 -15
-3 -15 -9 0 -18 4 -22 10 -7 11 -35 2 -35 -11 0 -5 11 -11 25 -15 36 -9 51
-30 35 -50 -15 -18 -71 -15 -78 3 -2 9 5 11 27 7 38 -8 43 12 7 26 -29 11 -40
26 -32 45 7 20 60 19 76 0z m487 -11 c15 -24 15 -29 2 -53 -27 -48 -109 -32
-109 22 0 56 76 77 107 31z m121 14 c14 -14 16 -98 3 -98 -6 0 -11 19 -13 43
-3 37 -6 42 -28 42 -22 0 -25 -5 -28 -42 -5 -62 -22 -53 -22 12 l0 55 38 0
c21 0 43 -5 50 -12z m222 -43 l0 -52 -44 -1 c-36 -2 -48 2 -60 20 -34 49 -6
89 61 86 l43 -1 0 -52z m192 38 c39 -35 7 -98 -48 -91 -18 2 -34 13 -43 29
-13 24 -13 29 2 53 20 30 61 35 89 9z m-5387 -1584 c6 0 24 3 40 6 27 5 28 4
11 -7 -11 -7 -39 -30 -63 -52 -49 -44 -55 -41 -18 8 l25 34 -24 0 c-16 0 -38
-14 -62 -40 -43 -46 -57 -44 -21 4 l26 33 -70 -3 c-44 -2 -69 0 -69 7 0 7 16
9 43 5 23 -3 60 -1 82 5 22 5 51 8 65 5 14 -3 30 -5 35 -5z m286 -26 c11 -11
-12 -10 -141 7 -63 8 -61 9 32 6 54 -1 103 -7 109 -13z m-399 -134 c-29 -17
-56 -29 -59 -26 -5 6 85 56 102 56 6 0 -14 -13 -43 -30z m-82 -39 c-8 -5 -19
-10 -25 -10 -5 0 -3 5 5 10 8 5 20 10 25 10 6 0 3 -5 -5 -10z m3538 -572 c-8
-23 -353 -76 -372 -57 -6 5 -8 10 -5 10 9 3 354 57 367 58 8 1 12 -5 10 -11z
m1092 -170 c0 -25 -3 -29 -10 -18 -13 20 -13 50 0 50 6 0 10 -15 10 -32z m-3
-110 c-3 -8 -6 -5 -6 6 -1 11 2 17 5 13 3 -3 4 -12 1 -19z m-1437 3 c0 -9 -34
-21 -60 -21 -11 1 -10 4 4 15 22 16 56 20 56 6z m1440 -30 c0 -6 -4 -13 -10
-16 -5 -3 -10 1 -10 9 0 9 5 16 10 16 6 0 10 -4 10 -9z m-1515 -150 c2 -5 -4
-11 -16 -14 -13 -4 -22 0 -25 11 -3 9 -10 25 -16 36 -9 17 -7 16 21 -3 17 -12
33 -26 36 -30z m-83 4 c0 -5 -5 -11 -11 -13 -6 -2 -11 4 -11 13 0 9 5 15 11
13 6 -2 11 -8 11 -13z m-62 -3 c0 -5 -73 -12 -162 -15 -438 -16 -997 -101
-1827 -278 -129 -27 -238 -48 -244 -46 -11 3 204 51 603 133 436 90 823 155
1190 198 129 15 440 21 440 8z m1457 -37 c-6 -19 -12 -33 -15 -31 -7 7 9 66
18 66 4 0 3 -16 -3 -35z m60 19 c-3 -3 -12 -4 -19 -1 -8 3 -5 6 6 6 11 1 17
-2 13 -5z m55 -69 c-2 -14 -6 -25 -8 -25 -2 0 -4 11 -4 25 0 14 4 25 9 25 4 0
6 -11 3 -25z m41 -78 c1 -52 -1 -90 -5 -84 -4 7 -8 29 -8 49 0 20 -5 40 -10
43 -8 5 -8 11 -1 19 6 7 8 16 5 19 -4 3 -3 18 0 33 11 44 17 22 19 -79z
m-10067 -92 c15 -23 15 -27 0 -50 -28 -42 -106 -26 -106 22 0 51 77 71 106 28z
m563 -7 c14 -24 14 -28 -3 -47 -23 -25 -63 -27 -88 -4 -22 20 -23 32 -2 61 22
32 73 27 93 -10z m2391 -8 c0 -32 -4 -40 -18 -40 -45 0 -59 -57 -14 -62 23 -3
27 -8 30 -40 3 -36 2 -38 -27 -38 l-31 0 0 -140 0 -140 -50 0 -50 0 0 140 c0
133 -1 140 -20 140 -29 0 -29 69 -1 77 13 3 22 17 26 43 10 57 62 98 128 99
25 1 27 -2 27 -39z m538 28 c17 -17 15 -63 -3 -78 -8 -7 -26 -12 -40 -12 -34
0 -55 19 -55 51 0 35 17 51 55 51 17 0 36 -5 43 -12z m-2370 -250 l2 -238 -45
0 -45 0 0 241 0 240 43 -3 42 -3 3 -237z m-1374 198 c78 -32 102 -122 47 -177
l-29 -29 34 -34 c41 -41 47 -97 13 -140 -37 -47 -68 -56 -199 -56 l-120 0 0
225 0 225 110 0 c71 0 122 -5 144 -14z m1966 -35 c0 -39 1 -40 38 -43 35 -3
37 -5 40 -40 l3 -38 -40 0 -41 0 0 -99 0 -100 38 -3 c35 -3 37 -5 40 -40 l3
-38 -51 0 c-65 0 -105 21 -119 61 -6 18 -11 74 -11 125 0 87 -1 94 -20 94 -16
0 -20 7 -20 36 0 27 5 37 20 41 16 4 20 14 20 44 l0 39 50 0 50 0 0 -39z
m1970 -1 l0 -40 40 0 40 0 0 -40 0 -40 -40 0 -40 0 0 -84 c0 -107 4 -116 46
-116 33 0 34 -1 34 -41 l0 -41 -60 4 c-95 7 -104 21 -108 163 -3 105 -5 115
-23 115 -16 0 -19 7 -19 40 0 33 3 40 20 40 17 0 20 7 20 40 l0 40 45 0 45 0
0 -40z m1940 20 c0 -5 -2 -10 -4 -10 -3 0 -8 5 -11 10 -3 6 -1 10 4 10 6 0 11
-4 11 -10z m3199 -46 c-18 -22 -21 -11 -7 27 11 30 13 31 16 11 2 -13 -2 -30
-9 -38z m-2664 1 c-27 -7 -59 -13 -70 -13 -11 0 3 6 30 13 28 7 59 13 70 13
11 0 -2 -6 -30 -13z m-6165 -195 l0 -180 -45 0 -45 0 0 173 c0 96 3 177 7 180
3 4 24 7 45 7 l38 0 0 -180z m329 161 c39 -20 62 -48 75 -88 7 -22 5 -23 -39
-23 -38 0 -51 5 -67 25 -24 31 -75 34 -109 6 -21 -16 -24 -28 -24 -81 0 -56 3
-64 29 -87 34 -29 82 -26 105 7 10 15 25 20 62 20 27 0 49 -4 49 -9 0 -23 -50
-79 -90 -99 -82 -43 -196 -8 -233 71 -21 43 -22 148 -3 185 18 34 54 68 86 81
42 16 118 13 159 -8z m239 -163 l2 -178 -50 0 -50 0 0 173 c0 96 3 177 7 181
4 4 25 6 48 4 l40 -3 3 -177z m322 164 c35 -17 80 -73 80 -98 0 -10 -14 -14
-46 -14 -37 0 -50 5 -66 25 -13 17 -29 25 -49 25 -46 0 -67 -16 -80 -62 -28
-106 59 -191 127 -123 19 19 35 25 69 25 59 0 59 -19 2 -75 -33 -34 -52 -45
-89 -50 -154 -23 -258 132 -185 275 40 81 152 115 237 72z m547 7 c48 -18 91
-67 103 -120 19 -79 18 -79 -125 -79 -117 0 -125 -1 -125 -19 0 -26 46 -61 81
-61 16 0 38 9 49 20 15 15 33 20 71 20 l51 0 -19 -32 c-70 -120 -257 -110
-314 16 -42 93 -10 202 71 244 48 24 111 29 157 11z m640 -8 c31 -19 31 -19
36 0 5 17 13 20 49 17 l43 -3 3 -177 2 -178 -50 0 c-44 0 -50 3 -50 21 l0 20
-26 -20 c-61 -48 -160 -31 -212 37 -23 30 -28 47 -30 111 -3 67 -1 80 20 111
52 77 145 103 215 61z m431 -1 c31 -19 66 -76 56 -92 -3 -5 -21 -8 -41 -8 -25
0 -42 7 -59 25 -26 28 -51 32 -79 11 -31 -22 -11 -44 64 -67 114 -34 152 -101
95 -168 -61 -73 -204 -60 -254 22 -11 18 -20 35 -20 40 0 4 21 7 48 7 37 0 50
-4 60 -21 10 -16 21 -19 55 -17 37 3 42 6 42 28 0 21 -8 27 -75 47 -111 33
-143 80 -104 154 30 58 146 79 212 39z m729 9 c48 -18 91 -67 103 -120 19 -79
18 -79 -125 -79 -117 0 -125 -1 -125 -19 0 -26 46 -61 81 -61 16 0 38 9 49 20
15 15 33 20 71 20 l51 0 -19 -32 c-70 -120 -257 -110 -314 16 -42 93 -10 202
71 244 48 24 111 29 157 11z m263 -169 l0 -180 -45 0 -45 0 0 180 0 180 45 0
45 0 0 -180z m552 161 c36 -20 36 -20 41 0 5 17 12 20 49 17 l43 -3 3 -177 2
-178 -50 0 c-44 0 -50 3 -50 20 0 20 -1 20 -31 -2 -46 -34 -125 -31 -173 6
-50 37 -69 80 -70 151 -2 141 120 227 236 166z m424 3 c34 -16 64 -58 64 -89
0 -26 -68 -20 -96 10 -26 28 -65 33 -85 9 -21 -26 1 -47 72 -67 83 -24 114
-53 114 -108 0 -111 -182 -147 -264 -54 -44 50 -41 65 12 65 31 0 49 -6 62
-20 35 -39 128 -15 95 25 -7 8 -39 22 -72 31 -80 23 -118 55 -118 101 0 45 14
70 53 93 40 25 116 26 163 4z m1332 -19 c-9 -9 -30 14 -23 25 6 9 10 8 17 -4
6 -10 8 -19 6 -21z m259 29 c-3 -3 -12 -4 -19 -1 -8 3 -5 6 6 6 11 1 17 -2 13
-5z m-50 -10 c-3 -3 -12 -4 -19 -1 -8 3 -5 6 6 6 11 1 17 -2 13 -5z m-40 -10
c-3 -3 -12 -4 -19 -1 -8 3 -5 6 6 6 11 1 17 -2 13 -5z m-50 -10 c-3 -3 -12 -4
-19 -1 -8 3 -5 6 6 6 11 1 17 -2 13 -5z m-40 -10 c-3 -3 -12 -4 -19 -1 -8 3
-5 6 6 6 11 1 17 -2 13 -5z m2962 -198 c-2 -2 -15 -9 -29 -15 -24 -11 -24 -11
-6 3 16 13 49 24 35 12z m96 -135 c-6 -5 -23 -12 -40 -15 l-30 -6 30 14 c35
18 54 20 40 7z m325 -11 c0 -5 -4 -10 -10 -10 -5 0 -10 5 -10 10 0 6 5 10 10
10 6 0 10 -4 10 -10z m-6834 -215 c15 -23 15 -27 0 -50 -28 -42 -106 -26 -106
22 0 51 77 71 106 28z m-2085 -85 c3 -47 6 -80 7 -74 3 18 66 44 107 44 147 0
218 -196 114 -315 -51 -58 -146 -69 -204 -23 -25 19 -25 19 -25 -1 0 -18 -6
-21 -45 -21 l-45 0 0 241 0 240 43 -3 42 -3 6 -85z m1907 -152 l2 -238 -50 0
c-44 0 -50 3 -50 21 l0 20 -26 -20 c-61 -48 -160 -31 -212 37 -23 30 -28 47
-30 111 -3 67 -1 80 20 111 52 77 134 100 211 61 l37 -19 0 72 c0 40 3 76 7
80 4 4 25 6 48 4 l40 -3 3 -237z m610 0 l2 -238 -50 0 c-44 0 -50 3 -50 21 l0
20 -26 -20 c-61 -48 -160 -31 -212 37 -23 30 -28 47 -30 111 -3 67 -1 80 20
111 52 77 134 100 211 61 l37 -19 0 72 c0 40 3 76 7 80 4 4 25 6 48 4 l40 -3
3 -237z m-3162 106 c34 -16 64 -58 64 -89 0 -26 -68 -20 -96 10 -26 28 -65 33
-85 9 -21 -26 1 -47 72 -67 83 -24 114 -53 114 -108 0 -111 -182 -147 -264
-54 -44 50 -41 65 12 65 31 0 49 -6 62 -20 35 -39 128 -15 95 25 -7 8 -39 22
-72 31 -80 23 -118 55 -118 101 0 45 14 70 53 93 40 25 116 26 163 4z m395 -7
c65 -35 91 -84 87 -169 -3 -49 -9 -75 -24 -95 -73 -99 -214 -107 -293 -17 -38
42 -45 68 -39 143 5 70 34 116 92 142 57 26 123 24 177 -4z m829 3 c0 -20 0
-20 33 0 53 33 149 21 186 -23 12 -15 16 -15 43 8 60 51 141 47 197 -9 l36
-36 3 -140 4 -140 -45 0 -45 0 -4 121 c-3 113 -5 122 -27 140 -13 10 -36 19
-51 19 -15 0 -38 -9 -51 -19 -22 -18 -24 -27 -27 -140 l-4 -121 -44 0 -44 0 0
115 c0 110 -1 117 -25 140 -25 26 -63 32 -95 15 -28 -15 -40 -65 -40 -171 l0
-99 -45 0 -45 0 0 173 c0 96 3 177 7 180 3 4 24 7 45 7 31 0 38 -4 38 -20z
m807 9 c48 -18 91 -67 103 -120 19 -79 18 -79 -125 -79 -117 0 -125 -1 -125
-19 0 -26 46 -61 81 -61 16 0 38 9 49 20 15 15 33 20 71 20 l51 0 -19 -32
c-70 -120 -257 -110 -314 16 -42 93 -10 202 71 244 48 24 111 29 157 11z m693
-169 l0 -180 -45 0 -45 0 0 173 c0 96 3 177 7 180 3 4 24 7 45 7 l38 0 0 -180z
m744 155 l36 -24 0 24 c0 23 4 25 45 25 l45 0 0 -180 0 -180 -45 0 c-37 0 -45
3 -45 18 0 18 -4 17 -49 -6 -60 -29 -115 -24 -163 16 -100 85 -85 269 27 318
49 21 107 17 149 -11z m287 -245 c22 -12 26 -59 7 -78 -20 -20 -65 -14 -82 10
-20 29 -20 34 4 58 22 22 42 25 71 10z m-3881 -720 c0 -5 -2 -10 -4 -10 -3 0
-8 5 -11 10 -3 6 -1 10 4 10 6 0 11 -4 11 -10z m140 0 c0 -5 -4 -10 -10 -10
-5 0 -10 5 -10 10 0 6 5 10 10 10 6 0 10 -4 10 -10z m127 -82 c-2 -18 -4 -4
-4 32 0 36 2 50 4 33 2 -18 2 -48 0 -65z m530 0 c-2 -18 -4 -4 -4 32 0 36 2
50 4 33 2 -18 2 -48 0 -65z m78 82 c-3 -5 -11 -10 -16 -10 -6 0 -7 5 -4 10 3
6 11 10 16 10 6 0 7 -4 4 -10z m185 0 c0 -5 -2 -10 -4 -10 -3 0 -8 5 -11 10
-3 6 -1 10 4 10 6 0 11 -4 11 -10z m440 -50 l0 -60 -33 0 c-38 0 -57 15 -57
46 0 28 24 48 50 41 15 -4 20 0 20 14 0 10 5 19 10 19 6 0 10 -27 10 -60z
m290 0 c0 -33 -4 -60 -10 -60 -6 0 -10 27 -10 60 0 33 4 60 10 60 6 0 10 -27
10 -60z m620 56 c0 -11 -19 -15 -25 -6 -3 5 1 10 9 10 9 0 16 -2 16 -4z m170
-12 c0 -2 -12 -4 -26 -4 -14 0 -23 4 -20 9 6 8 46 4 46 -5z m660 -44 c0 -33
-4 -60 -10 -60 -6 0 -10 27 -10 60 0 33 4 60 10 60 6 0 10 -27 10 -60z m40 50
c0 -5 -4 -10 -10 -10 -5 0 -10 5 -10 10 0 6 5 10 10 10 6 0 10 -4 10 -10z
m110 -49 l0 -59 -42 2 c-39 1 -43 3 -46 29 -4 36 15 60 45 54 17 -3 23 0 23
14 0 11 5 19 10 19 6 0 10 -26 10 -59z m210 1 c0 -57 0 -58 -31 -60 -38 -3
-59 13 -59 43 0 31 24 49 55 41 20 -5 25 -3 25 14 0 11 2 20 5 20 3 0 5 -26 5
-58z m230 48 c-12 -8 -13 -11 -1 -19 9 -6 10 -11 2 -15 -6 -4 -11 -23 -11 -42
0 -50 -17 -41 -22 12 -4 51 5 74 30 74 15 0 15 -2 2 -10z m140 0 c0 -5 -4 -10
-10 -10 -5 0 -10 5 -10 10 0 6 5 10 10 10 6 0 10 -4 10 -10z m520 -9 c0 -14 5
-18 20 -14 26 7 50 -13 50 -41 0 -31 -19 -46 -57 -46 l-33 0 0 60 c0 33 4 60
10 60 6 0 10 -9 10 -19z m480 -41 l0 -60 -33 0 c-38 0 -57 15 -57 46 0 28 24
48 50 41 15 -4 20 0 20 14 0 10 5 19 10 19 6 0 10 -27 10 -60z m40 50 c0 -5
-4 -10 -10 -10 -5 0 -10 5 -10 10 0 6 5 10 10 10 6 0 10 -4 10 -10z m110 -49
l0 -59 -42 2 c-39 1 -43 3 -46 29 -4 36 15 60 45 54 17 -3 23 0 23 14 0 11 5
19 10 19 6 0 10 -26 10 -59z m-5162 36 c7 -8 7 -18 2 -27 -5 -9 -5 -19 2 -27
16 -19 -8 -43 -43 -43 -28 0 -29 1 -29 55 0 54 1 55 29 55 16 0 33 -6 39 -13z
m470 -4 c12 -12 13 -18 4 -21 -16 -5 -16 -59 1 -66 6 -3 3 -5 -8 -3 -15 2 -21
12 -26 42 -6 37 -3 65 8 65 2 0 12 -8 21 -17z m530 0 c12 -12 13 -18 4 -21
-16 -5 -16 -59 1 -66 6 -3 3 -5 -8 -3 -15 2 -21 12 -26 42 -6 37 -3 65 8 65 2
0 12 -8 21 -17z m872 7 c0 -5 8 -10 18 -10 16 -1 16 -1 0 -14 -10 -7 -18 -23
-18 -34 0 -12 8 -26 18 -31 15 -9 15 -10 -5 -11 -15 0 -24 7 -27 23 -6 25 -9
56 -7 75 1 14 21 17 21 2z m2188 -7 c12 -12 13 -18 4 -21 -16 -5 -16 -44 1
-61 10 -10 8 -12 -8 -9 -15 2 -21 14 -25 44 -9 63 -1 76 28 47z m-4018 -48 c0
-25 -4 -45 -10 -45 -5 0 -10 20 -10 45 0 25 5 45 10 45 6 0 10 -20 10 -45z
m98 28 c2 -9 -5 -11 -27 -7 -28 6 -31 4 -31 -20 0 -30 27 -47 40 -25 5 7 12
10 15 7 12 -12 -5 -28 -29 -28 -41 0 -63 49 -34 78 16 16 60 12 66 -5z m42
-28 c0 -25 -4 -45 -10 -45 -5 0 -10 20 -10 45 0 25 5 45 10 45 6 0 10 -20 10
-45z m84 39 c27 -10 18 -24 -13 -18 -34 7 -51 -20 -27 -44 12 -13 18 -13 31
-2 18 15 34 5 18 -11 -6 -6 -23 -9 -39 -7 -23 2 -30 9 -32 31 -5 45 21 67 62
51z m144 -6 c23 -23 13 -38 -23 -38 -19 0 -35 -5 -35 -10 0 -16 30 -24 43 -11
17 17 31 13 17 -4 -26 -32 -80 -12 -80 30 0 12 5 26 12 33 7 7 21 12 33 12 12
0 26 -5 33 -12z m172 -35 c0 -42 -1 -43 -33 -43 -38 0 -57 15 -57 45 0 30 19
44 57 43 32 -1 33 -2 33 -45z m81 31 c11 -13 9 -14 -14 -9 -33 9 -36 -6 -4
-20 33 -15 28 -40 -7 -40 -17 0 -31 6 -34 15 -5 13 -3 13 12 1 12 -10 20 -11
28 -3 8 8 4 14 -15 21 -26 10 -35 30 -20 44 12 12 40 7 54 -9z m137 4 c23 -23
13 -38 -25 -38 -35 0 -36 -1 -21 -17 14 -14 20 -14 33 -3 17 14 31 8 20 -9
-11 -19 -63 -13 -75 8 -24 45 33 94 68 59z m140 0 c23 -23 13 -38 -23 -38 -19
0 -35 -5 -35 -10 0 -16 30 -24 43 -11 17 17 31 13 17 -4 -26 -32 -80 -12 -80
30 0 12 5 26 12 33 7 7 21 12 33 12 12 0 26 -5 33 -12z m132 2 c0 -4 -7 -10
-15 -14 -9 -3 -15 -18 -15 -36 0 -16 -4 -30 -10 -30 -5 0 -10 20 -10 44 0 40
2 44 25 44 14 0 25 -4 25 -8z m30 -35 c0 -25 -4 -45 -10 -45 -5 0 -10 20 -10
45 0 25 5 45 10 45 6 0 10 -20 10 -45z m98 28 c2 -9 -5 -11 -27 -7 -28 6 -31
4 -31 -20 0 -30 27 -47 40 -25 5 7 12 10 15 7 12 -12 -5 -28 -29 -28 -41 0
-63 49 -34 78 16 16 60 12 66 -5z m112 -29 l0 -42 -42 2 c-39 1 -43 3 -46 29
-5 38 13 57 54 55 33 -1 34 -2 34 -44z m77 30 c2 -7 -6 -10 -23 -6 -19 3 -25
1 -20 -7 4 -6 13 -11 20 -11 20 0 36 -24 27 -39 -11 -17 -53 -10 -59 9 -5 13
-3 13 11 2 9 -8 21 -10 28 -6 8 5 3 12 -15 21 -25 13 -33 32 -19 47 10 10 46
3 50 -10z m253 -3 c15 -29 13 -31 -25 -31 -19 0 -35 -5 -35 -10 0 -16 30 -24
43 -11 17 17 31 13 17 -4 -26 -32 -80 -12 -80 30 0 44 60 63 80 26z m150 -28
c0 -42 -1 -43 -33 -43 -38 0 -57 15 -57 45 0 30 19 44 57 43 32 -1 33 -2 33
-45z m210 1 l0 -42 -42 2 c-39 1 -43 3 -46 29 -5 38 13 57 54 55 33 -1 34 -2
34 -44z m137 34 c32 -26 3 -86 -37 -75 -16 4 -20 0 -20 -19 0 -13 -4 -24 -10
-24 -6 0 -10 28 -10 63 l0 64 32 1 c18 0 38 -4 45 -10z m71 -2 c-11 -8 -18
-26 -18 -45 0 -17 -4 -31 -10 -31 -5 0 -10 20 -10 45 0 43 2 45 28 45 24 -1
25 -2 10 -14z m90 2 c23 -23 13 -38 -25 -38 -35 0 -36 -1 -21 -17 14 -14 20
-14 33 -3 17 14 31 8 20 -9 -11 -19 -63 -13 -75 8 -24 45 33 94 68 59z m102
-3 c11 -13 8 -14 -19 -9 -23 5 -32 2 -37 -11 -9 -23 21 -54 38 -37 17 17 33
15 18 -3 -18 -21 -57 -19 -70 4 -25 47 36 96 70 56z m37 -52 c-2 -16 -4 -5 -4
22 0 28 2 40 4 28 2 -13 2 -35 0 -50z m91 49 c3 -9 -3 -11 -22 -6 -34 8 -34
-4 0 -16 32 -12 29 -44 -5 -48 -25 -4 -50 13 -38 25 4 4 13 1 19 -5 15 -15 28
-15 28 -2 0 6 -11 15 -25 20 -24 9 -32 29 -18 44 11 11 56 2 61 -12z m112 -27
c0 -42 0 -42 -40 -43 -43 -2 -66 21 -53 55 9 25 23 32 60 31 32 -1 33 -3 33
-43z m88 33 c28 -28 7 -78 -33 -78 -27 0 -45 18 -45 45 0 27 18 45 45 45 12 0
26 -5 33 -12z m136 6 c9 -3 16 -15 16 -25 0 -14 -7 -19 -30 -19 -30 0 -40 -13
-20 -25 6 -4 18 -1 26 6 17 14 33 4 17 -12 -6 -6 -23 -9 -39 -7 -23 2 -30 9
-32 31 -5 45 21 67 62 51z m166 -61 c0 -35 -4 -63 -10 -63 -5 0 -10 9 -10 20
0 14 -7 20 -23 20 -29 0 -47 18 -47 45 0 30 19 44 57 43 l33 -1 0 -64z m42 30
c2 -26 8 -38 18 -38 10 0 16 12 18 38 4 52 22 46 22 -8 0 -44 0 -45 -34 -45
-37 0 -46 12 -46 61 0 42 18 36 22 -8z m168 -10 c0 -42 -1 -43 -33 -43 -38 0
-57 15 -57 45 0 30 19 44 57 43 32 -1 33 -2 33 -45z m80 2 c0 -25 -4 -45 -10
-45 -5 0 -10 20 -10 45 0 25 5 45 10 45 6 0 10 -20 10 -45z m220 0 c0 -42 0
-42 -40 -43 -43 -2 -66 21 -53 55 9 25 23 32 60 31 32 -1 33 -3 33 -43z m200
26 c15 -29 13 -31 -25 -31 -19 0 -35 -5 -35 -10 0 -16 30 -24 43 -11 17 17 31
13 17 -4 -26 -32 -80 -12 -80 30 0 44 60 63 80 26z m214 13 c9 -3 16 -15 16
-25 0 -14 -7 -19 -30 -19 -30 0 -40 -13 -20 -25 6 -4 18 -1 26 6 17 14 33 4
17 -12 -6 -6 -23 -9 -39 -7 -23 2 -30 9 -32 31 -5 45 21 67 62 51z m56 -39 c0
-25 -4 -45 -10 -45 -5 0 -10 20 -10 45 0 25 5 45 10 45 6 0 10 -20 10 -45z
m170 0 c0 -42 0 -42 -40 -43 -43 -2 -66 21 -53 55 9 25 23 32 60 31 32 -1 33
-3 33 -43z m78 27 c3 -9 -3 -11 -22 -6 -34 8 -34 -4 0 -16 32 -12 29 -44 -5
-48 -25 -4 -50 13 -38 25 4 4 13 1 19 -5 15 -15 28 -15 28 -2 0 6 -11 15 -25
20 -28 11 -31 20 -13 38 16 16 50 12 56 -6z m123 2 c11 -13 9 -14 -14 -9 -33
9 -36 -6 -4 -20 33 -15 28 -40 -7 -40 -17 0 -31 6 -34 15 -5 13 -3 13 12 1 12
-10 20 -11 28 -3 8 8 4 14 -15 21 -26 10 -35 30 -20 44 12 12 40 7 54 -9z m97
4 c28 -28 7 -78 -33 -78 -27 0 -45 18 -45 45 0 27 18 45 45 45 12 0 26 -5 33
-12z m319 -38 c1 -41 1 -42 -5 -10 -5 26 -13 36 -29 38 -20 3 -23 -1 -23 -32
0 -20 -4 -36 -10 -36 -5 0 -10 16 -10 35 0 28 -4 35 -20 35 -16 0 -20 -7 -20
-35 0 -19 -4 -35 -10 -35 -5 0 -10 20 -10 45 l0 44 68 -2 67 -2 2 -45z m103
31 c15 -29 13 -31 -25 -31 -19 0 -35 -5 -35 -10 0 -16 30 -24 43 -11 17 17 31
13 17 -4 -26 -32 -80 -12 -80 30 0 44 60 63 80 26z m150 -26 c0 -25 -4 -45
-10 -45 -5 0 -10 20 -10 45 0 25 5 45 10 45 6 0 10 -20 10 -45z m220 0 c0 -42
0 -42 -40 -43 -43 -2 -66 21 -53 55 9 25 23 32 60 31 32 -1 33 -3 33 -43z
m1376 -43 c-6 -5 -36 23 -36 34 0 4 9 -1 20 -11 11 -10 18 -20 16 -23z m-2870
2 c-3 -9 -6 -18 -6 -20 0 -2 -4 -4 -9 -4 -5 0 -7 9 -4 20 3 11 10 20 15 20 6
0 7 -7 4 -16z m2934 -109 c-46 -18 -74 -17 -35 0 17 8 39 14 50 14 13 0 8 -5
-15 -14z m115 -3 c-3 -3 -11 0 -18 7 -9 10 -8 11 6 5 10 -3 15 -9 12 -12z
m-6218 -114 c-2 -18 -4 -4 -4 32 0 36 2 50 4 33 2 -18 2 -48 0 -65z m43 82 c0
-5 -2 -10 -4 -10 -3 0 -8 5 -11 10 -3 6 -1 10 4 10 6 0 11 -4 11 -10z m737
-82 c-2 -18 -4 -4 -4 32 0 36 2 50 4 33 2 -18 2 -48 0 -65z m933 32 l0 -60
-33 0 c-38 0 -57 15 -57 46 0 28 24 48 50 41 15 -4 20 0 20 14 0 10 5 19 10
19 6 0 10 -27 10 -60z m957 -32 c-2 -18 -4 -4 -4 32 0 36 2 50 4 33 2 -18 2
-48 0 -65z m243 82 c0 -5 -2 -10 -4 -10 -3 0 -8 5 -11 10 -3 6 -1 10 4 10 6 0
11 -4 11 -10z m110 -50 l0 -60 -33 0 c-38 0 -57 15 -57 46 0 28 24 48 50 41
15 -4 20 0 20 14 0 10 5 19 10 19 6 0 10 -27 10 -60z m220 1 l0 -59 -42 2
c-39 1 -43 3 -46 29 -4 36 15 60 45 54 17 -3 23 0 23 14 0 11 5 19 10 19 6 0
10 -26 10 -59z m840 55 c0 -11 -19 -15 -25 -6 -3 5 1 10 9 10 9 0 16 -2 16 -4z
m40 -56 c4 0 10 7 14 15 3 8 13 15 23 15 15 0 15 -3 -4 -21 -20 -20 -20 -24
-6 -45 17 -27 3 -33 -18 -8 -12 14 -14 14 -20 -3 -4 -10 -7 11 -7 47 1 36 3
50 5 33 2 -18 8 -33 13 -33z m354 33 c-1 -16 -2 -43 -3 -60 0 -18 -5 -33 -10
-33 -10 0 -20 76 -13 103 7 28 28 20 26 -10z m-4176 0 c12 -12 13 -18 4 -21
-16 -5 -16 -59 1 -66 6 -3 3 -5 -8 -3 -15 2 -21 12 -26 42 -6 37 -3 65 8 65 2
0 12 -8 21 -17z m245 10 c-15 -3 -23 -12 -23 -24 0 -13 7 -19 23 -20 l22 -2
-22 -4 c-14 -3 -23 -12 -23 -23 0 -11 9 -20 23 -23 16 -3 13 -5 -10 -6 l-33
-1 0 55 0 55 33 -1 c23 -1 26 -3 10 -6z m3492 -48 l0 -50 -37 -3 -38 -3 0 56
0 56 38 -3 37 -3 0 -50z m493 38 c12 -12 13 -18 4 -21 -16 -5 -16 -59 1 -66 6
-3 3 -5 -8 -3 -15 2 -21 12 -26 42 -6 37 -3 65 8 65 2 0 12 -8 21 -17z m-5124
-35 c13 -36 -8 -61 -45 -56 -24 4 -29 0 -32 -21 -2 -14 -5 4 -6 40 l-1 66 37
-1 c31 -1 39 -6 47 -28z m106 -15 c0 -42 -1 -43 -33 -43 -38 0 -57 15 -57 45
0 30 19 44 57 43 32 -1 33 -2 33 -45z m70 37 c0 -4 -7 -10 -15 -14 -9 -3 -15
-18 -15 -36 0 -16 -4 -30 -10 -30 -5 0 -10 20 -10 44 0 40 2 44 25 44 14 0 25
-4 25 -8z m100 -36 l0 -42 -42 2 c-39 1 -43 3 -46 29 -5 38 13 57 54 55 33 -1
34 -2 34 -44z m138 34 c7 -7 12 -21 12 -33 0 -12 -5 -26 -12 -33 -7 -7 -21
-12 -33 -12 -12 0 -26 5 -33 12 -7 7 -12 21 -12 33 0 12 5 26 12 33 7 7 21 12
33 12 12 0 26 -5 33 -12z m142 -3 c11 -13 8 -14 -19 -9 -23 5 -32 2 -37 -11
-9 -23 21 -54 38 -37 17 17 33 15 18 -3 -18 -21 -57 -19 -70 4 -25 47 36 96
70 56z m80 -30 c0 -25 -4 -45 -10 -45 -5 0 -10 20 -10 45 0 25 5 45 10 45 6 0
10 -20 10 -45z m100 26 c15 -29 13 -31 -25 -31 -19 0 -35 -5 -35 -10 0 -16 30
-24 43 -11 17 17 31 13 17 -4 -26 -32 -80 -12 -80 30 0 44 60 63 80 26z m97 7
c15 -12 18 -78 4 -78 -6 0 -11 15 -13 33 -2 24 -8 32 -23 32 -15 0 -21 -8 -23
-32 -5 -49 -22 -40 -22 10 0 43 1 44 32 45 18 0 38 -4 45 -10z m163 -7 c15
-29 13 -31 -25 -31 -19 0 -35 -5 -35 -10 0 -16 30 -24 43 -11 17 17 31 13 17
-4 -26 -32 -80 -12 -80 30 0 44 60 63 80 26z m198 7 c9 -9 15 -9 24 0 21 21
29 13 12 -13 -13 -20 -14 -28 -4 -40 7 -9 10 -19 6 -22 -4 -4 -11 -1 -16 7 -7
12 -12 12 -22 2 -20 -20 -29 -13 -13 11 13 21 13 25 -1 45 -16 23 -6 30 14 10z
m139 0 c16 -13 17 -50 1 -66 -7 -7 -22 -12 -35 -12 -16 0 -23 -6 -23 -20 0
-11 -4 -20 -10 -20 -6 0 -10 28 -10 63 l0 64 32 1 c18 0 38 -4 45 -10z m141 0
c7 -7 12 -21 12 -33 0 -12 -5 -26 -12 -33 -7 -7 -21 -12 -33 -12 -12 0 -26 5
-33 12 -7 7 -12 21 -12 33 0 12 5 26 12 33 7 7 21 12 33 12 12 0 26 -5 33 -12z
m70 -2 c-11 -8 -18 -26 -18 -45 0 -17 -4 -31 -10 -31 -5 0 -10 20 -10 45 0 43
2 45 28 45 24 -1 25 -2 10 -14z m90 2 c23 -23 13 -38 -23 -38 -19 0 -35 -5
-35 -10 0 -16 30 -24 43 -11 17 17 31 13 17 -4 -26 -32 -80 -12 -80 30 0 27
18 45 45 45 12 0 26 -5 33 -12z m146 -4 c30 -30 10 -74 -34 -74 -40 0 -58 32
-35 66 18 28 46 31 69 8z m204 4 c14 -12 16 -78 2 -78 -5 0 -10 16 -10 35 0
28 -4 35 -20 35 -16 0 -20 -7 -20 -35 0 -44 -18 -46 -22 -2 -2 24 -8 32 -23
32 -15 0 -21 -8 -23 -32 -5 -49 -22 -40 -22 11 l0 43 63 0 c34 0 68 -4 75 -9z
m54 -25 c2 -26 8 -38 18 -38 10 0 16 12 18 38 5 53 22 46 22 -9 l0 -45 -37 3
c-37 3 -38 4 -41 46 -2 23 1 42 7 42 5 0 11 -17 13 -37z m155 -13 c2 -46 -1
-46 -11 3 -4 18 -13 27 -26 27 -16 0 -20 -7 -20 -35 0 -19 -4 -35 -10 -35 -5
0 -10 20 -10 44 l0 44 38 -1 c37 -2 37 -2 39 -47z m207 34 c32 -32 7 -78 -39
-72 -24 2 -31 8 -33 31 -6 50 38 75 72 41z m142 5 c16 -13 19 -79 4 -79 -5 0
-10 16 -10 36 0 31 -3 35 -22 32 -17 -2 -25 -12 -29 -38 -6 -34 -6 -34 -8 10
-1 42 1 46 25 48 15 1 33 -3 40 -9z m124 -34 c0 -42 0 -42 -40 -43 -43 -2 -66
21 -53 55 9 25 23 32 60 31 32 -1 33 -3 33 -43z m117 29 c2 -7 -6 -10 -23 -6
-19 3 -25 1 -20 -7 4 -6 13 -11 20 -11 20 0 36 -24 27 -39 -11 -17 -53 -10
-59 9 -5 13 -3 13 11 2 9 -8 21 -10 28 -6 8 5 3 12 -15 21 -25 13 -33 32 -19
47 10 10 46 3 50 -10z m43 -18 c0 -19 5 -38 10 -41 18 -11 40 15 40 46 0 16 5
29 10 29 6 0 10 -20 10 -45 0 -44 -1 -45 -33 -45 -18 0 -38 5 -45 12 -14 14
-16 78 -2 78 6 0 10 -15 10 -34z m170 -11 c0 -38 -2 -41 -31 -43 -37 -3 -59
13 -59 42 0 32 19 46 57 43 31 -2 33 -4 33 -42z m85 15 c4 -16 10 -30 15 -30
5 0 11 14 15 30 6 27 25 43 25 21 0 -19 -31 -81 -40 -81 -9 0 -40 62 -40 81 0
22 19 6 25 -21z m143 18 c23 -23 13 -38 -23 -38 -19 0 -35 -5 -35 -10 0 -16
30 -24 43 -11 17 17 31 13 17 -4 -26 -32 -80 -12 -80 30 0 27 18 45 45 45 12
0 26 -5 33 -12z m140 0 c28 -28 7 -78 -33 -78 -27 0 -45 18 -45 45 0 27 18 45
45 45 12 0 26 -5 33 -12z m102 -3 c10 -12 6 -13 -24 -8 -34 5 -36 4 -36 -21 0
-29 25 -45 43 -27 17 17 31 13 17 -4 -26 -32 -80 -12 -80 30 0 41 54 62 80 30z
m40 -30 c0 -25 -4 -45 -10 -45 -5 0 -10 20 -10 45 0 25 5 45 10 45 6 0 10 -20
10 -45z m220 -1 l0 -42 -42 2 c-39 1 -43 3 -46 29 -5 38 13 57 54 55 33 -1 34
-2 34 -44z m198 34 c23 -23 13 -38 -25 -38 -35 0 -36 -1 -21 -17 14 -14 20
-14 33 -3 17 14 31 8 20 -9 -11 -19 -63 -13 -75 8 -24 45 33 94 68 59z m136 6
c27 -10 18 -24 -13 -18 -34 7 -51 -20 -27 -44 12 -13 18 -13 31 -2 18 15 34 5
18 -11 -6 -6 -23 -9 -39 -7 -23 2 -30 9 -32 31 -5 45 21 67 62 51z m104 -6
c28 -28 7 -78 -33 -78 -27 0 -45 18 -45 45 0 27 18 45 45 45 12 0 26 -5 33
-12z m169 -38 c1 -41 1 -42 -5 -10 -5 26 -13 36 -29 38 -20 3 -23 -1 -23 -32
0 -20 -4 -36 -10 -36 -5 0 -10 16 -10 35 0 28 -4 35 -20 35 -16 0 -20 -7 -20
-35 0 -19 -4 -35 -10 -35 -5 0 -10 20 -10 45 l0 44 68 -2 67 -2 2 -45z m153 5
c0 -38 -2 -41 -31 -43 -37 -3 -59 13 -59 42 0 32 19 46 57 43 31 -2 33 -4 33
-42z m177 -22 c-2 -16 -4 -5 -4 22 0 28 2 40 4 28 2 -13 2 -35 0 -50z m183 52
c11 -13 8 -14 -19 -9 -23 5 -32 2 -37 -11 -9 -23 21 -54 38 -37 17 17 33 15
18 -3 -18 -21 -57 -19 -70 4 -25 47 36 96 70 56z m70 5 c0 -4 -7 -10 -15 -14
-9 -3 -15 -18 -15 -36 0 -16 -4 -30 -10 -30 -5 0 -10 20 -10 44 0 40 2 44 25
44 14 0 25 -4 25 -8z m100 -37 c0 -42 -1 -43 -33 -43 -38 0 -57 15 -57 45 0
30 19 44 57 43 32 -1 33 -2 33 -45z m1473 10 c-7 -2 -19 -2 -25 0 -7 3 -2 5
12 5 14 0 19 -2 13 -5z m-416 -19 c-3 -3 -12 -4 -19 -1 -8 3 -5 6 6 6 11 1 17
-2 13 -5z m-130 -10 c-3 -3 -12 -4 -19 -1 -8 3 -5 6 6 6 11 1 17 -2 13 -5z
m-4907 -14 c0 -5 -4 -10 -10 -10 -5 0 -10 5 -10 10 0 6 5 10 10 10 6 0 10 -4
10 -10z m4130 0 c0 -5 -4 -10 -10 -10 -5 0 -10 5 -10 10 0 6 5 10 10 10 6 0
10 -4 10 -10z m1440 -13 c0 -2 -12 -14 -27 -28 l-28 -24 24 28 c23 25 31 32
31 24z m363 -104 c-13 -2 -35 -2 -50 0 -16 2 -5 4 22 4 28 0 40 -2 28 -4z m64
-9 c-3 -3 -12 -4 -19 -1 -8 3 -5 6 6 6 11 1 17 -2 13 -5z m-530 -10 c-3 -3
-12 -4 -19 -1 -8 3 -5 6 6 6 11 1 17 -2 13 -5z m-544 -81 c-7 -2 -19 -2 -25 0
-7 3 -2 5 12 5 14 0 19 -2 13 -5z m75 -10 c-10 -2 -26 -2 -35 0 -10 3 -2 5 17
5 19 0 27 -2 18 -5z m-4140 -25 c9 -9 12 -83 12 -269 0 -221 -2 -260 -16 -273
-14 -14 -117 -16 -984 -16 -867 0 -970 2 -984 16 -14 13 -16 52 -16 273 0 186
3 260 12 269 17 17 1959 17 1976 0z m4285 5 c-7 -2 -21 -2 -30 0 -10 3 -4 5
12 5 17 0 24 -2 18 -5z m-72 -33 c159 -19 220 -30 158 -30 -47 1 -350 38 -356
44 -9 9 11 8 198 -14z m236 -36 c-3 -3 -12 -4 -19 -1 -8 3 -5 6 6 6 11 1 17
-2 13 -5z m586 -51 c-7 -2 -19 -2 -25 0 -7 3 -2 5 12 5 14 0 19 -2 13 -5z m37
-33 c13 -9 13 -10 0 -10 -8 0 -22 5 -30 10 -13 9 -13 10 0 10 8 0 22 -5 30
-10z m339 -115 c36 -13 62 -24 56 -24 -5 0 -50 13 -100 29 -49 17 -75 27 -56
24 18 -3 63 -17 100 -29z m131 -40 c19 -7 28 -13 20 -13 -8 0 -31 6 -50 13
-19 7 -28 13 -20 13 8 0 31 -6 50 -13z m67 -21 c-3 -3 -12 -4 -19 -1 -8 3 -5
6 6 6 11 1 17 -2 13 -5z m70 -20 c-3 -3 -12 -4 -19 -1 -8 3 -5 6 6 6 11 1 17
-2 13 -5z m140 -40 c-3 -3 -12 -4 -19 -1 -8 3 -5 6 6 6 11 1 17 -2 13 -5z
m-1310 -30 c-3 -3 -12 -4 -19 -1 -8 3 -5 6 6 6 11 1 17 -2 13 -5z m473 -394
c8 -5 11 -10 5 -10 -5 0 -17 5 -25 10 -8 5 -10 10 -5 10 6 0 17 -5 25 -10z
m77 -6 c-3 -3 -12 -4 -19 -1 -8 3 -5 6 6 6 11 1 17 -2 13 -5z"/>
<path d="M970 7031 c-15 -29 -12 -56 8 -74 39 -35 82 -15 82 38 0 17 -5 36
-12 43 -19 19 -66 15 -78 -7z"/>
<path d="M9610 7069 c0 -15 5 -20 22 -17 34 5 37 38 4 38 -20 0 -26 -5 -26
-21z"/>
<path d="M9610 7010 c0 -17 5 -21 28 -18 16 2 27 9 27 18 0 9 -11 16 -27 18
-23 3 -28 -1 -28 -18z"/>
<path d="M1850 6961 c0 -10 6 -21 13 -24 18 -7 53 9 60 27 5 13 -1 16 -33 16
-33 0 -40 -4 -40 -19z"/>
<path d="M10140 7060 c-21 -13 -7 -22 27 -18 27 3 27 4 7 15 -12 7 -26 8 -34
3z"/>
<path d="M10325 7041 c-9 -28 5 -51 31 -51 29 0 46 28 33 52 -13 24 -56 23
-64 -1z"/>
<path d="M10900 7060 c-21 -13 -7 -22 27 -18 27 3 27 4 7 15 -12 7 -26 8 -34
3z"/>
<path d="M11014 7046 c-11 -29 1 -51 28 -54 22 -3 29 2 34 22 3 14 3 30 -1 35
-9 16 -55 13 -61 -3z"/>
<path d="M11354 7046 c-12 -31 0 -51 31 -51 27 0 30 3 30 30 0 25 -4 30 -28
33 -17 2 -29 -2 -33 -12z"/>
<path d="M11946 7042 c-11 -32 4 -53 33 -50 22 2 26 8 26 33 0 25 -4 31 -27
33 -19 2 -28 -2 -32 -16z"/>
<path d="M12284 7046 c-10 -26 1 -51 22 -54 27 -4 47 21 39 48 -7 24 -53 28
-61 6z"/>
<path d="M12492 7028 c4 -40 40 -52 57 -19 16 29 3 51 -31 51 -27 0 -29 -2
-26 -32z"/>
<path d="M1080 3835 l0 -55 43 0 c62 0 87 10 98 38 7 18 5 31 -6 48 -13 21
-23 24 -75 24 l-60 0 0 -55z"/>
<path d="M1080 3650 l0 -60 44 0 c60 0 103 17 110 43 9 32 8 35 -14 57 -16 16
-33 20 -80 20 l-60 0 0 -60z"/>
<path d="M2800 3780 c-40 -40 -27 -50 60 -50 64 0 80 3 80 15 0 29 -38 55 -80
55 -27 0 -47 -7 -60 -20z"/>
<path d="M3455 3777 c-20 -16 -28 -35 -32 -68 -5 -41 -2 -50 23 -77 41 -44 90
-47 129 -7 19 19 25 35 25 70 0 88 -84 135 -145 82z"/>
<path d="M4600 3780 c-40 -40 -27 -50 60 -50 64 0 80 3 80 15 0 29 -38 55 -80
55 -27 0 -47 -7 -60 -20z"/>
<path d="M5429 3771 c-51 -52 -32 -152 34 -169 68 -18 117 22 117 96 0 55 -41
102 -90 102 -22 0 -41 -9 -61 -29z"/>
<path d="M1875 3057 c-56 -48 -39 -157 28 -175 68 -18 117 22 117 96 0 84 -85
131 -145 79z"/>
<path d="M3505 3057 c-20 -16 -28 -35 -32 -68 -5 -41 -2 -50 23 -77 41 -44 90
-47 129 -7 19 19 25 35 25 70 0 88 -84 135 -145 82z"/>
<path d="M4115 3057 c-20 -16 -28 -35 -32 -68 -5 -41 -2 -50 23 -77 41 -44 90
-47 129 -7 19 19 25 35 25 70 0 88 -84 135 -145 82z"/>
<path d="M1439 3051 c-32 -33 -39 -86 -16 -131 32 -64 126 -59 154 8 45 107
-60 200 -138 123z"/>
<path d="M3100 3060 c-40 -40 -27 -50 60 -50 64 0 80 3 80 15 0 29 -38 55 -80
55 -27 0 -47 -7 -60 -20z"/>
<path d="M4565 3068 c-34 -19 -44 -41 -45 -91 0 -63 31 -97 87 -97 78 1 117
75 78 150 -25 48 -75 64 -120 38z"/>
<path d="M2502 2103 c2 -20 9 -28 23 -28 14 0 21 8 23 28 3 23 0 27 -23 27
-23 0 -26 -4 -23 -27z"/>
<path d="M4387 2116 c-3 -8 1 -22 8 -33 13 -17 15 -17 31 -1 9 9 14 24 11 32
-8 20 -43 21 -50 2z"/>
<path d="M4607 2123 c-13 -12 -7 -41 10 -47 20 -8 44 19 36 40 -5 14 -35 19
-46 7z"/>
<path d="M5562 2103 c2 -20 9 -28 23 -28 14 0 21 8 23 28 3 23 0 27 -23 27
-23 0 -26 -4 -23 -27z"/>
<path d="M5972 2103 c2 -20 9 -28 23 -28 14 0 21 8 23 28 3 23 0 27 -23 27
-23 0 -26 -4 -23 -27z"/>
<path d="M6117 2116 c-3 -8 1 -22 8 -33 13 -17 15 -17 31 -1 9 9 14 24 11 32
-8 20 -43 21 -50 2z"/>
<path d="M970 2146 c0 -11 9 -16 26 -16 31 0 28 23 -4 28 -15 2 -22 -2 -22
-12z"/>
<path d="M972 2093 c4 -22 43 -25 43 -3 0 8 -11 16 -23 18 -19 3 -23 0 -20
-15z"/>
<path d="M1380 2120 c0 -5 11 -10 25 -10 14 0 25 5 25 10 0 6 -11 10 -25 10
-14 0 -25 -4 -25 -10z"/>
<path d="M1542 2103 c2 -20 9 -28 23 -28 14 0 21 8 23 28 3 23 0 27 -23 27
-23 0 -26 -4 -23 -27z"/>
<path d="M1775 2120 c-4 -6 5 -10 19 -10 14 0 26 5 26 10 0 6 -9 10 -19 10
-11 0 -23 -4 -26 -10z"/>
<path d="M1910 2120 c0 -5 11 -10 25 -10 14 0 25 5 25 10 0 6 -11 10 -25 10
-14 0 -25 -4 -25 -10z"/>
<path d="M2267 2116 c-3 -8 1 -22 8 -33 13 -17 15 -17 31 -1 9 9 14 24 11 32
-8 20 -43 21 -50 2z"/>
<path d="M2610 2120 c0 -5 12 -10 26 -10 14 0 23 4 19 10 -3 6 -15 10 -26 10
-10 0 -19 -4 -19 -10z"/>
<path d="M2752 2103 c2 -20 9 -28 23 -28 14 0 21 8 23 28 3 23 0 27 -23 27
-23 0 -26 -4 -23 -27z"/>
<path d="M2957 2116 c-3 -8 1 -22 8 -33 13 -17 15 -17 31 -1 9 9 14 24 11 32
-8 20 -43 21 -50 2z"/>
<path d="M3117 2123 c-13 -12 -7 -41 10 -47 20 -8 44 19 36 40 -5 14 -35 19
-46 7z"/>
<path d="M3275 2120 c-4 -6 5 -10 19 -10 14 0 26 5 26 10 0 6 -9 10 -19 10
-11 0 -23 -4 -26 -10z"/>
<path d="M3593 2114 c-3 -8 2 -23 11 -32 15 -15 17 -15 32 0 21 21 11 48 -16
48 -11 0 -23 -7 -27 -16z"/>
<path d="M3707 2123 c-13 -12 -7 -41 9 -47 22 -9 34 1 34 30 0 17 -6 24 -18
24 -10 0 -22 -3 -25 -7z"/>
<path d="M3850 2120 c0 -5 12 -10 26 -10 14 0 23 4 19 10 -3 6 -15 10 -26 10
-10 0 -19 -4 -19 -10z"/>
<path d="M3992 2103 c2 -20 9 -28 23 -28 14 0 21 8 23 28 3 23 0 27 -23 27
-23 0 -26 -4 -23 -27z"/>
<path d="M4202 2103 c2 -20 9 -28 23 -28 14 0 21 8 23 28 3 23 0 27 -23 27
-23 0 -26 -4 -23 -27z"/>
<path d="M4493 2114 c-3 -8 2 -23 11 -32 15 -15 17 -15 32 0 21 21 11 48 -16
48 -11 0 -23 -7 -27 -16z"/>
<path d="M4710 2120 c0 -5 12 -10 26 -10 14 0 23 4 19 10 -3 6 -15 10 -26 10
-10 0 -19 -4 -19 -10z"/>
<path d="M4940 2120 c0 -5 12 -10 26 -10 14 0 23 4 19 10 -3 6 -15 10 -26 10
-10 0 -19 -4 -19 -10z"/>
<path d="M5133 2114 c-3 -8 2 -23 11 -32 15 -15 17 -15 32 0 21 21 11 48 -16
48 -11 0 -23 -7 -27 -16z"/>
<path d="M5457 2123 c-13 -12 -7 -41 9 -47 22 -9 34 1 34 30 0 17 -6 24 -18
24 -10 0 -22 -3 -25 -7z"/>
<path d="M5870 2120 c0 -5 12 -10 26 -10 14 0 23 4 19 10 -3 6 -15 10 -26 10
-10 0 -19 -4 -19 -10z"/>
<path d="M6223 2114 c-3 -8 2 -23 11 -32 15 -15 17 -15 32 0 21 21 11 48 -16
48 -11 0 -23 -7 -27 -16z"/>
<path d="M3282 1853 c2 -20 9 -28 23 -28 14 0 21 8 23 28 3 23 0 27 -23 27
-23 0 -26 -4 -23 -27z"/>
<path d="M4592 1853 c2 -20 9 -28 23 -28 14 0 21 8 23 28 3 23 0 27 -23 27
-23 0 -26 -4 -23 -27z"/>
<path d="M4807 1866 c-3 -8 1 -22 8 -33 13 -17 15 -17 31 -1 9 9 14 24 11 32
-8 20 -43 21 -50 2z"/>
<path d="M5620 1896 c0 -10 9 -16 21 -16 24 0 21 23 -4 28 -10 2 -17 -3 -17
-12z"/>
<path d="M5620 1839 c0 -25 33 -22 38 4 2 12 -3 17 -17 17 -15 0 -21 -6 -21
-21z"/>
<path d="M977 1866 c-3 -8 1 -22 8 -33 13 -17 15 -17 31 -1 9 9 14 24 11 32
-8 20 -43 21 -50 2z"/>
<path d="M1082 1853 c2 -20 9 -28 23 -28 14 0 21 8 23 28 3 23 0 27 -23 27
-23 0 -26 -4 -23 -27z"/>
<path d="M1247 1866 c-3 -8 1 -22 8 -33 13 -17 15 -17 31 -1 9 9 14 24 11 32
-8 20 -43 21 -50 2z"/>
<path d="M1400 1856 c0 -14 4 -27 9 -30 18 -11 41 6 41 30 0 19 -5 24 -25 24
-20 0 -25 -5 -25 -24z"/>
<path d="M1720 1870 c0 -5 12 -10 26 -10 14 0 23 4 19 10 -3 6 -15 10 -26 10
-10 0 -19 -4 -19 -10z"/>
<path d="M1980 1870 c0 -5 12 -10 26 -10 14 0 23 4 19 10 -3 6 -15 10 -26 10
-10 0 -19 -4 -19 -10z"/>
<path d="M2322 1853 c2 -20 9 -28 23 -28 14 0 21 8 23 28 3 23 0 27 -23 27
-23 0 -26 -4 -23 -27z"/>
<path d="M2467 1873 c-13 -12 -7 -41 9 -47 22 -9 34 1 34 30 0 17 -6 24 -18
24 -10 0 -22 -3 -25 -7z"/>
<path d="M2620 1870 c0 -5 11 -10 25 -10 14 0 25 5 25 10 0 6 -11 10 -25 10
-14 0 -25 -4 -25 -10z"/>
<path d="M2763 1864 c-3 -8 2 -23 11 -32 15 -15 17 -15 32 0 21 21 11 48 -16
48 -11 0 -23 -7 -27 -16z"/>
<path d="M3387 1866 c-3 -8 1 -22 8 -33 13 -17 15 -17 31 -1 9 9 14 24 11 32
-8 20 -43 21 -50 2z"/>
<path d="M3633 1864 c-3 -8 2 -23 11 -32 15 -15 17 -15 32 0 21 21 11 48 -16
48 -11 0 -23 -7 -27 -16z"/>
<path d="M3977 1873 c-13 -12 -7 -41 10 -47 20 -8 44 19 36 40 -5 14 -35 19
-46 7z"/>
<path d="M4210 1870 c0 -5 11 -10 25 -10 14 0 25 5 25 10 0 6 -11 10 -25 10
-14 0 -25 -4 -25 -10z"/>
<path d="M4350 1856 c0 -14 4 -27 9 -30 18 -11 41 6 41 30 0 19 -5 24 -25 24
-20 0 -25 -5 -25 -24z"/>
<path d="M4697 1866 c-3 -8 1 -22 8 -33 13 -17 15 -17 31 -1 9 9 14 24 11 32
-8 20 -43 21 -50 2z"/>
<path d="M4915 1870 c-4 -6 5 -10 19 -10 14 0 26 5 26 10 0 6 -9 10 -19 10
-11 0 -23 -4 -26 -10z"/>
<path d="M5157 1873 c-13 -12 -7 -41 9 -47 22 -9 34 1 34 30 0 17 -6 24 -18
24 -10 0 -22 -3 -25 -7z"/>
<path d="M5467 1873 c-13 -12 -7 -41 10 -47 20 -8 44 19 36 40 -5 14 -35 19
-46 7z"/>
<path d="M5992 1853 c2 -20 9 -28 23 -28 14 0 21 8 23 28 3 23 0 27 -23 27
-23 0 -26 -4 -23 -27z"/>
<path d="M1292 1349 c-31 -12 -27 -36 8 -58 16 -10 27 -21 23 -24 -3 -4 -12
-2 -20 5 -9 7 -17 8 -24 1 -14 -14 14 -35 42 -31 12 2 27 11 33 21 11 19 10
21 -41 54 -15 10 -13 11 15 6 26 -4 31 -3 26 10 -7 19 -34 26 -62 16z"/>
<path d="M1648 1346 c-29 -14 -36 -66 -13 -90 19 -19 66 -21 83 -4 20 20 13
27 -25 25 -29 -2 -38 2 -41 17 -6 29 14 42 43 26 28 -15 44 -7 26 14 -17 20
-46 25 -73 12z"/>
<path d="M1819 1346 c-30 -14 -38 -66 -14 -90 26 -25 72 -20 92 10 15 23 15
29 2 52 -18 32 -50 44 -80 28z m49 -33 c5 -10 7 -24 5 -30 -6 -18 -42 -16 -49
2 -15 38 26 63 44 28z"/>
<path d="M2328 1349 c-26 -15 -22 -48 7 -61 14 -6 25 -15 25 -20 0 -12 -14
-10 -28 4 -15 15 -26 4 -18 -17 4 -11 16 -15 38 -13 28 2 33 7 33 28 0 16 -8
28 -22 35 -31 13 -29 27 2 19 30 -7 34 11 6 26 -23 12 -22 12 -43 -1z"/>
<path d="M1370 1295 l0 -55 35 0 c19 0 35 5 35 10 0 6 -9 10 -20 10 -11 0 -20
4 -20 9 0 5 9 11 20 14 11 3 20 10 20 16 0 6 -9 11 -20 11 -11 0 -20 5 -20 10
0 6 9 10 20 10 11 0 20 5 20 10 0 6 -16 10 -35 10 l-35 0 0 -55z"/>
<path d="M1460 1295 l0 -55 75 0 c43 0 75 4 75 10 0 6 -9 10 -19 10 -27 0 -35
17 -11 23 26 7 26 27 0 27 -11 0 -20 5 -20 10 0 6 11 10 25 10 14 0 25 5 25
10 0 6 -18 10 -40 10 l-40 0 0 -45 c0 -38 -3 -45 -20 -45 -17 0 -20 7 -20 45
0 33 -4 45 -15 45 -12 0 -15 -13 -15 -55z"/>
<path d="M1740 1295 c0 -42 3 -55 15 -55 12 0 15 13 15 55 0 42 -3 55 -15 55
-12 0 -15 -13 -15 -55z"/>
<path d="M1920 1295 c0 -42 3 -55 15 -55 10 0 15 10 15 28 l1 27 20 -27 c33
-45 49 -36 49 27 0 42 -3 55 -15 55 -10 0 -15 -10 -15 -27 l-1 -28 -20 28
c-33 44 -49 35 -49 -28z"/>
<path d="M2040 1295 l0 -55 35 0 c19 0 35 5 35 10 0 6 -9 10 -20 10 -11 0 -20
5 -20 10 0 6 7 10 15 10 8 0 15 7 15 15 0 8 -7 15 -15 15 -8 0 -15 5 -15 10 0
6 9 10 20 10 11 0 20 5 20 10 0 6 -16 10 -35 10 l-35 0 0 -55z"/>
<path d="M2185 1338 c-32 -89 -34 -98 -20 -98 8 0 17 5 20 10 3 6 15 10 26 10
10 0 19 -4 19 -10 0 -5 7 -10 15 -10 19 0 19 6 -1 63 -12 34 -21 47 -35 47
-11 0 -22 -6 -24 -12z m35 -49 c0 -5 -4 -9 -10 -9 -5 0 -10 7 -10 16 0 8 5 12
10 9 6 -3 10 -10 10 -16z"/>
<path d="M2410 1307 c0 -50 13 -67 52 -67 33 0 48 24 48 74 0 51 -28 49 -32
-1 -2 -27 -8 -39 -20 -41 -15 -3 -18 4 -18 37 0 30 -4 41 -15 41 -11 0 -15
-11 -15 -43z"/>
<path d="M2537 1303 c-21 -58 -21 -63 -2 -63 8 0 15 5 15 10 0 14 26 13 50 -2
29 -19 33 -5 12 48 -27 68 -52 70 -75 7z m43 -8 c0 -8 -4 -15 -10 -15 -5 0 -7
7 -4 15 4 8 8 15 10 15 2 0 4 -7 4 -15z"/>
</g>
</svg>
