<svg width="32" height="32" viewBox="0 0 51 51" fill="none" xmlns="http://www.w3.org/2000/svg">
<path d="M25.5 0C11.424 0 0 11.424 0 25.5C0 39.576 11.424 51 25.5 51H38.25V45.9H25.5C14.433 45.9 5.1 36.567 5.1 25.5C5.1 14.433 14.433 5.1 25.5 5.1C36.567 5.1 45.9 14.433 45.9 25.5V29.1465C45.9 31.161 44.0895 33.15 42.075 33.15C40.0605 33.15 38.25 31.161 38.25 29.1465V25.5C38.25 18.462 32.538 12.75 25.5 12.75C18.462 12.75 12.75 18.462 12.75 25.5C12.75 32.538 18.462 38.25 25.5 38.25C29.019 38.25 32.232 36.822 34.527 34.5015C36.1845 36.771 39.0405 38.25 42.075 38.25C47.0985 38.25 51 34.17 51 29.1465V25.5C51 11.424 39.576 0 25.5 0ZM25.5 33.15C21.267 33.15 17.85 29.733 17.85 25.5C17.85 21.267 21.267 17.85 25.5 17.85C29.733 17.85 33.15 21.267 33.15 25.5C33.15 29.733 29.733 33.15 25.5 33.15Z" fill="white" fill-opacity="0.8"/>
</svg>
